<svg width="430" height="367" viewBox="0 0 430 367" fill="none" xmlns="http://www.w3.org/2000/svg">
<path d="M46.4999 187C46.4999 186.448 46.0522 186 45.4999 186C44.9477 186 44.4999 186.448 44.4999 187C44.4999 187.552 44.9477 188 45.4999 188C46.0522 188 46.4999 187.552 46.4999 187Z" fill="#FFBD1A" fill-opacity="0.8"/>
<path d="M46.4999 181C46.4999 180.448 46.0522 180 45.4999 180C44.9477 180 44.4999 180.448 44.4999 181C44.4999 181.552 44.9477 182 45.4999 182C46.0522 182 46.4999 181.552 46.4999 181Z" fill="#FFBD1A" fill-opacity="0.8"/>
<path d="M46.4999 175C46.4999 174.448 46.0522 174 45.4999 174C44.9477 174 44.4999 174.448 44.4999 175C44.4999 175.552 44.9477 176 45.4999 176C46.0522 176 46.4999 175.552 46.4999 175Z" fill="#FFBD1A" fill-opacity="0.8"/>
<path d="M46.4999 169C46.4999 168.448 46.0522 168 45.4999 168C44.9477 168 44.4999 168.448 44.4999 169C44.4999 169.552 44.9477 170 45.4999 170C46.0522 170 46.4999 169.552 46.4999 169Z" fill="#FFBD1A" fill-opacity="0.8"/>
<path d="M46.4999 163C46.4999 162.448 46.0522 162 45.4999 162C44.9477 162 44.4999 162.448 44.4999 163C44.4999 163.552 44.9477 164 45.4999 164C46.0522 164 46.4999 163.552 46.4999 163Z" fill="#FFBD1A" fill-opacity="0.8"/>
<path d="M46.4999 157C46.4999 156.448 46.0522 156 45.4999 156C44.9477 156 44.4999 156.448 44.4999 157C44.4999 157.552 44.9477 158 45.4999 158C46.0522 158 46.4999 157.552 46.4999 157Z" fill="#FFBD1A" fill-opacity="0.8"/>
<path d="M46.4999 151C46.4999 150.448 46.0522 150 45.4999 150C44.9477 150 44.4999 150.448 44.4999 151C44.4999 151.552 44.9477 152 45.4999 152C46.0522 152 46.4999 151.552 46.4999 151Z" fill="#FFBD1A" fill-opacity="0.8"/>
<path d="M46.4999 145C46.4999 144.448 46.0522 144 45.4999 144C44.9477 144 44.4999 144.448 44.4999 145C44.4999 145.552 44.9477 146 45.4999 146C46.0522 146 46.4999 145.552 46.4999 145Z" fill="#FFBD1A" fill-opacity="0.8"/>
<path d="M46.4999 139C46.4999 138.448 46.0522 138 45.4999 138C44.9477 138 44.4999 138.448 44.4999 139C44.4999 139.552 44.9477 140 45.4999 140C46.0522 140 46.4999 139.552 46.4999 139Z" fill="#FFBD1A" fill-opacity="0.8"/>
<path d="M46.4999 133C46.4999 132.448 46.0522 132 45.4999 132C44.9477 132 44.4999 132.448 44.4999 133C44.4999 133.552 44.9477 134 45.4999 134C46.0522 134 46.4999 133.552 46.4999 133Z" fill="#FFBD1A" fill-opacity="0.8"/>
<path d="M46.4999 127C46.4999 126.448 46.0522 126 45.4999 126C44.9477 126 44.4999 126.448 44.4999 127C44.4999 127.552 44.9477 128 45.4999 128C46.0522 128 46.4999 127.552 46.4999 127Z" fill="#FFBD1A" fill-opacity="0.8"/>
<path d="M52.4999 187C52.4999 186.448 52.0522 186 51.4999 186C50.9477 186 50.4999 186.448 50.4999 187C50.4999 187.552 50.9477 188 51.4999 188C52.0522 188 52.4999 187.552 52.4999 187Z" fill="#FFBD1A" fill-opacity="0.8"/>
<path d="M52.4999 181C52.4999 180.448 52.0522 180 51.4999 180C50.9477 180 50.4999 180.448 50.4999 181C50.4999 181.552 50.9477 182 51.4999 182C52.0522 182 52.4999 181.552 52.4999 181Z" fill="#FFBD1A" fill-opacity="0.8"/>
<path d="M52.4999 175C52.4999 174.448 52.0522 174 51.4999 174C50.9477 174 50.4999 174.448 50.4999 175C50.4999 175.552 50.9477 176 51.4999 176C52.0522 176 52.4999 175.552 52.4999 175Z" fill="#FFBD1A" fill-opacity="0.8"/>
<path d="M52.4999 169C52.4999 168.448 52.0522 168 51.4999 168C50.9477 168 50.4999 168.448 50.4999 169C50.4999 169.552 50.9477 170 51.4999 170C52.0522 170 52.4999 169.552 52.4999 169Z" fill="#FFBD1A" fill-opacity="0.8"/>
<path d="M52.4999 163C52.4999 162.448 52.0522 162 51.4999 162C50.9477 162 50.4999 162.448 50.4999 163C50.4999 163.552 50.9477 164 51.4999 164C52.0522 164 52.4999 163.552 52.4999 163Z" fill="#FFBD1A" fill-opacity="0.8"/>
<path d="M52.4999 157C52.4999 156.448 52.0522 156 51.4999 156C50.9477 156 50.4999 156.448 50.4999 157C50.4999 157.552 50.9477 158 51.4999 158C52.0522 158 52.4999 157.552 52.4999 157Z" fill="#FFBD1A" fill-opacity="0.8"/>
<path d="M52.4999 151C52.4999 150.448 52.0522 150 51.4999 150C50.9477 150 50.4999 150.448 50.4999 151C50.4999 151.552 50.9477 152 51.4999 152C52.0522 152 52.4999 151.552 52.4999 151Z" fill="#FFBD1A" fill-opacity="0.8"/>
<path d="M52.4999 145C52.4999 144.448 52.0522 144 51.4999 144C50.9477 144 50.4999 144.448 50.4999 145C50.4999 145.552 50.9477 146 51.4999 146C52.0522 146 52.4999 145.552 52.4999 145Z" fill="#FFBD1A" fill-opacity="0.8"/>
<path d="M52.4999 139C52.4999 138.448 52.0522 138 51.4999 138C50.9477 138 50.4999 138.448 50.4999 139C50.4999 139.552 50.9477 140 51.4999 140C52.0522 140 52.4999 139.552 52.4999 139Z" fill="#FFBD1A" fill-opacity="0.8"/>
<path d="M52.4999 133C52.4999 132.448 52.0522 132 51.4999 132C50.9477 132 50.4999 132.448 50.4999 133C50.4999 133.552 50.9477 134 51.4999 134C52.0522 134 52.4999 133.552 52.4999 133Z" fill="#FFBD1A" fill-opacity="0.8"/>
<path d="M58.4999 187C58.4999 186.448 58.0522 186 57.4999 186C56.9477 186 56.4999 186.448 56.4999 187C56.4999 187.552 56.9477 188 57.4999 188C58.0522 188 58.4999 187.552 58.4999 187Z" fill="#FFBD1A" fill-opacity="0.8"/>
<path d="M58.4999 181C58.4999 180.448 58.0522 180 57.4999 180C56.9477 180 56.4999 180.448 56.4999 181C56.4999 181.552 56.9477 182 57.4999 182C58.0522 182 58.4999 181.552 58.4999 181Z" fill="#FFBD1A" fill-opacity="0.8"/>
<path d="M58.4999 175C58.4999 174.448 58.0522 174 57.4999 174C56.9477 174 56.4999 174.448 56.4999 175C56.4999 175.552 56.9477 176 57.4999 176C58.0522 176 58.4999 175.552 58.4999 175Z" fill="#FFBD1A" fill-opacity="0.8"/>
<path d="M58.4999 169C58.4999 168.448 58.0522 168 57.4999 168C56.9477 168 56.4999 168.448 56.4999 169C56.4999 169.552 56.9477 170 57.4999 170C58.0522 170 58.4999 169.552 58.4999 169Z" fill="#FFBD1A" fill-opacity="0.8"/>
<path d="M58.4999 163C58.4999 162.448 58.0522 162 57.4999 162C56.9477 162 56.4999 162.448 56.4999 163C56.4999 163.552 56.9477 164 57.4999 164C58.0522 164 58.4999 163.552 58.4999 163Z" fill="#FFBD1A" fill-opacity="0.8"/>
<path d="M58.4999 157C58.4999 156.448 58.0522 156 57.4999 156C56.9477 156 56.4999 156.448 56.4999 157C56.4999 157.552 56.9477 158 57.4999 158C58.0522 158 58.4999 157.552 58.4999 157Z" fill="#FFBD1A" fill-opacity="0.8"/>
<path d="M58.4999 151C58.4999 150.448 58.0522 150 57.4999 150C56.9477 150 56.4999 150.448 56.4999 151C56.4999 151.552 56.9477 152 57.4999 152C58.0522 152 58.4999 151.552 58.4999 151Z" fill="#FFBD1A" fill-opacity="0.8"/>
<path d="M58.4999 145C58.4999 144.448 58.0522 144 57.4999 144C56.9477 144 56.4999 144.448 56.4999 145C56.4999 145.552 56.9477 146 57.4999 146C58.0522 146 58.4999 145.552 58.4999 145Z" fill="#FFBD1A" fill-opacity="0.8"/>
<path d="M58.4999 139C58.4999 138.448 58.0522 138 57.4999 138C56.9477 138 56.4999 138.448 56.4999 139C56.4999 139.552 56.9477 140 57.4999 140C58.0522 140 58.4999 139.552 58.4999 139Z" fill="#FFBD1A" fill-opacity="0.8"/>
<path d="M64.4999 187C64.4999 186.448 64.0522 186 63.4999 186C62.9477 186 62.4999 186.448 62.4999 187C62.4999 187.552 62.9477 188 63.4999 188C64.0522 188 64.4999 187.552 64.4999 187Z" fill="#FFBD1A" fill-opacity="0.8"/>
<path d="M64.4999 181C64.4999 180.448 64.0522 180 63.4999 180C62.9477 180 62.4999 180.448 62.4999 181C62.4999 181.552 62.9477 182 63.4999 182C64.0522 182 64.4999 181.552 64.4999 181Z" fill="#FFBD1A" fill-opacity="0.8"/>
<path d="M64.4999 175C64.4999 174.448 64.0522 174 63.4999 174C62.9477 174 62.4999 174.448 62.4999 175C62.4999 175.552 62.9477 176 63.4999 176C64.0522 176 64.4999 175.552 64.4999 175Z" fill="#FFBD1A" fill-opacity="0.8"/>
<path d="M64.4999 169C64.4999 168.448 64.0522 168 63.4999 168C62.9477 168 62.4999 168.448 62.4999 169C62.4999 169.552 62.9477 170 63.4999 170C64.0522 170 64.4999 169.552 64.4999 169Z" fill="#FFBD1A" fill-opacity="0.8"/>
<path d="M64.4999 163C64.4999 162.448 64.0522 162 63.4999 162C62.9477 162 62.4999 162.448 62.4999 163C62.4999 163.552 62.9477 164 63.4999 164C64.0522 164 64.4999 163.552 64.4999 163Z" fill="#FFBD1A" fill-opacity="0.8"/>
<path d="M64.4999 157C64.4999 156.448 64.0522 156 63.4999 156C62.9477 156 62.4999 156.448 62.4999 157C62.4999 157.552 62.9477 158 63.4999 158C64.0522 158 64.4999 157.552 64.4999 157Z" fill="#FFBD1A" fill-opacity="0.8"/>
<path d="M64.4999 151C64.4999 150.448 64.0522 150 63.4999 150C62.9477 150 62.4999 150.448 62.4999 151C62.4999 151.552 62.9477 152 63.4999 152C64.0522 152 64.4999 151.552 64.4999 151Z" fill="#FFBD1A" fill-opacity="0.8"/>
<path d="M64.4999 145C64.4999 144.448 64.0522 144 63.4999 144C62.9477 144 62.4999 144.448 62.4999 145C62.4999 145.552 62.9477 146 63.4999 146C64.0522 146 64.4999 145.552 64.4999 145Z" fill="#FFBD1A" fill-opacity="0.8"/>
<path d="M70.4999 187C70.4999 186.448 70.0522 186 69.4999 186C68.9477 186 68.4999 186.448 68.4999 187C68.4999 187.552 68.9477 188 69.4999 188C70.0522 188 70.4999 187.552 70.4999 187Z" fill="#FFBD1A" fill-opacity="0.8"/>
<path d="M70.4999 181C70.4999 180.448 70.0522 180 69.4999 180C68.9477 180 68.4999 180.448 68.4999 181C68.4999 181.552 68.9477 182 69.4999 182C70.0522 182 70.4999 181.552 70.4999 181Z" fill="#FFBD1A" fill-opacity="0.8"/>
<path d="M70.4999 175C70.4999 174.448 70.0522 174 69.4999 174C68.9477 174 68.4999 174.448 68.4999 175C68.4999 175.552 68.9477 176 69.4999 176C70.0522 176 70.4999 175.552 70.4999 175Z" fill="#FFBD1A" fill-opacity="0.8"/>
<path d="M70.4999 169C70.4999 168.448 70.0522 168 69.4999 168C68.9477 168 68.4999 168.448 68.4999 169C68.4999 169.552 68.9477 170 69.4999 170C70.0522 170 70.4999 169.552 70.4999 169Z" fill="#FFBD1A" fill-opacity="0.8"/>
<path d="M70.4999 163C70.4999 162.448 70.0522 162 69.4999 162C68.9477 162 68.4999 162.448 68.4999 163C68.4999 163.552 68.9477 164 69.4999 164C70.0522 164 70.4999 163.552 70.4999 163Z" fill="#FFBD1A" fill-opacity="0.8"/>
<path d="M70.4999 157C70.4999 156.448 70.0522 156 69.4999 156C68.9477 156 68.4999 156.448 68.4999 157C68.4999 157.552 68.9477 158 69.4999 158C70.0522 158 70.4999 157.552 70.4999 157Z" fill="#FFBD1A" fill-opacity="0.8"/>
<path d="M70.4999 151C70.4999 150.448 70.0522 150 69.4999 150C68.9477 150 68.4999 150.448 68.4999 151C68.4999 151.552 68.9477 152 69.4999 152C70.0522 152 70.4999 151.552 70.4999 151Z" fill="#FFBD1A" fill-opacity="0.8"/>
<path d="M386.5 187C386.5 186.448 386.948 186 387.5 186C388.052 186 388.5 186.448 388.5 187C388.5 187.552 388.052 188 387.5 188C386.948 188 386.5 187.552 386.5 187Z" fill="#FFBD1A" fill-opacity="0.8"/>
<path d="M386.5 181C386.5 180.448 386.948 180 387.5 180C388.052 180 388.5 180.448 388.5 181C388.5 181.552 388.052 182 387.5 182C386.948 182 386.5 181.552 386.5 181Z" fill="#FFBD1A" fill-opacity="0.8"/>
<path d="M386.5 175C386.5 174.448 386.948 174 387.5 174C388.052 174 388.5 174.448 388.5 175C388.5 175.552 388.052 176 387.5 176C386.948 176 386.5 175.552 386.5 175Z" fill="#FFBD1A" fill-opacity="0.8"/>
<path d="M386.5 169C386.5 168.448 386.948 168 387.5 168C388.052 168 388.5 168.448 388.5 169C388.5 169.552 388.052 170 387.5 170C386.948 170 386.5 169.552 386.5 169Z" fill="#FFBD1A" fill-opacity="0.8"/>
<path d="M386.5 163C386.5 162.448 386.948 162 387.5 162C388.052 162 388.5 162.448 388.5 163C388.5 163.552 388.052 164 387.5 164C386.948 164 386.5 163.552 386.5 163Z" fill="#FFBD1A" fill-opacity="0.8"/>
<path d="M386.5 157C386.5 156.448 386.948 156 387.5 156C388.052 156 388.5 156.448 388.5 157C388.5 157.552 388.052 158 387.5 158C386.948 158 386.5 157.552 386.5 157Z" fill="#FFBD1A" fill-opacity="0.8"/>
<path d="M386.5 151C386.5 150.448 386.948 150 387.5 150C388.052 150 388.5 150.448 388.5 151C388.5 151.552 388.052 152 387.5 152C386.948 152 386.5 151.552 386.5 151Z" fill="#FFBD1A" fill-opacity="0.8"/>
<path d="M386.5 145C386.5 144.448 386.948 144 387.5 144C388.052 144 388.5 144.448 388.5 145C388.5 145.552 388.052 146 387.5 146C386.948 146 386.5 145.552 386.5 145Z" fill="#FFBD1A" fill-opacity="0.8"/>
<path d="M386.5 139C386.5 138.448 386.948 138 387.5 138C388.052 138 388.5 138.448 388.5 139C388.5 139.552 388.052 140 387.5 140C386.948 140 386.5 139.552 386.5 139Z" fill="#FFBD1A" fill-opacity="0.8"/>
<path d="M386.5 133C386.5 132.448 386.948 132 387.5 132C388.052 132 388.5 132.448 388.5 133C388.5 133.552 388.052 134 387.5 134C386.948 134 386.5 133.552 386.5 133Z" fill="#FFBD1A" fill-opacity="0.8"/>
<path d="M386.5 127C386.5 126.448 386.948 126 387.5 126C388.052 126 388.5 126.448 388.5 127C388.5 127.552 388.052 128 387.5 128C386.948 128 386.5 127.552 386.5 127Z" fill="#FFBD1A" fill-opacity="0.8"/>
<path d="M380.5 187C380.5 186.448 380.948 186 381.5 186C382.052 186 382.5 186.448 382.5 187C382.5 187.552 382.052 188 381.5 188C380.948 188 380.5 187.552 380.5 187Z" fill="#FFBD1A" fill-opacity="0.8"/>
<path d="M380.5 181C380.5 180.448 380.948 180 381.5 180C382.052 180 382.5 180.448 382.5 181C382.5 181.552 382.052 182 381.5 182C380.948 182 380.5 181.552 380.5 181Z" fill="#FFBD1A" fill-opacity="0.8"/>
<path d="M380.5 175C380.5 174.448 380.948 174 381.5 174C382.052 174 382.5 174.448 382.5 175C382.5 175.552 382.052 176 381.5 176C380.948 176 380.5 175.552 380.5 175Z" fill="#FFBD1A" fill-opacity="0.8"/>
<path d="M380.5 169C380.5 168.448 380.948 168 381.5 168C382.052 168 382.5 168.448 382.5 169C382.5 169.552 382.052 170 381.5 170C380.948 170 380.5 169.552 380.5 169Z" fill="#FFBD1A" fill-opacity="0.8"/>
<path d="M380.5 163C380.5 162.448 380.948 162 381.5 162C382.052 162 382.5 162.448 382.5 163C382.5 163.552 382.052 164 381.5 164C380.948 164 380.5 163.552 380.5 163Z" fill="#FFBD1A" fill-opacity="0.8"/>
<path d="M380.5 157C380.5 156.448 380.948 156 381.5 156C382.052 156 382.5 156.448 382.5 157C382.5 157.552 382.052 158 381.5 158C380.948 158 380.5 157.552 380.5 157Z" fill="#FFBD1A" fill-opacity="0.8"/>
<path d="M380.5 151C380.5 150.448 380.948 150 381.5 150C382.052 150 382.5 150.448 382.5 151C382.5 151.552 382.052 152 381.5 152C380.948 152 380.5 151.552 380.5 151Z" fill="#FFBD1A" fill-opacity="0.8"/>
<path d="M380.5 145C380.5 144.448 380.948 144 381.5 144C382.052 144 382.5 144.448 382.5 145C382.5 145.552 382.052 146 381.5 146C380.948 146 380.5 145.552 380.5 145Z" fill="#FFBD1A" fill-opacity="0.8"/>
<path d="M380.5 139C380.5 138.448 380.948 138 381.5 138C382.052 138 382.5 138.448 382.5 139C382.5 139.552 382.052 140 381.5 140C380.948 140 380.5 139.552 380.5 139Z" fill="#FFBD1A" fill-opacity="0.8"/>
<path d="M380.5 133C380.5 132.448 380.948 132 381.5 132C382.052 132 382.5 132.448 382.5 133C382.5 133.552 382.052 134 381.5 134C380.948 134 380.5 133.552 380.5 133Z" fill="#FFBD1A" fill-opacity="0.8"/>
<path d="M374.5 187C374.5 186.448 374.948 186 375.5 186C376.052 186 376.5 186.448 376.5 187C376.5 187.552 376.052 188 375.5 188C374.948 188 374.5 187.552 374.5 187Z" fill="#FFBD1A" fill-opacity="0.8"/>
<path d="M374.5 181C374.5 180.448 374.948 180 375.5 180C376.052 180 376.5 180.448 376.5 181C376.5 181.552 376.052 182 375.5 182C374.948 182 374.5 181.552 374.5 181Z" fill="#FFBD1A" fill-opacity="0.8"/>
<path d="M374.5 175C374.5 174.448 374.948 174 375.5 174C376.052 174 376.5 174.448 376.5 175C376.5 175.552 376.052 176 375.5 176C374.948 176 374.5 175.552 374.5 175Z" fill="#FFBD1A" fill-opacity="0.8"/>
<path d="M374.5 169C374.5 168.448 374.948 168 375.5 168C376.052 168 376.5 168.448 376.5 169C376.5 169.552 376.052 170 375.5 170C374.948 170 374.5 169.552 374.5 169Z" fill="#FFBD1A" fill-opacity="0.8"/>
<path d="M374.5 163C374.5 162.448 374.948 162 375.5 162C376.052 162 376.5 162.448 376.5 163C376.5 163.552 376.052 164 375.5 164C374.948 164 374.5 163.552 374.5 163Z" fill="#FFBD1A" fill-opacity="0.8"/>
<path d="M374.5 157C374.5 156.448 374.948 156 375.5 156C376.052 156 376.5 156.448 376.5 157C376.5 157.552 376.052 158 375.5 158C374.948 158 374.5 157.552 374.5 157Z" fill="#FFBD1A" fill-opacity="0.8"/>
<path d="M374.5 151C374.5 150.448 374.948 150 375.5 150C376.052 150 376.5 150.448 376.5 151C376.5 151.552 376.052 152 375.5 152C374.948 152 374.5 151.552 374.5 151Z" fill="#FFBD1A" fill-opacity="0.8"/>
<path d="M374.5 145C374.5 144.448 374.948 144 375.5 144C376.052 144 376.5 144.448 376.5 145C376.5 145.552 376.052 146 375.5 146C374.948 146 374.5 145.552 374.5 145Z" fill="#FFBD1A" fill-opacity="0.8"/>
<path d="M374.5 139C374.5 138.448 374.948 138 375.5 138C376.052 138 376.5 138.448 376.5 139C376.5 139.552 376.052 140 375.5 140C374.948 140 374.5 139.552 374.5 139Z" fill="#FFBD1A" fill-opacity="0.8"/>
<path d="M368.5 187C368.5 186.448 368.948 186 369.5 186C370.052 186 370.5 186.448 370.5 187C370.5 187.552 370.052 188 369.5 188C368.948 188 368.5 187.552 368.5 187Z" fill="#FFBD1A" fill-opacity="0.8"/>
<path d="M368.5 181C368.5 180.448 368.948 180 369.5 180C370.052 180 370.5 180.448 370.5 181C370.5 181.552 370.052 182 369.5 182C368.948 182 368.5 181.552 368.5 181Z" fill="#FFBD1A" fill-opacity="0.8"/>
<path d="M368.5 175C368.5 174.448 368.948 174 369.5 174C370.052 174 370.5 174.448 370.5 175C370.5 175.552 370.052 176 369.5 176C368.948 176 368.5 175.552 368.5 175Z" fill="#FFBD1A" fill-opacity="0.8"/>
<path d="M368.5 169C368.5 168.448 368.948 168 369.5 168C370.052 168 370.5 168.448 370.5 169C370.5 169.552 370.052 170 369.5 170C368.948 170 368.5 169.552 368.5 169Z" fill="#FFBD1A" fill-opacity="0.8"/>
<path d="M368.5 163C368.5 162.448 368.948 162 369.5 162C370.052 162 370.5 162.448 370.5 163C370.5 163.552 370.052 164 369.5 164C368.948 164 368.5 163.552 368.5 163Z" fill="#FFBD1A" fill-opacity="0.8"/>
<path d="M368.5 157C368.5 156.448 368.948 156 369.5 156C370.052 156 370.5 156.448 370.5 157C370.5 157.552 370.052 158 369.5 158C368.948 158 368.5 157.552 368.5 157Z" fill="#FFBD1A" fill-opacity="0.8"/>
<path d="M368.5 151C368.5 150.448 368.948 150 369.5 150C370.052 150 370.5 150.448 370.5 151C370.5 151.552 370.052 152 369.5 152C368.948 152 368.5 151.552 368.5 151Z" fill="#FFBD1A" fill-opacity="0.8"/>
<path d="M368.5 145C368.5 144.448 368.948 144 369.5 144C370.052 144 370.5 144.448 370.5 145C370.5 145.552 370.052 146 369.5 146C368.948 146 368.5 145.552 368.5 145Z" fill="#FFBD1A" fill-opacity="0.8"/>
<path d="M362.5 187C362.5 186.448 362.948 186 363.5 186C364.052 186 364.5 186.448 364.5 187C364.5 187.552 364.052 188 363.5 188C362.948 188 362.5 187.552 362.5 187Z" fill="#FFBD1A" fill-opacity="0.8"/>
<path d="M362.5 181C362.5 180.448 362.948 180 363.5 180C364.052 180 364.5 180.448 364.5 181C364.5 181.552 364.052 182 363.5 182C362.948 182 362.5 181.552 362.5 181Z" fill="#FFBD1A" fill-opacity="0.8"/>
<path d="M362.5 175C362.5 174.448 362.948 174 363.5 174C364.052 174 364.5 174.448 364.5 175C364.5 175.552 364.052 176 363.5 176C362.948 176 362.5 175.552 362.5 175Z" fill="#FFBD1A" fill-opacity="0.8"/>
<path d="M362.5 169C362.5 168.448 362.948 168 363.5 168C364.052 168 364.5 168.448 364.5 169C364.5 169.552 364.052 170 363.5 170C362.948 170 362.5 169.552 362.5 169Z" fill="#FFBD1A" fill-opacity="0.8"/>
<path d="M362.5 163C362.5 162.448 362.948 162 363.5 162C364.052 162 364.5 162.448 364.5 163C364.5 163.552 364.052 164 363.5 164C362.948 164 362.5 163.552 362.5 163Z" fill="#FFBD1A" fill-opacity="0.8"/>
<path d="M362.5 157C362.5 156.448 362.948 156 363.5 156C364.052 156 364.5 156.448 364.5 157C364.5 157.552 364.052 158 363.5 158C362.948 158 362.5 157.552 362.5 157Z" fill="#FFBD1A" fill-opacity="0.8"/>
<path d="M362.5 151C362.5 150.448 362.948 150 363.5 150C364.052 150 364.5 150.448 364.5 151C364.5 151.552 364.052 152 363.5 152C362.948 152 362.5 151.552 362.5 151Z" fill="#FFBD1A" fill-opacity="0.8"/>
<path fill-rule="evenodd" clip-rule="evenodd" d="M398.493 103.927C395.747 101.401 392.986 99.7517 389.772 100.031C386.518 100.313 384.283 102.662 382 105.853C381.548 106.485 381.077 107.173 380.598 107.876C379.93 108.854 379.244 109.86 378.561 110.778C377.35 112.405 376.003 113.972 374.383 115.174C371.95 116.98 369.144 118.097 366.492 119.153C366.23 119.257 365.969 119.361 365.711 119.465C362.783 120.639 360.084 121.823 357.924 123.847C357.087 124.631 356.212 125.414 355.328 126.203C353.187 128.119 350.998 130.076 349.194 132.2C346.665 135.176 345.117 138.239 345.583 141.588C346.061 145.025 348.774 147.209 352.39 149.411C353.036 149.804 353.72 150.203 354.416 150.609C355.59 151.295 356.801 152.001 357.924 152.735C359.744 153.923 361.487 155.274 362.823 156.963C364.752 159.402 365.736 162.396 366.647 165.168C366.746 165.471 366.845 165.771 366.944 166.068C367.976 169.162 369.043 171.901 371.246 173.843C376.304 178.305 383.022 181.338 389.63 180.97C392.823 180.792 395.73 179.514 398.579 177.739C400.409 176.598 402.137 175.308 403.893 173.998C404.915 173.234 405.946 172.464 407.012 171.714C412.16 168.086 416.908 164.287 420.34 159.222C422.202 156.475 424.092 153.67 425.47 150.745C426.843 147.829 427.675 144.857 427.469 141.793C427.268 138.801 425.916 136.142 424.073 133.508C423.152 132.191 422.126 130.905 421.077 129.591L421.058 129.566C420.023 128.27 418.966 126.945 418.012 125.583C414.567 120.665 411.035 116.156 406.607 112.21C405.204 110.959 403.847 109.5 402.518 108.063L402.395 107.93C401.095 106.526 399.818 105.145 398.493 103.927ZM403.986 106.705C405.325 108.153 406.618 109.54 407.938 110.717C412.535 114.814 416.171 119.468 419.65 124.436C420.568 125.746 421.592 127.029 422.641 128.343L422.641 128.344C423.683 129.649 424.749 130.984 425.712 132.361C427.638 135.115 429.227 138.133 429.464 141.659C429.701 145.179 428.738 148.5 427.279 151.597C425.824 154.687 423.844 157.618 421.996 160.345C418.351 165.722 413.351 169.693 408.164 173.348C407.195 174.031 406.206 174.769 405.199 175.519C403.389 176.869 401.525 178.259 399.636 179.436C396.65 181.297 393.409 182.762 389.741 182.967C382.471 183.372 375.258 180.049 369.923 175.343C367.272 173.005 366.072 169.774 365.047 166.701C364.948 166.405 364.851 166.112 364.755 165.82C363.822 162.993 362.949 160.347 361.255 158.203C360.114 156.761 358.575 155.549 356.831 154.41C355.737 153.695 354.619 153.044 353.485 152.382C352.779 151.971 352.067 151.555 351.35 151.119C347.756 148.931 344.222 146.318 343.602 141.864C343.018 137.671 345.005 134.041 347.669 130.905C349.568 128.67 351.924 126.563 354.105 124.612C354.962 123.846 355.792 123.103 356.557 122.387C359.021 120.078 362.049 118.779 364.966 117.608C365.22 117.507 365.472 117.406 365.724 117.306C368.417 116.232 370.98 115.21 373.191 113.568C374.582 112.536 375.791 111.15 376.956 109.584C377.64 108.665 378.262 107.752 378.893 106.825C379.371 106.123 379.854 105.414 380.373 104.689C382.662 101.491 385.366 98.4057 389.599 98.0382C393.676 97.6842 396.984 99.8214 399.847 102.455C401.233 103.729 402.559 105.162 403.841 106.549L403.986 106.705Z" fill="#F4F8EC" fill-opacity="0.2"/>
<path fill-rule="evenodd" clip-rule="evenodd" d="M40.6048 106.95C32.8495 105.649 24.6663 107.22 17.7446 111.008C10.7131 114.856 4.27927 120.695 1.70614 128.211C0.490367 131.762 1.02936 135.416 1.93379 139.233C2.12465 140.038 2.33247 140.852 2.54209 141.674C3.31505 144.702 4.11251 147.826 4.174 150.956C4.23337 153.977 3.51144 157.055 2.81441 160.026C2.61575 160.873 2.41912 161.711 2.24317 162.537C1.43924 166.31 1.04997 169.864 2.57703 173.154C4.12333 176.486 6.87614 178.841 10.1234 180.82C11.7462 181.808 13.4815 182.697 15.2394 183.566C15.658 183.773 16.0784 183.979 16.4988 184.185C17.8373 184.841 19.1761 185.498 20.459 186.183L20.6418 186.281C27.1098 189.735 33.5486 193.175 40.7076 193.462C48.1496 193.761 55.9256 192.338 61.8158 187.906C64.6063 185.806 66.1182 182.686 67.5196 179.289C67.7112 178.825 67.9008 178.355 68.0916 177.882C69.28 174.936 70.513 171.88 72.5466 169.38C74.0437 167.539 76.0136 166.02 78.1009 164.638C79.146 163.947 80.2275 163.286 81.2993 162.635C81.4157 162.564 81.5319 162.494 81.648 162.424C82.6035 161.844 83.5474 161.272 84.4579 160.687C88.5711 158.044 91.7915 155.267 91.9899 150.942C92.1852 146.684 89.493 143.492 85.8027 140.502C84.4173 139.379 82.9172 138.305 81.403 137.221C80.9049 136.864 80.4052 136.506 79.9076 136.145C77.909 134.695 75.9528 133.2 74.3429 131.56C69.5541 126.682 64.9847 122.055 59.5052 118.067C58.252 117.155 57.0168 116.195 55.7886 115.241C55.5199 115.032 55.2515 114.823 54.9834 114.616C53.4858 113.455 51.9912 112.318 50.4588 111.281C47.3937 109.206 44.2042 107.554 40.6048 106.95ZM17.2646 110.131C24.3678 106.243 32.7771 104.623 40.7702 105.964C44.5702 106.601 47.8977 108.34 51.0193 110.452C52.5802 111.509 54.0963 112.664 55.5958 113.825C55.8667 114.035 56.1369 114.245 56.4067 114.455C57.6344 115.409 58.8544 116.357 60.0936 117.259C65.6502 121.303 70.2744 125.988 75.0565 130.86C76.6035 132.436 78.5011 133.889 80.4948 135.336C80.9806 135.688 81.4727 136.041 81.9664 136.394C83.4867 137.483 85.0215 138.582 86.4323 139.725C90.1619 142.747 93.2077 146.217 92.9889 150.988C92.7652 155.865 89.1074 158.888 84.9984 161.528C84.0764 162.121 83.121 162.7 82.1672 163.278C82.0508 163.349 81.9344 163.419 81.8181 163.49C80.7462 164.14 79.6798 164.793 78.6528 165.472C76.5958 166.834 74.7245 168.287 73.3223 170.011C71.3919 172.384 70.2208 175.283 69.0272 178.237C68.8345 178.714 68.6412 179.193 68.444 179.67C67.0417 183.069 65.4457 186.426 62.4171 188.705C56.2753 193.326 48.239 194.765 40.6675 194.461C33.2777 194.165 26.6629 190.631 20.2644 187.213L19.9878 187.065C18.7218 186.389 17.405 185.743 16.0701 185.089C15.6469 184.881 15.222 184.673 14.7962 184.463C13.0336 183.591 11.2654 182.687 9.60299 181.673C6.27988 179.648 3.33585 177.164 1.66996 173.575C-0.00494504 169.966 0.455876 166.127 1.26513 162.328C1.45121 161.455 1.65494 160.585 1.85786 159.719C2.54902 156.769 3.23084 153.858 3.17419 150.975C3.11521 147.973 2.35661 144.998 1.5886 141.986C1.3751 141.148 1.16087 140.308 0.960745 139.463C0.0505632 135.623 -0.554169 131.726 0.760056 127.887C3.44461 120.046 10.1141 114.044 17.2646 110.131Z" fill="#F4F8EC" fill-opacity="0.2"/>
<path fill-rule="evenodd" clip-rule="evenodd" d="M210.522 2.44299C202.886 1.16222 194.815 2.70827 187.985 6.44659C181.013 10.2622 174.697 16.0202 172.179 23.373C171.013 26.7802 171.519 30.3131 172.42 34.1174C172.607 34.9037 172.811 35.7051 173.019 36.5182C173.794 39.5533 174.611 42.7526 174.674 45.9458C174.735 49.037 173.992 52.1985 173.293 55.1785C173.096 56.0155 172.903 56.8381 172.732 57.6409C171.931 61.4018 171.577 64.8125 173.031 67.9436C174.517 71.1465 177.174 73.4369 180.384 75.3926C181.987 76.3695 183.705 77.25 185.461 78.118C185.876 78.3232 186.294 78.5282 186.713 78.7336C188.054 79.3906 189.403 80.0522 190.694 80.7419L190.826 80.8123C197.332 84.2874 203.684 87.6797 210.728 87.9624C218.105 88.2585 225.751 86.8439 231.515 82.5061C234.187 80.4958 235.656 77.4939 237.057 74.0984C237.246 73.6408 237.434 73.1751 237.624 72.7044C238.809 69.7632 240.073 66.628 242.159 64.0644C243.703 62.1655 245.722 60.6128 247.825 59.2215C248.879 58.5239 249.968 57.8581 251.04 57.2077C251.156 57.1369 251.273 57.0664 251.389 56.996C252.345 56.4162 253.283 55.8475 254.188 55.2664C258.303 52.6224 261.305 49.9686 261.49 45.9196C261.674 41.9174 259.159 38.8646 255.488 35.8904C254.115 34.7781 252.632 33.7161 251.121 32.634C250.621 32.2757 250.117 31.9152 249.614 31.5499C247.613 30.0983 245.627 28.5826 243.986 26.9106C239.194 22.0286 234.652 17.4315 229.211 13.4716C227.951 12.5545 226.708 11.5887 225.48 10.634C225.211 10.4256 224.944 10.2177 224.677 10.011C223.18 8.8515 221.697 7.72219 220.179 6.69471C217.142 4.63945 214.021 3.02987 210.522 2.44299ZM187.024 4.69214C194.219 0.755044 202.741 -0.890015 210.853 0.470538C214.753 1.12469 218.15 2.90659 221.3 5.03839C222.875 6.10444 224.402 7.26756 225.902 8.42999C226.174 8.64085 226.445 8.8515 226.716 9.06159C227.943 10.0155 229.156 10.9577 230.388 11.8545C235.983 15.9265 240.635 20.6413 245.413 25.5096C246.929 27.0534 248.797 28.4864 250.788 29.931C251.268 30.2793 251.757 30.6291 252.248 30.981C253.771 32.0717 255.324 33.1832 256.747 34.3365C260.496 37.3745 263.719 40.9834 263.488 46.0112C263.252 51.1637 259.376 54.3105 255.269 56.9491C254.341 57.5453 253.379 58.1282 252.426 58.7061C252.31 58.7767 252.193 58.8471 252.077 58.9175C251.006 59.568 249.947 60.2157 248.929 60.8893C246.887 62.2405 245.065 63.6609 243.71 65.3264C241.831 67.6365 240.691 70.4564 239.495 73.4151C239.301 73.894 239.106 74.3766 238.906 74.8612C237.503 78.2614 235.865 81.7355 232.718 84.1041C226.45 88.8205 218.284 90.2672 210.647 89.9608C203.142 89.6596 196.439 86.0782 190.072 82.6769L189.752 82.506C188.495 81.8343 187.189 81.1942 185.856 80.5407C185.431 80.3326 185.004 80.1231 184.575 79.9108C182.81 79.0383 181.025 78.1256 179.343 77.1005C175.982 75.0523 172.942 72.5038 171.216 68.7855C169.468 65.0174 169.964 61.0349 170.776 57.2242C170.967 56.3262 171.175 55.4407 171.38 54.5649C172.068 51.6269 172.73 48.7994 172.674 45.985C172.617 43.0467 171.877 40.1452 171.112 37.1421C170.897 36.2967 170.679 35.4432 170.474 34.5786C169.561 30.7258 168.924 26.7075 170.287 22.7252C173.027 14.7214 179.815 8.63793 187.024 4.69214Z" fill="#F4F8EC" fill-opacity="0.2"/>
<rect x="66.4999" y="167" width="300" height="200" rx="20" fill="url(#paint0_linear_0_1)"/>
<path d="M46.2153 139.431C61.522 139.431 73.9306 127.022 73.9306 111.715C73.9306 96.4086 61.522 84 46.2153 84C30.9085 84 18.4999 96.4086 18.4999 111.715C18.4999 127.022 30.9085 139.431 46.2153 139.431Z" fill="#E97600"/>
<path d="M46.2152 135.481C59.3405 135.481 69.9806 124.841 69.9806 111.715C69.9806 98.5901 59.3405 87.95 46.2152 87.95C33.0899 87.95 22.4497 98.5901 22.4497 111.715C22.4497 124.841 33.0899 135.481 46.2152 135.481Z" fill="#FFDE02"/>
<path d="M62.4014 113.78C62.3825 113.902 62.3637 114.025 62.3448 114.157C62.3448 114.185 62.3354 114.214 62.3354 114.232C62.3165 114.336 62.2977 114.449 62.2788 114.562C62.2788 114.591 62.2694 114.609 62.2694 114.638C62.2223 114.902 62.1657 115.166 62.1091 115.43C62.0809 115.562 62.0432 115.694 62.0149 115.835C61.9866 115.939 61.9583 116.042 61.93 116.146C61.9112 116.221 61.8923 116.297 61.864 116.372C61.8358 116.476 61.8075 116.57 61.7792 116.665C61.7415 116.787 61.7038 116.9 61.6661 117.013C61.6284 117.136 61.5812 117.258 61.5341 117.381C61.5341 117.39 61.5247 117.4 61.5247 117.409C61.4775 117.532 61.4304 117.654 61.3833 117.767C61.3361 117.881 61.289 117.994 61.2419 118.107C61.2324 118.116 61.2324 118.135 61.223 118.145C61.1665 118.267 61.1193 118.39 61.0628 118.503C61.0156 118.606 60.9685 118.701 60.9214 118.804C60.9119 118.833 60.8931 118.87 60.8742 118.908C60.8177 119.012 60.7705 119.116 60.714 119.229C60.6668 119.314 60.6197 119.398 60.582 119.493L60.516 119.615C60.4689 119.7 60.4217 119.785 60.3746 119.87C60.3652 119.889 60.3557 119.907 60.3369 119.926C60.2803 120.03 60.2143 120.134 60.1483 120.237C60.1389 120.247 60.1389 120.256 60.1295 120.266C60.0729 120.36 60.0164 120.445 59.9598 120.53C59.9315 120.577 59.9032 120.614 59.875 120.652C59.8278 120.728 59.7713 120.812 59.7147 120.888C59.6487 120.982 59.5827 121.076 59.5167 121.171C59.4602 121.255 59.3942 121.35 59.3282 121.425C59.3093 121.453 59.2905 121.472 59.2716 121.501C59.2056 121.585 59.1491 121.661 59.0831 121.736C58.9794 121.878 58.8663 122.01 58.7531 122.151C58.6683 122.255 58.574 122.368 58.4798 122.472C58.3666 122.594 58.2629 122.717 58.1404 122.839C58.065 122.924 57.9801 123.009 57.8953 123.094C57.8764 123.113 57.867 123.122 57.8482 123.141C57.7633 123.226 57.6785 123.311 57.5936 123.395C57.5842 123.405 57.5653 123.424 57.5559 123.433C57.4711 123.509 57.3957 123.584 57.3108 123.669C57.2825 123.697 57.2543 123.725 57.226 123.744C57.1411 123.82 57.0563 123.895 56.9714 123.98C56.962 123.989 56.9526 123.999 56.9432 124.008C56.8395 124.093 56.7452 124.187 56.6415 124.263C56.6321 124.272 56.6321 124.272 56.6226 124.282C56.5284 124.357 56.4435 124.432 56.3493 124.498C56.321 124.527 56.2833 124.545 56.255 124.574C56.1984 124.621 56.1419 124.659 56.0853 124.706C56.0193 124.753 55.9533 124.8 55.8873 124.857C55.7931 124.923 55.6988 124.998 55.6045 125.064C55.5008 125.139 55.3877 125.215 55.284 125.29C55.2746 125.3 55.2652 125.3 55.2557 125.309L55.1803 125.366C55.1709 125.366 55.1709 125.375 55.1709 125.375C55.0578 125.45 54.9541 125.516 54.8409 125.582C54.7844 125.62 54.7278 125.648 54.6807 125.686C54.6241 125.724 54.577 125.752 54.5204 125.78C54.4544 125.818 54.3979 125.856 54.3319 125.894C54.2282 125.96 54.1245 126.016 54.0208 126.073C54.0114 126.082 54.0019 126.082 53.9925 126.092C53.8794 126.148 53.7757 126.214 53.6626 126.271C53.6437 126.28 53.6154 126.299 53.5966 126.308C53.4929 126.365 53.3892 126.412 53.2761 126.469C53.2195 126.497 53.1629 126.525 53.1158 126.544C52.9273 126.629 52.7387 126.714 52.5502 126.799C52.4842 126.827 52.4182 126.855 52.3522 126.874C52.3051 126.893 52.2579 126.912 52.2202 126.931C52.1542 126.959 52.0977 126.978 52.0317 127.006C52.0128 127.015 52.0034 127.015 51.9846 127.025C51.8149 127.091 51.6452 127.157 51.4661 127.213L51.3907 127.242C51.2587 127.279 51.1361 127.326 51.0042 127.364C50.891 127.392 50.7873 127.43 50.6742 127.458C50.6271 127.468 50.5799 127.487 50.5328 127.496C50.4385 127.524 50.3348 127.553 50.2406 127.572C50.118 127.6 50.0049 127.628 49.8823 127.656C49.8729 127.656 49.8541 127.666 49.8446 127.666C49.7221 127.694 49.5901 127.722 49.4676 127.751C49.3827 127.77 49.3073 127.788 49.2225 127.798C49.0339 127.835 48.8454 127.864 48.6663 127.892C48.5343 127.911 48.4023 127.93 48.2703 127.949C48.1384 127.967 48.0158 127.986 47.8838 127.996C47.865 127.996 47.8555 127.996 47.8461 127.996C47.733 128.005 47.6104 128.015 47.4973 128.024C47.469 128.024 47.4502 128.024 47.4219 128.033C47.3276 128.043 47.2239 128.043 47.1297 128.052C47.0825 128.052 47.0354 128.062 46.9977 128.062C46.9883 128.062 46.9788 128.062 46.9694 128.062C46.8657 128.062 46.762 128.071 46.6583 128.071H46.6489C46.5263 128.071 46.3944 128.081 46.2812 128.081C46.2435 128.081 46.2058 128.081 46.1681 128.081C46.055 128.081 45.9419 128.081 45.8287 128.081C45.8193 128.081 45.8099 128.081 45.8005 128.081C45.6685 128.081 45.5365 128.071 45.414 128.062C45.2726 128.052 45.1406 128.043 44.9992 128.033C44.8766 128.024 44.7541 128.015 44.6315 128.005C44.6127 128.005 44.5844 128.005 44.5655 127.996C44.4335 127.977 44.3016 127.967 44.1602 127.949C43.9811 127.93 43.8019 127.901 43.6228 127.873C43.538 127.864 43.4626 127.845 43.3777 127.835C43.34 127.835 43.3117 127.826 43.274 127.817C43.1609 127.798 43.0478 127.779 42.9347 127.751C42.9158 127.751 42.9064 127.751 42.8875 127.741C42.7933 127.722 42.7084 127.704 42.6236 127.685C42.567 127.675 42.501 127.656 42.4445 127.647C42.3879 127.638 42.3313 127.619 42.2748 127.6C42.1994 127.581 42.1239 127.562 42.0485 127.543C41.8223 127.487 41.5866 127.421 41.3698 127.345C39.1639 126.657 37.3067 125.102 36.364 122.999C36.3546 122.981 36.3452 122.962 36.3358 122.943C35.9021 121.962 35.7324 120.878 35.8644 119.813V119.794C35.8738 119.691 35.8927 119.596 35.9116 119.493C35.921 119.445 35.9304 119.398 35.9398 119.361C36.0341 118.814 36.2226 118.286 36.4772 117.805C36.7883 117.211 37.1653 116.646 37.5896 116.127C38.3909 115.137 39.4655 114.411 40.6722 114.034C41.0681 113.902 41.4829 113.808 41.9071 113.723C42.7838 113.563 43.6982 113.516 44.6221 113.591C44.7635 113.601 44.9049 113.62 45.0369 113.638C47.6293 113.968 49.8635 115.241 51.4472 117.07C51.4567 117.07 51.4661 117.07 51.4755 117.07C54.8504 114.515 57.2448 110.65 57.8199 106.116C58.0933 103.957 57.933 101.836 57.4051 99.8562C59.9315 102.241 61.6755 105.399 62.2977 108.897C62.3165 109.01 62.3354 109.114 62.3542 109.227C62.3637 109.283 62.3731 109.34 62.3825 109.396C62.392 109.491 62.4108 109.575 62.4202 109.66C62.4297 109.679 62.4297 109.698 62.4297 109.717C62.4485 109.839 62.458 109.971 62.4768 110.094C62.4957 110.226 62.5051 110.367 62.5145 110.499C62.5239 110.612 62.5334 110.716 62.5334 110.82C62.5334 110.886 62.5428 110.942 62.5428 110.999C62.5522 111.15 62.5522 111.31 62.5522 111.47C62.5522 111.536 62.5522 111.612 62.5522 111.678C62.5522 111.725 62.5522 111.772 62.5522 111.819C62.5522 111.885 62.5522 111.951 62.5522 112.017C62.5522 112.083 62.5522 112.149 62.5428 112.215C62.5428 112.328 62.5334 112.441 62.5334 112.554C62.5239 112.686 62.5239 112.818 62.5051 112.95C62.5051 112.969 62.5051 112.997 62.4957 113.016C62.4862 113.12 62.4768 113.233 62.4674 113.337C62.4674 113.365 62.4579 113.393 62.4579 113.412C62.4391 113.516 62.4202 113.648 62.4014 113.78Z" fill="#E97600"/>
<path d="M56.2267 98.8193C55.7836 98.9607 55.3594 99.121 54.9446 99.3189C54.643 99.4603 54.3413 99.6206 54.0585 99.7903C53.6154 100.054 53.1818 100.356 52.7859 100.686C51.0042 102.147 49.7221 104.212 49.2602 106.625C49.1942 106.964 49.0811 107.294 48.9208 107.605C48.9114 107.634 48.8925 107.662 48.8737 107.69C48.1006 109.085 47.026 110.273 45.7345 111.169C44.2921 112.168 42.5764 112.8 40.757 112.95C40.5402 112.969 40.1914 112.96 39.9746 112.932C39.5409 112.875 39.1073 112.866 38.6925 112.903C36.9391 113.045 35.3554 113.95 34.3278 115.317C33.7056 116.137 33.2909 117.127 33.1494 118.22C33.0457 119.04 33.1117 119.851 33.3191 120.596C32.5084 118.286 32.2067 115.75 32.5461 113.158C33.4228 106.314 38.4097 100.997 44.7164 99.3944C41.7092 99.6772 38.9093 100.79 36.562 102.524C34.95 103.712 33.6774 105.305 32.8384 107.124C32.169 108.595 31.6977 110.188 31.4903 111.876C31.0378 115.401 31.7543 118.805 33.3286 121.708C32.2539 120.322 31.4055 118.767 30.821 117.098C30.4533 116.052 30.1988 114.958 30.048 113.846C29.8689 112.488 29.8689 111.084 30.048 109.67C30.1705 108.718 30.3685 107.794 30.6419 106.908C30.9341 105.965 31.3018 105.051 31.7543 104.193C34.6201 98.6779 40.5119 95.1239 46.9694 95.4162C47.4125 95.435 47.8555 95.4727 48.2986 95.5293C48.9774 95.6141 49.6278 95.7367 50.2783 95.9064C52.4748 96.4626 54.4921 97.4713 56.2267 98.8193Z" fill="#E97600"/>
<path d="M346.215 194.431C361.522 194.431 373.931 182.022 373.931 166.715C373.931 151.409 361.522 139 346.215 139C330.909 139 318.5 151.409 318.5 166.715C318.5 182.022 330.909 194.431 346.215 194.431Z" fill="#E97600"/>
<path d="M346.215 190.481C359.34 190.481 369.981 179.841 369.981 166.715C369.981 153.59 359.34 142.95 346.215 142.95C333.09 142.95 322.45 153.59 322.45 166.715C322.45 179.841 333.09 190.481 346.215 190.481Z" fill="#FFDE02"/>
<path d="M362.401 168.78C362.383 168.902 362.364 169.025 362.345 169.157C362.345 169.185 362.335 169.214 362.335 169.232C362.317 169.336 362.298 169.449 362.279 169.562C362.279 169.591 362.269 169.609 362.269 169.638C362.222 169.902 362.166 170.166 362.109 170.43C362.081 170.562 362.043 170.694 362.015 170.835C361.987 170.939 361.958 171.042 361.93 171.146C361.911 171.221 361.892 171.297 361.864 171.372C361.836 171.476 361.807 171.57 361.779 171.665C361.741 171.787 361.704 171.9 361.666 172.013C361.628 172.136 361.581 172.258 361.534 172.381C361.534 172.39 361.525 172.4 361.525 172.409C361.478 172.532 361.43 172.654 361.383 172.767C361.336 172.881 361.289 172.994 361.242 173.107C361.232 173.116 361.232 173.135 361.223 173.145C361.166 173.267 361.119 173.39 361.063 173.503C361.016 173.606 360.968 173.701 360.921 173.804C360.912 173.833 360.893 173.87 360.874 173.908C360.818 174.012 360.77 174.116 360.714 174.229C360.667 174.314 360.62 174.398 360.582 174.493L360.516 174.615C360.469 174.7 360.422 174.785 360.375 174.87C360.365 174.889 360.356 174.907 360.337 174.926C360.28 175.03 360.214 175.134 360.148 175.237C360.139 175.247 360.139 175.256 360.129 175.266C360.073 175.36 360.016 175.445 359.96 175.53C359.931 175.577 359.903 175.614 359.875 175.652C359.828 175.728 359.771 175.812 359.715 175.888C359.649 175.982 359.583 176.076 359.517 176.171C359.46 176.255 359.394 176.35 359.328 176.425C359.309 176.453 359.29 176.472 359.272 176.501C359.206 176.585 359.149 176.661 359.083 176.736C358.979 176.878 358.866 177.01 358.753 177.151C358.668 177.255 358.574 177.368 358.48 177.472C358.367 177.594 358.263 177.717 358.14 177.839C358.065 177.924 357.98 178.009 357.895 178.094C357.876 178.113 357.867 178.122 357.848 178.141C357.763 178.226 357.678 178.311 357.594 178.395C357.584 178.405 357.565 178.424 357.556 178.433C357.471 178.509 357.396 178.584 357.311 178.669C357.283 178.697 357.254 178.725 357.226 178.744C357.141 178.82 357.056 178.895 356.971 178.98C356.962 178.989 356.953 178.999 356.943 179.008C356.839 179.093 356.745 179.187 356.641 179.263C356.632 179.272 356.632 179.272 356.623 179.282C356.528 179.357 356.444 179.432 356.349 179.498C356.321 179.527 356.283 179.545 356.255 179.574C356.198 179.621 356.142 179.659 356.085 179.706C356.019 179.753 355.953 179.8 355.887 179.857C355.793 179.923 355.699 179.998 355.604 180.064C355.501 180.139 355.388 180.215 355.284 180.29C355.275 180.3 355.265 180.3 355.256 180.309L355.18 180.366C355.171 180.366 355.171 180.375 355.171 180.375C355.058 180.45 354.954 180.516 354.841 180.582C354.784 180.62 354.728 180.648 354.681 180.686C354.624 180.724 354.577 180.752 354.52 180.78C354.454 180.818 354.398 180.856 354.332 180.894C354.228 180.96 354.124 181.016 354.021 181.073C354.011 181.082 354.002 181.082 353.992 181.092C353.879 181.148 353.776 181.214 353.663 181.271C353.644 181.28 353.615 181.299 353.597 181.308C353.493 181.365 353.389 181.412 353.276 181.469C353.219 181.497 353.163 181.525 353.116 181.544C352.927 181.629 352.739 181.714 352.55 181.799C352.484 181.827 352.418 181.855 352.352 181.874C352.305 181.893 352.258 181.912 352.22 181.931C352.154 181.959 352.098 181.978 352.032 182.006C352.013 182.015 352.003 182.015 351.985 182.025C351.815 182.091 351.645 182.157 351.466 182.213L351.391 182.242C351.259 182.279 351.136 182.326 351.004 182.364C350.891 182.392 350.787 182.43 350.674 182.458C350.627 182.468 350.58 182.487 350.533 182.496C350.439 182.524 350.335 182.553 350.241 182.572C350.118 182.6 350.005 182.628 349.882 182.656C349.873 182.656 349.854 182.666 349.845 182.666C349.722 182.694 349.59 182.722 349.468 182.751C349.383 182.77 349.307 182.788 349.222 182.798C349.034 182.835 348.845 182.864 348.666 182.892C348.534 182.911 348.402 182.93 348.27 182.949C348.138 182.967 348.016 182.986 347.884 182.996C347.865 182.996 347.856 182.996 347.846 182.996C347.733 183.005 347.61 183.015 347.497 183.024C347.469 183.024 347.45 183.024 347.422 183.033C347.328 183.043 347.224 183.043 347.13 183.052C347.083 183.052 347.035 183.062 346.998 183.062C346.988 183.062 346.979 183.062 346.969 183.062C346.866 183.062 346.762 183.071 346.658 183.071H346.649C346.526 183.071 346.394 183.081 346.281 183.081C346.243 183.081 346.206 183.081 346.168 183.081C346.055 183.081 345.942 183.081 345.829 183.081C345.819 183.081 345.81 183.081 345.8 183.081C345.668 183.081 345.536 183.071 345.414 183.062C345.273 183.052 345.141 183.043 344.999 183.033C344.877 183.024 344.754 183.015 344.631 183.005C344.613 183.005 344.584 183.005 344.565 182.996C344.434 182.977 344.302 182.967 344.16 182.949C343.981 182.93 343.802 182.901 343.623 182.873C343.538 182.864 343.463 182.845 343.378 182.835C343.34 182.835 343.312 182.826 343.274 182.817C343.161 182.798 343.048 182.779 342.935 182.751C342.916 182.751 342.906 182.751 342.887 182.741C342.793 182.722 342.708 182.704 342.624 182.685C342.567 182.675 342.501 182.656 342.444 182.647C342.388 182.638 342.331 182.619 342.275 182.6C342.199 182.581 342.124 182.562 342.048 182.543C341.822 182.487 341.587 182.421 341.37 182.345C339.164 181.657 337.307 180.102 336.364 177.999C336.355 177.981 336.345 177.962 336.336 177.943C335.902 176.962 335.732 175.878 335.864 174.813V174.794C335.874 174.691 335.893 174.596 335.912 174.493C335.921 174.445 335.93 174.398 335.94 174.361C336.034 173.814 336.223 173.286 336.477 172.805C336.788 172.211 337.165 171.646 337.59 171.127C338.391 170.137 339.465 169.411 340.672 169.034C341.068 168.902 341.483 168.808 341.907 168.723C342.784 168.563 343.698 168.516 344.622 168.591C344.763 168.601 344.905 168.62 345.037 168.638C347.629 168.968 349.863 170.241 351.447 172.07C351.457 172.07 351.466 172.07 351.475 172.07C354.85 169.515 357.245 165.65 357.82 161.116C358.093 158.957 357.933 156.836 357.405 154.856C359.931 157.241 361.675 160.399 362.298 163.897C362.317 164.01 362.335 164.114 362.354 164.227C362.364 164.283 362.373 164.34 362.382 164.396C362.392 164.491 362.411 164.575 362.42 164.66C362.43 164.679 362.43 164.698 362.43 164.717C362.448 164.839 362.458 164.971 362.477 165.094C362.496 165.226 362.505 165.367 362.514 165.499C362.524 165.612 362.533 165.716 362.533 165.82C362.533 165.886 362.543 165.942 362.543 165.999C362.552 166.15 362.552 166.31 362.552 166.47C362.552 166.536 362.552 166.612 362.552 166.678C362.552 166.725 362.552 166.772 362.552 166.819C362.552 166.885 362.552 166.951 362.552 167.017C362.552 167.083 362.552 167.149 362.543 167.215C362.543 167.328 362.533 167.441 362.533 167.554C362.524 167.686 362.524 167.818 362.505 167.95C362.505 167.969 362.505 167.997 362.496 168.016C362.486 168.12 362.477 168.233 362.467 168.337C362.467 168.365 362.458 168.393 362.458 168.412C362.439 168.516 362.42 168.648 362.401 168.78Z" fill="#E97600"/>
<path d="M356.227 153.819C355.784 153.961 355.359 154.121 354.945 154.319C354.643 154.46 354.341 154.621 354.059 154.79C353.615 155.054 353.182 155.356 352.786 155.686C351.004 157.147 349.722 159.212 349.26 161.625C349.194 161.964 349.081 162.294 348.921 162.605C348.911 162.634 348.893 162.662 348.874 162.69C348.101 164.085 347.026 165.273 345.734 166.169C344.292 167.168 342.576 167.8 340.757 167.95C340.54 167.969 340.191 167.96 339.975 167.932C339.541 167.875 339.107 167.866 338.693 167.903C336.939 168.045 335.355 168.95 334.328 170.317C333.706 171.137 333.291 172.127 333.149 173.22C333.046 174.04 333.112 174.851 333.319 175.596C332.508 173.286 332.207 170.75 332.546 168.158C333.423 161.314 338.41 155.997 344.716 154.394C341.709 154.677 338.909 155.79 336.562 157.524C334.95 158.712 333.677 160.305 332.838 162.124C332.169 163.595 331.698 165.188 331.49 166.876C331.038 170.401 331.754 173.805 333.329 176.708C332.254 175.322 331.405 173.767 330.821 172.098C330.453 171.052 330.199 169.958 330.048 168.846C329.869 167.488 329.869 166.084 330.048 164.67C330.171 163.718 330.368 162.794 330.642 161.908C330.934 160.965 331.302 160.051 331.754 159.193C334.62 153.678 340.512 150.124 346.969 150.416C347.412 150.435 347.856 150.473 348.299 150.529C348.977 150.614 349.628 150.737 350.278 150.906C352.475 151.463 354.492 152.471 356.227 153.819Z" fill="#E97600"/>
<path d="M69.9999 201C76.9035 201 82.4999 195.404 82.4999 188.5C82.4999 181.596 76.9035 176 69.9999 176C63.0964 176 57.4999 181.596 57.4999 188.5C57.4999 195.404 63.0964 201 69.9999 201Z" fill="#E97600"/>
<path d="M69.9999 199.218C75.9196 199.218 80.7184 194.419 80.7184 188.5C80.7184 182.58 75.9196 177.781 69.9999 177.781C64.0802 177.781 59.2813 182.58 59.2813 188.5C59.2813 194.419 64.0802 199.218 69.9999 199.218Z" fill="#FFDE02"/>
<path d="M77.3001 189.431C77.2916 189.486 77.2831 189.541 77.2746 189.601C77.2746 189.614 77.2704 189.626 77.2704 189.635C77.2618 189.682 77.2533 189.733 77.2448 189.784C77.2448 189.797 77.2406 189.805 77.2406 189.818C77.2193 189.937 77.1938 190.056 77.1683 190.175C77.1556 190.234 77.1385 190.294 77.1258 190.358C77.113 190.405 77.1003 190.451 77.0875 190.498C77.079 190.532 77.0705 190.566 77.0578 190.6C77.045 190.647 77.0323 190.689 77.0195 190.732C77.0025 190.787 76.9855 190.838 76.9685 190.889C76.9515 190.944 76.9302 191 76.909 191.055C76.909 191.059 76.9047 191.064 76.9047 191.068C76.8834 191.123 76.8622 191.178 76.8409 191.229C76.8197 191.28 76.7984 191.331 76.7772 191.382C76.7729 191.387 76.7729 191.395 76.7686 191.399C76.7431 191.455 76.7219 191.51 76.6964 191.561C76.6751 191.608 76.6539 191.65 76.6326 191.697C76.6283 191.71 76.6198 191.727 76.6113 191.744C76.5858 191.791 76.5646 191.837 76.5391 191.888C76.5178 191.927 76.4965 191.965 76.4795 192.007L76.4498 192.063C76.4285 192.101 76.4073 192.139 76.386 192.177C76.3817 192.186 76.3775 192.194 76.369 192.203C76.3435 192.25 76.3137 192.297 76.284 192.343C76.2797 192.348 76.2797 192.352 76.2755 192.356C76.2499 192.399 76.2244 192.437 76.1989 192.475C76.1862 192.496 76.1734 192.513 76.1607 192.53C76.1394 192.564 76.1139 192.603 76.0884 192.637C76.0586 192.679 76.0289 192.722 75.9991 192.764C75.9736 192.802 75.9438 192.845 75.9141 192.879C75.9056 192.892 75.8971 192.9 75.8885 192.913C75.8588 192.951 75.8333 192.985 75.8035 193.019C75.7567 193.083 75.7057 193.143 75.6547 193.206C75.6164 193.253 75.5739 193.304 75.5314 193.351C75.4804 193.406 75.4336 193.461 75.3783 193.517C75.3443 193.555 75.3061 193.593 75.2678 193.632C75.2593 193.64 75.255 193.644 75.2465 193.653C75.2083 193.691 75.17 193.729 75.1317 193.768C75.1275 193.772 75.119 193.78 75.1147 193.785C75.0765 193.819 75.0425 193.853 75.0042 193.891C74.9914 193.904 74.9787 193.916 74.9659 193.925C74.9277 193.959 74.8894 193.993 74.8511 194.031C74.8469 194.035 74.8426 194.04 74.8384 194.044C74.7916 194.082 74.7491 194.125 74.7023 194.159C74.6981 194.163 74.6981 194.163 74.6938 194.167C74.6513 194.201 74.613 194.235 74.5705 194.265C74.5578 194.278 74.5408 194.286 74.528 194.299C74.5025 194.32 74.477 194.337 74.4515 194.359C74.4217 194.38 74.3919 194.401 74.3622 194.427C74.3197 194.456 74.2772 194.49 74.2346 194.52C74.1879 194.554 74.1368 194.588 74.0901 194.622C74.0858 194.626 74.0816 194.626 74.0773 194.631L74.0433 194.656C74.0391 194.656 74.0391 194.66 74.0391 194.66C73.988 194.694 73.9413 194.724 73.8902 194.754C73.8647 194.771 73.8392 194.784 73.818 194.801C73.7925 194.818 73.7712 194.831 73.7457 194.843C73.7159 194.86 73.6904 194.877 73.6607 194.894C73.6139 194.924 73.5671 194.95 73.5203 194.975C73.5161 194.979 73.5118 194.979 73.5076 194.984C73.4566 195.009 73.4098 195.039 73.3588 195.064C73.3503 195.069 73.3375 195.077 73.329 195.081C73.2823 195.107 73.2355 195.128 73.1845 195.154C73.159 195.166 73.1334 195.179 73.1122 195.188C73.0272 195.226 72.9421 195.264 72.8571 195.302C72.8273 195.315 72.7976 195.328 72.7678 195.337C72.7465 195.345 72.7253 195.354 72.7083 195.362C72.6785 195.375 72.653 195.383 72.6232 195.396C72.6147 195.4 72.6105 195.4 72.602 195.405C72.5255 195.434 72.4489 195.464 72.3681 195.49L72.3341 195.502C72.2746 195.519 72.2193 195.541 72.1598 195.558C72.1088 195.57 72.062 195.587 72.011 195.6C71.9897 195.604 71.9685 195.613 71.9472 195.617C71.9047 195.63 71.8579 195.643 71.8154 195.651C71.7601 195.664 71.7091 195.677 71.6539 195.689C71.6496 195.689 71.6411 195.694 71.6368 195.694C71.5816 195.706 71.522 195.719 71.4668 195.732C71.4285 195.74 71.3945 195.749 71.3562 195.753C71.2712 195.77 71.1862 195.783 71.1054 195.796C71.0459 195.804 70.9863 195.813 70.9268 195.821C70.8673 195.83 70.812 195.838 70.7525 195.842C70.744 195.842 70.7397 195.842 70.7355 195.842C70.6845 195.847 70.6292 195.851 70.5782 195.855C70.5654 195.855 70.5569 195.855 70.5442 195.859C70.5016 195.864 70.4549 195.864 70.4124 195.868C70.3911 195.868 70.3698 195.872 70.3528 195.872C70.3486 195.872 70.3443 195.872 70.3401 195.872C70.2933 195.872 70.2465 195.876 70.1998 195.876H70.1955C70.1402 195.876 70.0807 195.881 70.0297 195.881C70.0127 195.881 69.9957 195.881 69.9787 195.881C69.9277 195.881 69.8766 195.881 69.8256 195.881C69.8214 195.881 69.8171 195.881 69.8129 195.881C69.7533 195.881 69.6938 195.876 69.6385 195.872C69.5748 195.868 69.5152 195.864 69.4515 195.859C69.3962 195.855 69.3409 195.851 69.2857 195.847C69.2772 195.847 69.2644 195.847 69.2559 195.842C69.1964 195.834 69.1368 195.83 69.0731 195.821C68.9923 195.813 68.9115 195.8 68.8307 195.787C68.7925 195.783 68.7584 195.774 68.7202 195.77C68.7032 195.77 68.6904 195.766 68.6734 195.762C68.6224 195.753 68.5714 195.745 68.5203 195.732C68.5118 195.732 68.5076 195.732 68.4991 195.728C68.4566 195.719 68.4183 195.711 68.38 195.702C68.3545 195.698 68.3248 195.689 68.2993 195.685C68.2737 195.681 68.2482 195.672 68.2227 195.664C68.1887 195.655 68.1547 195.647 68.1207 195.638C68.0186 195.613 67.9124 195.583 67.8146 195.549C66.8197 195.239 65.9821 194.537 65.5569 193.589C65.5527 193.581 65.5484 193.572 65.5442 193.564C65.3486 193.121 65.272 192.632 65.3316 192.152V192.143C65.3358 192.097 65.3443 192.054 65.3528 192.007C65.3571 191.986 65.3613 191.965 65.3656 191.948C65.4081 191.701 65.4931 191.463 65.6079 191.246C65.7482 190.979 65.9183 190.723 66.1096 190.49C66.471 190.043 66.9557 189.716 67.4999 189.546C67.6785 189.486 67.8656 189.444 68.0569 189.405C68.4523 189.333 68.8647 189.312 69.2814 189.346C69.3452 189.35 69.409 189.359 69.4685 189.367C70.6377 189.516 71.6453 190.09 72.3596 190.915C72.3639 190.915 72.3681 190.915 72.3724 190.915C73.8945 189.763 74.9744 188.019 75.2338 185.974C75.3571 185.001 75.2848 184.044 75.0467 183.151C76.1862 184.227 76.9727 185.651 77.2533 187.229C77.2618 187.28 77.2703 187.326 77.2789 187.377C77.2831 187.403 77.2874 187.428 77.2916 187.454C77.2959 187.496 77.3044 187.535 77.3086 187.573C77.3129 187.581 77.3129 187.59 77.3129 187.598C77.3214 187.654 77.3256 187.713 77.3341 187.768C77.3426 187.828 77.3469 187.892 77.3511 187.951C77.3554 188.002 77.3596 188.049 77.3596 188.096C77.3596 188.126 77.3639 188.151 77.3639 188.177C77.3681 188.245 77.3681 188.317 77.3681 188.389C77.3681 188.419 77.3681 188.453 77.3681 188.483C77.3681 188.504 77.3681 188.525 77.3681 188.547C77.3681 188.576 77.3681 188.606 77.3681 188.636C77.3681 188.666 77.3681 188.695 77.3639 188.725C77.3639 188.776 77.3596 188.827 77.3596 188.878C77.3554 188.938 77.3554 188.997 77.3469 189.057C77.3469 189.065 77.3469 189.078 77.3426 189.086C77.3384 189.133 77.3341 189.184 77.3299 189.231C77.3299 189.244 77.3256 189.257 77.3256 189.265C77.3171 189.312 77.3086 189.371 77.3001 189.431Z" fill="#E97600"/>
<path d="M74.5152 182.683C74.3154 182.747 74.1241 182.819 73.937 182.909C73.8009 182.972 73.6649 183.045 73.5373 183.121C73.3375 183.24 73.1419 183.376 72.9634 183.525C72.1598 184.184 71.5816 185.115 71.3732 186.204C71.3435 186.357 71.2924 186.506 71.2202 186.646C71.2159 186.659 71.2074 186.671 71.1989 186.684C70.8503 187.313 70.3656 187.849 69.7831 188.253C69.1326 188.704 68.3588 188.989 67.5382 189.057C67.4404 189.065 67.2831 189.061 67.1853 189.048C66.9897 189.023 66.7941 189.018 66.6071 189.035C65.8163 189.099 65.102 189.507 64.6385 190.124C64.3579 190.494 64.1708 190.94 64.1071 191.433C64.0603 191.803 64.0901 192.169 64.1836 192.505C63.818 191.463 63.6819 190.319 63.835 189.15C64.2304 186.063 66.4795 183.665 69.3239 182.943C67.9676 183.07 66.7049 183.572 65.6462 184.354C64.9191 184.89 64.3452 185.608 63.9668 186.429C63.6649 187.092 63.4523 187.811 63.3588 188.572C63.1547 190.162 63.4778 191.697 64.1879 193.006C63.7032 192.381 63.3205 191.68 63.0569 190.927C62.8911 190.455 62.7763 189.962 62.7083 189.461C62.6275 188.848 62.6275 188.215 62.7083 187.577C62.7635 187.148 62.8528 186.731 62.9761 186.331C63.1079 185.906 63.2737 185.494 63.4778 185.107C64.7703 182.62 67.4276 181.017 70.3401 181.148C70.5399 181.157 70.7397 181.174 70.9396 181.199C71.2457 181.238 71.539 181.293 71.8324 181.37C72.8231 181.62 73.7329 182.075 74.5152 182.683Z" fill="#E97600"/>
<path d="M101 95C107.903 95 113.5 89.4036 113.5 82.5C113.5 75.5964 107.903 70 101 70C94.0964 70 88.4999 75.5964 88.4999 82.5C88.4999 89.4036 94.0964 95 101 95Z" fill="#E97600"/>
<path d="M101 93.2183C106.92 93.2183 111.718 88.4195 111.718 82.4998C111.718 76.5801 106.92 71.7812 101 71.7812C95.0802 71.7812 90.2813 76.5801 90.2813 82.4998C90.2813 88.4195 95.0802 93.2183 101 93.2183Z" fill="#FFDE02"/>
<path d="M108.3 83.4309C108.292 83.4862 108.283 83.5414 108.275 83.601C108.275 83.6137 108.27 83.6265 108.27 83.635C108.262 83.6817 108.253 83.7328 108.245 83.7838C108.245 83.7965 108.241 83.805 108.241 83.8178C108.219 83.9368 108.194 84.0559 108.168 84.1749C108.156 84.2345 108.139 84.294 108.126 84.3578C108.113 84.4045 108.1 84.4513 108.088 84.4981C108.079 84.5321 108.071 84.5661 108.058 84.6001C108.045 84.6469 108.032 84.6894 108.019 84.7319C108.002 84.7872 107.985 84.8382 107.968 84.8892C107.951 84.9445 107.93 84.9998 107.909 85.055C107.909 85.0593 107.905 85.0635 107.905 85.0678C107.883 85.1231 107.862 85.1783 107.841 85.2294C107.82 85.2804 107.798 85.3314 107.777 85.3824C107.773 85.3867 107.773 85.3952 107.769 85.3994C107.743 85.4547 107.722 85.51 107.696 85.561C107.675 85.6078 107.654 85.6503 107.633 85.697C107.628 85.7098 107.62 85.7268 107.611 85.7438C107.586 85.7906 107.565 85.8373 107.539 85.8884C107.518 85.9266 107.497 85.9649 107.48 86.0074L107.45 86.0627C107.429 86.101 107.407 86.1392 107.386 86.1775C107.382 86.186 107.377 86.1945 107.369 86.203C107.343 86.2498 107.314 86.2965 107.284 86.3433C107.28 86.3476 107.28 86.3518 107.275 86.3561C107.25 86.3986 107.224 86.4368 107.199 86.4751C107.186 86.4964 107.173 86.5134 107.161 86.5304C107.139 86.5644 107.114 86.6027 107.088 86.6367C107.059 86.6792 107.029 86.7217 106.999 86.7642C106.974 86.8025 106.944 86.845 106.914 86.879C106.906 86.8918 106.897 86.9003 106.889 86.913C106.859 86.9513 106.833 86.9853 106.804 87.0193C106.757 87.0831 106.706 87.1426 106.655 87.2064C106.616 87.2532 106.574 87.3042 106.531 87.351C106.48 87.4062 106.434 87.4615 106.378 87.5168C106.344 87.555 106.306 87.5933 106.268 87.6316C106.259 87.6401 106.255 87.6443 106.247 87.6528C106.208 87.6911 106.17 87.7294 106.132 87.7676C106.127 87.7719 106.119 87.7804 106.115 87.7846C106.076 87.8186 106.042 87.8527 106.004 87.8909C105.991 87.9037 105.979 87.9164 105.966 87.9249C105.928 87.9589 105.889 87.993 105.851 88.0312C105.847 88.0355 105.843 88.0397 105.838 88.044C105.792 88.0822 105.749 88.1248 105.702 88.1588C105.698 88.163 105.698 88.163 105.694 88.1673C105.651 88.2013 105.613 88.2353 105.571 88.2651C105.558 88.2778 105.541 88.2863 105.528 88.2991C105.502 88.3203 105.477 88.3373 105.451 88.3586C105.422 88.3799 105.392 88.4011 105.362 88.4266C105.32 88.4564 105.277 88.4904 105.235 88.5202C105.188 88.5542 105.137 88.5882 105.09 88.6222C105.086 88.6265 105.082 88.6265 105.077 88.6307L105.043 88.6562C105.039 88.6562 105.039 88.6605 105.039 88.6605C104.988 88.6945 104.941 88.7243 104.89 88.754C104.865 88.771 104.839 88.7838 104.818 88.8008C104.792 88.8178 104.771 88.8305 104.746 88.8433C104.716 88.8603 104.69 88.8773 104.661 88.8943C104.614 88.9241 104.567 88.9496 104.52 88.9751C104.516 88.9794 104.512 88.9794 104.508 88.9836C104.457 89.0091 104.41 89.0389 104.359 89.0644C104.35 89.0686 104.338 89.0771 104.329 89.0814C104.282 89.1069 104.235 89.1282 104.184 89.1537C104.159 89.1664 104.133 89.1792 104.112 89.1877C104.027 89.226 103.942 89.2642 103.857 89.3025C103.827 89.3152 103.798 89.328 103.768 89.3365C103.747 89.345 103.725 89.3535 103.708 89.362C103.679 89.3748 103.653 89.3833 103.623 89.396C103.615 89.4003 103.61 89.4003 103.602 89.4045C103.525 89.4343 103.449 89.464 103.368 89.4896L103.334 89.5023C103.275 89.5193 103.219 89.5406 103.16 89.5576C103.109 89.5703 103.062 89.5873 103.011 89.6001C102.99 89.6044 102.968 89.6129 102.947 89.6171C102.905 89.6299 102.858 89.6426 102.815 89.6511C102.76 89.6639 102.709 89.6766 102.654 89.6894C102.65 89.6894 102.641 89.6936 102.637 89.6936C102.582 89.7064 102.522 89.7192 102.467 89.7319C102.429 89.7404 102.394 89.7489 102.356 89.7532C102.271 89.7702 102.186 89.7829 102.105 89.7957C102.046 89.8042 101.986 89.8127 101.927 89.8212C101.867 89.8297 101.812 89.8382 101.752 89.8425C101.744 89.8425 101.74 89.8425 101.735 89.8425C101.684 89.8467 101.629 89.851 101.578 89.8552C101.565 89.8552 101.557 89.8552 101.544 89.8595C101.502 89.8637 101.455 89.8637 101.412 89.868C101.391 89.868 101.37 89.8722 101.353 89.8722C101.349 89.8722 101.344 89.8722 101.34 89.8722C101.293 89.8722 101.247 89.8765 101.2 89.8765H101.196C101.14 89.8765 101.081 89.8807 101.03 89.8807C101.013 89.8807 100.996 89.8807 100.979 89.8807C100.928 89.8807 100.877 89.8807 100.826 89.8807C100.821 89.8807 100.817 89.8807 100.813 89.8807C100.753 89.8807 100.694 89.8765 100.639 89.8722C100.575 89.868 100.515 89.8637 100.451 89.8595C100.396 89.8552 100.341 89.851 100.286 89.8467C100.277 89.8467 100.264 89.8467 100.256 89.8425C100.196 89.8339 100.137 89.8297 100.073 89.8212C99.9923 89.8127 99.9115 89.7999 99.8307 89.7872C99.7925 89.7829 99.7584 89.7744 99.7202 89.7702C99.7032 89.7702 99.6904 89.7659 99.6734 89.7617C99.6224 89.7532 99.5714 89.7447 99.5203 89.7319C99.5118 89.7319 99.5076 89.7319 99.4991 89.7277C99.4566 89.7192 99.4183 89.7106 99.38 89.7021C99.3545 89.6979 99.3248 89.6894 99.2993 89.6851C99.2737 89.6809 99.2482 89.6724 99.2227 89.6639C99.1887 89.6554 99.1547 89.6469 99.1207 89.6384C99.0186 89.6129 98.9124 89.5831 98.8146 89.5491C97.8197 89.2387 96.9821 88.5372 96.5569 87.5891C96.5527 87.5805 96.5484 87.572 96.5442 87.5635C96.3486 87.1214 96.272 86.6324 96.3316 86.152V86.1435C96.3358 86.0967 96.3443 86.0542 96.3528 86.0074C96.3571 85.9862 96.3613 85.9649 96.3656 85.9479C96.4081 85.7013 96.4931 85.4632 96.6079 85.2464C96.7482 84.9785 96.9183 84.7234 97.1096 84.4896C97.471 84.0431 97.9557 83.7158 98.4999 83.5457C98.6785 83.4862 98.8656 83.4436 99.0569 83.4054C99.4523 83.3331 99.8647 83.3118 100.281 83.3459C100.345 83.3501 100.409 83.3586 100.468 83.3671C101.638 83.5159 102.645 84.0899 103.36 84.9147C103.364 84.9147 103.368 84.9147 103.372 84.9147C104.894 83.7625 105.974 82.0193 106.234 79.9743C106.357 79.0006 106.285 78.044 106.047 77.1511C107.186 78.2268 107.973 79.6511 108.253 81.2285C108.262 81.2795 108.27 81.3263 108.279 81.3773C108.283 81.4028 108.287 81.4283 108.292 81.4538C108.296 81.4964 108.304 81.5346 108.309 81.5729C108.313 81.5814 108.313 81.5899 108.313 81.5984C108.321 81.6537 108.326 81.7132 108.334 81.7685C108.343 81.828 108.347 81.8918 108.351 81.9513C108.355 82.0023 108.36 82.0491 108.36 82.0959C108.36 82.1256 108.364 82.1511 108.364 82.1766C108.368 82.2447 108.368 82.3169 108.368 82.3892C108.368 82.419 108.368 82.453 108.368 82.4828C108.368 82.504 108.368 82.5253 108.368 82.5465C108.368 82.5763 108.368 82.6061 108.368 82.6358C108.368 82.6656 108.368 82.6953 108.364 82.7251C108.364 82.7761 108.36 82.8271 108.36 82.8782C108.355 82.9377 108.355 82.9972 108.347 83.0567C108.347 83.0652 108.347 83.078 108.343 83.0865C108.338 83.1333 108.334 83.1843 108.33 83.2311C108.33 83.2438 108.326 83.2566 108.326 83.2651C108.317 83.3118 108.309 83.3714 108.3 83.4309Z" fill="#E97600"/>
<path d="M105.515 76.6833C105.315 76.7471 105.124 76.8193 104.937 76.9086C104.801 76.9724 104.665 77.0447 104.537 77.1212C104.338 77.2403 104.142 77.3763 103.963 77.5251C103.16 78.1841 102.582 79.1153 102.373 80.2037C102.343 80.3568 102.292 80.5056 102.22 80.6459C102.216 80.6586 102.207 80.6714 102.199 80.6841C101.85 81.3134 101.366 81.8491 100.783 82.253C100.133 82.7037 99.3588 82.9886 98.5382 83.0566C98.4404 83.0651 98.2831 83.0608 98.1853 83.0481C97.9897 83.0226 97.7941 83.0183 97.6071 83.0353C96.8163 83.0991 96.102 83.5073 95.6385 84.1238C95.3579 84.4937 95.1708 84.9401 95.1071 85.4333C95.0603 85.8032 95.0901 86.1688 95.1836 86.5047C94.818 85.4631 94.6819 84.3193 94.835 83.1501C95.2304 80.0634 97.4795 77.6654 100.324 76.9426C98.9676 77.0702 97.7049 77.5719 96.6462 78.3542C95.9191 78.8899 95.3452 79.6085 94.9668 80.429C94.6649 81.0923 94.4523 81.8108 94.3588 82.5719C94.1547 84.162 94.4778 85.6969 95.1879 87.0064C94.7032 86.3814 94.3205 85.6799 94.0569 84.9273C93.8911 84.4554 93.7763 83.9622 93.7083 83.4605C93.6275 82.8483 93.6275 82.2148 93.7083 81.577C93.7635 81.1476 93.8528 80.7309 93.9761 80.3313C94.1079 79.9061 94.2737 79.4937 94.4778 79.1068C95.7703 76.6195 98.4276 75.0166 101.34 75.1484C101.54 75.1569 101.74 75.1739 101.94 75.1994C102.246 75.2377 102.539 75.293 102.832 75.3695C103.823 75.6204 104.733 76.0753 105.515 76.6833Z" fill="#E97600"/>
<path d="M337 109C343.903 109 349.5 103.404 349.5 96.5C349.5 89.5964 343.903 84 337 84C330.096 84 324.5 89.5964 324.5 96.5C324.5 103.404 330.096 109 337 109Z" fill="#E97600"/>
<path d="M337 107.218C342.92 107.218 347.718 102.419 347.718 96.4998C347.718 90.5801 342.92 85.7812 337 85.7812C331.08 85.7812 326.281 90.5801 326.281 96.4998C326.281 102.419 331.08 107.218 337 107.218Z" fill="#FFDE02"/>
<path d="M344.3 97.4309C344.292 97.4862 344.283 97.5414 344.275 97.601C344.275 97.6137 344.27 97.6265 344.27 97.635C344.262 97.6817 344.253 97.7328 344.245 97.7838C344.245 97.7965 344.241 97.805 344.241 97.8178C344.219 97.9368 344.194 98.0559 344.168 98.1749C344.156 98.2345 344.139 98.294 344.126 98.3578C344.113 98.4045 344.1 98.4513 344.088 98.4981C344.079 98.5321 344.071 98.5661 344.058 98.6001C344.045 98.6469 344.032 98.6894 344.02 98.7319C344.003 98.7872 343.986 98.8382 343.969 98.8892C343.952 98.9445 343.93 98.9998 343.909 99.055C343.909 99.0593 343.905 99.0635 343.905 99.0678C343.883 99.1231 343.862 99.1783 343.841 99.2294C343.82 99.2804 343.798 99.3314 343.777 99.3824C343.773 99.3867 343.773 99.3952 343.769 99.3994C343.743 99.4547 343.722 99.51 343.696 99.561C343.675 99.6078 343.654 99.6503 343.633 99.697C343.628 99.7098 343.62 99.7268 343.611 99.7438C343.586 99.7906 343.565 99.8373 343.539 99.8884C343.518 99.9266 343.497 99.9649 343.48 100.007L343.45 100.063C343.429 100.101 343.407 100.139 343.386 100.177C343.382 100.186 343.378 100.194 343.369 100.203C343.344 100.25 343.314 100.297 343.284 100.343C343.28 100.348 343.28 100.352 343.275 100.356C343.25 100.399 343.224 100.437 343.199 100.475C343.186 100.496 343.173 100.513 343.161 100.53C343.139 100.564 343.114 100.603 343.088 100.637C343.059 100.679 343.029 100.722 342.999 100.764C342.974 100.802 342.944 100.845 342.914 100.879C342.906 100.892 342.897 100.9 342.889 100.913C342.859 100.951 342.833 100.985 342.804 101.019C342.757 101.083 342.706 101.143 342.655 101.206C342.616 101.253 342.574 101.304 342.531 101.351C342.48 101.406 342.434 101.461 342.378 101.517C342.344 101.555 342.306 101.593 342.268 101.632C342.259 101.64 342.255 101.644 342.247 101.653C342.208 101.691 342.17 101.729 342.132 101.768C342.128 101.772 342.119 101.78 342.115 101.785C342.077 101.819 342.042 101.853 342.004 101.891C341.991 101.904 341.979 101.916 341.966 101.925C341.928 101.959 341.889 101.993 341.851 102.031C341.847 102.035 341.843 102.04 341.838 102.044C341.792 102.082 341.749 102.125 341.702 102.159C341.698 102.163 341.698 102.163 341.694 102.167C341.651 102.201 341.613 102.235 341.571 102.265C341.558 102.278 341.541 102.286 341.528 102.299C341.503 102.32 341.477 102.337 341.452 102.359C341.422 102.38 341.392 102.401 341.362 102.427C341.32 102.456 341.277 102.49 341.235 102.52C341.188 102.554 341.137 102.588 341.09 102.622C341.086 102.626 341.082 102.626 341.077 102.631L341.043 102.656C341.039 102.656 341.039 102.66 341.039 102.66C340.988 102.694 340.941 102.724 340.89 102.754C340.865 102.771 340.839 102.784 340.818 102.801C340.792 102.818 340.771 102.831 340.746 102.843C340.716 102.86 340.69 102.877 340.661 102.894C340.614 102.924 340.567 102.95 340.52 102.975C340.516 102.979 340.512 102.979 340.508 102.984C340.457 103.009 340.41 103.039 340.359 103.064C340.35 103.069 340.338 103.077 340.329 103.081C340.282 103.107 340.236 103.128 340.184 103.154C340.159 103.166 340.133 103.179 340.112 103.188C340.027 103.226 339.942 103.264 339.857 103.302C339.827 103.315 339.798 103.328 339.768 103.337C339.747 103.345 339.725 103.354 339.708 103.362C339.679 103.375 339.653 103.383 339.623 103.396C339.615 103.4 339.611 103.4 339.602 103.405C339.525 103.434 339.449 103.464 339.368 103.49L339.334 103.502C339.275 103.519 339.219 103.541 339.16 103.558C339.109 103.57 339.062 103.587 339.011 103.6C338.99 103.604 338.969 103.613 338.947 103.617C338.905 103.63 338.858 103.643 338.815 103.651C338.76 103.664 338.709 103.677 338.654 103.689C338.65 103.689 338.641 103.694 338.637 103.694C338.582 103.706 338.522 103.719 338.467 103.732C338.429 103.74 338.395 103.749 338.356 103.753C338.271 103.77 338.186 103.783 338.105 103.796C338.046 103.804 337.986 103.813 337.927 103.821C337.867 103.83 337.812 103.838 337.753 103.842C337.744 103.842 337.74 103.842 337.736 103.842C337.684 103.847 337.629 103.851 337.578 103.855C337.565 103.855 337.557 103.855 337.544 103.859C337.502 103.864 337.455 103.864 337.412 103.868C337.391 103.868 337.37 103.872 337.353 103.872C337.349 103.872 337.344 103.872 337.34 103.872C337.293 103.872 337.247 103.876 337.2 103.876H337.196C337.14 103.876 337.081 103.881 337.03 103.881C337.013 103.881 336.996 103.881 336.979 103.881C336.928 103.881 336.877 103.881 336.826 103.881C336.821 103.881 336.817 103.881 336.813 103.881C336.753 103.881 336.694 103.876 336.639 103.872C336.575 103.868 336.515 103.864 336.452 103.859C336.396 103.855 336.341 103.851 336.286 103.847C336.277 103.847 336.264 103.847 336.256 103.842C336.196 103.834 336.137 103.83 336.073 103.821C335.992 103.813 335.912 103.8 335.831 103.787C335.792 103.783 335.758 103.774 335.72 103.77C335.703 103.77 335.69 103.766 335.673 103.762C335.622 103.753 335.571 103.745 335.52 103.732C335.512 103.732 335.508 103.732 335.499 103.728C335.457 103.719 335.418 103.711 335.38 103.702C335.355 103.698 335.325 103.689 335.299 103.685C335.274 103.681 335.248 103.672 335.223 103.664C335.189 103.655 335.155 103.647 335.121 103.638C335.019 103.613 334.912 103.583 334.815 103.549C333.82 103.239 332.982 102.537 332.557 101.589C332.553 101.581 332.548 101.572 332.544 101.564C332.349 101.121 332.272 100.632 332.332 100.152V100.143C332.336 100.097 332.344 100.054 332.353 100.007C332.357 99.9862 332.361 99.9649 332.366 99.9479C332.408 99.7013 332.493 99.4632 332.608 99.2464C332.748 98.9785 332.918 98.7234 333.11 98.4896C333.471 98.0431 333.956 97.7158 334.5 97.5457C334.679 97.4862 334.866 97.4436 335.057 97.4054C335.452 97.3331 335.865 97.3118 336.281 97.3459C336.345 97.3501 336.409 97.3586 336.469 97.3671C337.638 97.5159 338.645 98.0899 339.36 98.9147C339.364 98.9147 339.368 98.9147 339.372 98.9147C340.895 97.7625 341.974 96.0193 342.234 93.9743C342.357 93.0006 342.285 92.044 342.047 91.1511C343.186 92.2268 343.973 93.6511 344.253 95.2285C344.262 95.2795 344.27 95.3263 344.279 95.3773C344.283 95.4028 344.287 95.4283 344.292 95.4538C344.296 95.4964 344.304 95.5346 344.309 95.5729C344.313 95.5814 344.313 95.5899 344.313 95.5984C344.321 95.6537 344.326 95.7132 344.334 95.7685C344.343 95.828 344.347 95.8918 344.351 95.9513C344.355 96.0023 344.36 96.0491 344.36 96.0959C344.36 96.1256 344.364 96.1511 344.364 96.1766C344.368 96.2447 344.368 96.3169 344.368 96.3892C344.368 96.419 344.368 96.453 344.368 96.4828C344.368 96.504 344.368 96.5253 344.368 96.5465C344.368 96.5763 344.368 96.6061 344.368 96.6358C344.368 96.6656 344.368 96.6953 344.364 96.7251C344.364 96.7761 344.36 96.8271 344.36 96.8782C344.355 96.9377 344.355 96.9972 344.347 97.0567C344.347 97.0652 344.347 97.078 344.343 97.0865C344.338 97.1333 344.334 97.1843 344.33 97.2311C344.33 97.2438 344.326 97.2566 344.326 97.2651C344.317 97.3118 344.309 97.3714 344.3 97.4309Z" fill="#E97600"/>
<path d="M341.515 90.6833C341.315 90.7471 341.124 90.8193 340.937 90.9086C340.801 90.9724 340.665 91.0447 340.537 91.1212C340.338 91.2403 340.142 91.3763 339.963 91.5251C339.16 92.1841 338.582 93.1153 338.373 94.2037C338.343 94.3568 338.292 94.5056 338.22 94.6459C338.216 94.6586 338.207 94.6714 338.199 94.6841C337.85 95.3134 337.366 95.8491 336.783 96.253C336.133 96.7037 335.359 96.9886 334.538 97.0566C334.44 97.0651 334.283 97.0608 334.185 97.0481C333.99 97.0226 333.794 97.0183 333.607 97.0353C332.816 97.0991 332.102 97.5073 331.639 98.1238C331.358 98.4937 331.171 98.9401 331.107 99.4333C331.06 99.8032 331.09 100.169 331.184 100.505C330.818 99.4631 330.682 98.3193 330.835 97.1501C331.23 94.0634 333.48 91.6654 336.324 90.9426C334.968 91.0702 333.705 91.5719 332.646 92.3542C331.919 92.8899 331.345 93.6085 330.967 94.429C330.665 95.0923 330.452 95.8108 330.359 96.5719C330.155 98.162 330.478 99.6969 331.188 101.006C330.703 100.381 330.321 99.6799 330.057 98.9273C329.891 98.4554 329.776 97.9622 329.708 97.4605C329.628 96.8483 329.628 96.2148 329.708 95.577C329.764 95.1476 329.853 94.7309 329.976 94.3313C330.108 93.9061 330.274 93.4937 330.478 93.1068C331.77 90.6195 334.428 89.0166 337.34 89.1484C337.54 89.1569 337.74 89.1739 337.94 89.1994C338.246 89.2377 338.539 89.293 338.832 89.3695C339.823 89.6204 340.733 90.0753 341.515 90.6833Z" fill="#E97600"/>
<path d="M387 89C393.903 89 399.5 83.4036 399.5 76.5C399.5 69.5964 393.903 64 387 64C380.096 64 374.5 69.5964 374.5 76.5C374.5 83.4036 380.096 89 387 89Z" fill="#E97600"/>
<path d="M387 87.2183C392.92 87.2183 397.718 82.4195 397.718 76.4998C397.718 70.5801 392.92 65.7812 387 65.7812C381.08 65.7812 376.281 70.5801 376.281 76.4998C376.281 82.4195 381.08 87.2183 387 87.2183Z" fill="#FFDE02"/>
<path d="M394.3 77.4309C394.292 77.4862 394.283 77.5414 394.275 77.601C394.275 77.6137 394.27 77.6265 394.27 77.635C394.262 77.6817 394.253 77.7328 394.245 77.7838C394.245 77.7965 394.241 77.805 394.241 77.8178C394.219 77.9368 394.194 78.0559 394.168 78.1749C394.156 78.2345 394.139 78.294 394.126 78.3578C394.113 78.4045 394.1 78.4513 394.088 78.4981C394.079 78.5321 394.071 78.5661 394.058 78.6001C394.045 78.6469 394.032 78.6894 394.02 78.7319C394.003 78.7872 393.986 78.8382 393.969 78.8892C393.952 78.9445 393.93 78.9998 393.909 79.055C393.909 79.0593 393.905 79.0635 393.905 79.0678C393.883 79.1231 393.862 79.1783 393.841 79.2294C393.82 79.2804 393.798 79.3314 393.777 79.3824C393.773 79.3867 393.773 79.3952 393.769 79.3994C393.743 79.4547 393.722 79.51 393.696 79.561C393.675 79.6078 393.654 79.6503 393.633 79.697C393.628 79.7098 393.62 79.7268 393.611 79.7438C393.586 79.7906 393.565 79.8373 393.539 79.8884C393.518 79.9266 393.497 79.9649 393.48 80.0074L393.45 80.0627C393.429 80.101 393.407 80.1392 393.386 80.1775C393.382 80.186 393.378 80.1945 393.369 80.203C393.344 80.2498 393.314 80.2965 393.284 80.3433C393.28 80.3476 393.28 80.3518 393.275 80.3561C393.25 80.3986 393.224 80.4368 393.199 80.4751C393.186 80.4964 393.173 80.5134 393.161 80.5304C393.139 80.5644 393.114 80.6027 393.088 80.6367C393.059 80.6792 393.029 80.7217 392.999 80.7642C392.974 80.8025 392.944 80.845 392.914 80.879C392.906 80.8918 392.897 80.9003 392.889 80.913C392.859 80.9513 392.833 80.9853 392.804 81.0193C392.757 81.0831 392.706 81.1426 392.655 81.2064C392.616 81.2532 392.574 81.3042 392.531 81.351C392.48 81.4062 392.434 81.4615 392.378 81.5168C392.344 81.555 392.306 81.5933 392.268 81.6316C392.259 81.6401 392.255 81.6443 392.247 81.6528C392.208 81.6911 392.17 81.7294 392.132 81.7676C392.128 81.7719 392.119 81.7804 392.115 81.7846C392.077 81.8186 392.042 81.8527 392.004 81.8909C391.991 81.9037 391.979 81.9164 391.966 81.9249C391.928 81.9589 391.889 81.993 391.851 82.0312C391.847 82.0355 391.843 82.0397 391.838 82.044C391.792 82.0822 391.749 82.1248 391.702 82.1588C391.698 82.163 391.698 82.163 391.694 82.1673C391.651 82.2013 391.613 82.2353 391.571 82.2651C391.558 82.2778 391.541 82.2863 391.528 82.2991C391.503 82.3203 391.477 82.3373 391.452 82.3586C391.422 82.3799 391.392 82.4011 391.362 82.4266C391.32 82.4564 391.277 82.4904 391.235 82.5202C391.188 82.5542 391.137 82.5882 391.09 82.6222C391.086 82.6265 391.082 82.6265 391.077 82.6307L391.043 82.6562C391.039 82.6562 391.039 82.6605 391.039 82.6605C390.988 82.6945 390.941 82.7243 390.89 82.754C390.865 82.771 390.839 82.7838 390.818 82.8008C390.792 82.8178 390.771 82.8305 390.746 82.8433C390.716 82.8603 390.69 82.8773 390.661 82.8943C390.614 82.9241 390.567 82.9496 390.52 82.9751C390.516 82.9794 390.512 82.9794 390.508 82.9836C390.457 83.0091 390.41 83.0389 390.359 83.0644C390.35 83.0686 390.338 83.0771 390.329 83.0814C390.282 83.1069 390.236 83.1282 390.184 83.1537C390.159 83.1664 390.133 83.1792 390.112 83.1877C390.027 83.226 389.942 83.2642 389.857 83.3025C389.827 83.3152 389.798 83.328 389.768 83.3365C389.747 83.345 389.725 83.3535 389.708 83.362C389.679 83.3748 389.653 83.3833 389.623 83.396C389.615 83.4003 389.611 83.4003 389.602 83.4045C389.525 83.4343 389.449 83.464 389.368 83.4896L389.334 83.5023C389.275 83.5193 389.219 83.5406 389.16 83.5576C389.109 83.5703 389.062 83.5873 389.011 83.6001C388.99 83.6044 388.969 83.6129 388.947 83.6171C388.905 83.6299 388.858 83.6426 388.815 83.6511C388.76 83.6639 388.709 83.6766 388.654 83.6894C388.65 83.6894 388.641 83.6936 388.637 83.6936C388.582 83.7064 388.522 83.7192 388.467 83.7319C388.429 83.7404 388.395 83.7489 388.356 83.7532C388.271 83.7702 388.186 83.7829 388.105 83.7957C388.046 83.8042 387.986 83.8127 387.927 83.8212C387.867 83.8297 387.812 83.8382 387.753 83.8425C387.744 83.8425 387.74 83.8425 387.736 83.8425C387.684 83.8467 387.629 83.851 387.578 83.8552C387.565 83.8552 387.557 83.8552 387.544 83.8595C387.502 83.8637 387.455 83.8637 387.412 83.868C387.391 83.868 387.37 83.8722 387.353 83.8722C387.349 83.8722 387.344 83.8722 387.34 83.8722C387.293 83.8722 387.247 83.8765 387.2 83.8765H387.196C387.14 83.8765 387.081 83.8807 387.03 83.8807C387.013 83.8807 386.996 83.8807 386.979 83.8807C386.928 83.8807 386.877 83.8807 386.826 83.8807C386.821 83.8807 386.817 83.8807 386.813 83.8807C386.753 83.8807 386.694 83.8765 386.639 83.8722C386.575 83.868 386.515 83.8637 386.452 83.8595C386.396 83.8552 386.341 83.851 386.286 83.8467C386.277 83.8467 386.264 83.8467 386.256 83.8425C386.196 83.8339 386.137 83.8297 386.073 83.8212C385.992 83.8127 385.912 83.7999 385.831 83.7872C385.792 83.7829 385.758 83.7744 385.72 83.7702C385.703 83.7702 385.69 83.7659 385.673 83.7617C385.622 83.7532 385.571 83.7447 385.52 83.7319C385.512 83.7319 385.508 83.7319 385.499 83.7277C385.457 83.7192 385.418 83.7106 385.38 83.7021C385.355 83.6979 385.325 83.6894 385.299 83.6851C385.274 83.6809 385.248 83.6724 385.223 83.6639C385.189 83.6554 385.155 83.6469 385.121 83.6384C385.019 83.6129 384.912 83.5831 384.815 83.5491C383.82 83.2387 382.982 82.5372 382.557 81.5891C382.553 81.5805 382.548 81.572 382.544 81.5635C382.349 81.1214 382.272 80.6324 382.332 80.152V80.1435C382.336 80.0967 382.344 80.0542 382.353 80.0074C382.357 79.9862 382.361 79.9649 382.366 79.9479C382.408 79.7013 382.493 79.4632 382.608 79.2464C382.748 78.9785 382.918 78.7234 383.11 78.4896C383.471 78.0431 383.956 77.7158 384.5 77.5457C384.679 77.4862 384.866 77.4436 385.057 77.4054C385.452 77.3331 385.865 77.3118 386.281 77.3459C386.345 77.3501 386.409 77.3586 386.469 77.3671C387.638 77.5159 388.645 78.0899 389.36 78.9147C389.364 78.9147 389.368 78.9147 389.372 78.9147C390.895 77.7625 391.974 76.0193 392.234 73.9743C392.357 73.0006 392.285 72.044 392.047 71.1511C393.186 72.2268 393.973 73.6511 394.253 75.2285C394.262 75.2795 394.27 75.3263 394.279 75.3773C394.283 75.4028 394.287 75.4283 394.292 75.4538C394.296 75.4964 394.304 75.5346 394.309 75.5729C394.313 75.5814 394.313 75.5899 394.313 75.5984C394.321 75.6537 394.326 75.7132 394.334 75.7685C394.343 75.828 394.347 75.8918 394.351 75.9513C394.355 76.0023 394.36 76.0491 394.36 76.0959C394.36 76.1256 394.364 76.1511 394.364 76.1766C394.368 76.2447 394.368 76.3169 394.368 76.3892C394.368 76.419 394.368 76.453 394.368 76.4828C394.368 76.504 394.368 76.5253 394.368 76.5465C394.368 76.5763 394.368 76.6061 394.368 76.6358C394.368 76.6656 394.368 76.6953 394.364 76.7251C394.364 76.7761 394.36 76.8271 394.36 76.8782C394.355 76.9377 394.355 76.9972 394.347 77.0567C394.347 77.0652 394.347 77.078 394.343 77.0865C394.338 77.1333 394.334 77.1843 394.33 77.2311C394.33 77.2438 394.326 77.2566 394.326 77.2651C394.317 77.3118 394.309 77.3714 394.3 77.4309Z" fill="#E97600"/>
<path d="M391.515 70.6833C391.315 70.7471 391.124 70.8193 390.937 70.9086C390.801 70.9724 390.665 71.0447 390.537 71.1212C390.338 71.2403 390.142 71.3763 389.963 71.5251C389.16 72.1841 388.582 73.1153 388.373 74.2037C388.343 74.3568 388.292 74.5056 388.22 74.6459C388.216 74.6586 388.207 74.6714 388.199 74.6841C387.85 75.3134 387.366 75.8491 386.783 76.253C386.133 76.7037 385.359 76.9886 384.538 77.0566C384.44 77.0651 384.283 77.0608 384.185 77.0481C383.99 77.0226 383.794 77.0183 383.607 77.0353C382.816 77.0991 382.102 77.5073 381.639 78.1238C381.358 78.4937 381.171 78.9401 381.107 79.4333C381.06 79.8032 381.09 80.1688 381.184 80.5047C380.818 79.4631 380.682 78.3193 380.835 77.1501C381.23 74.0634 383.48 71.6654 386.324 70.9426C384.968 71.0702 383.705 71.5719 382.646 72.3542C381.919 72.8899 381.345 73.6085 380.967 74.429C380.665 75.0923 380.452 75.8108 380.359 76.5719C380.155 78.162 380.478 79.6969 381.188 81.0064C380.703 80.3814 380.321 79.6799 380.057 78.9273C379.891 78.4554 379.776 77.9622 379.708 77.4605C379.628 76.8483 379.628 76.2148 379.708 75.577C379.764 75.1476 379.853 74.7309 379.976 74.3313C380.108 73.9061 380.274 73.4937 380.478 73.1068C381.77 70.6195 384.428 69.0166 387.34 69.1484C387.54 69.1569 387.74 69.1739 387.94 69.1994C388.246 69.2377 388.539 69.293 388.832 69.3695C389.823 69.6204 390.733 70.0753 391.515 70.6833Z" fill="#E97600"/>
<defs>
<linearGradient id="paint0_linear_0_1" x1="216.5" y1="167" x2="216.5" y2="367" gradientUnits="userSpaceOnUse">
<stop stop-color="#8DB53F"/>
<stop offset="1" stop-color="#256845"/>
</linearGradient>
</defs>
</svg>
