<svg width="80" height="74" viewBox="0 0 80 74" fill="none" xmlns="http://www.w3.org/2000/svg">
<g clip-path="url(#clip0_2761_6825)">
<path d="M24.141 71.0397L20.9336 62.8223H34.941L31.7335 71.0397C31.0803 72.7111 29.6142 73.8276 27.9777 73.8385C27.9515 73.8385 27.9253 73.8385 27.8969 73.8385C26.2604 73.8276 24.7921 72.7089 24.141 71.0397Z" fill="#720D27"/>
<path d="M41.5524 71.0397L38.345 62.8223H52.3523L49.1449 71.0397C48.4916 72.7111 47.0256 73.8276 45.3891 73.8385C45.3629 73.8385 45.3366 73.8385 45.3082 73.8385C43.6717 73.8276 42.2035 72.7089 41.5524 71.0397Z" fill="#720D27"/>
<path d="M68.029 45.6512C68.0225 45.5354 68.0181 45.4153 68.0115 45.2951C68.0094 45.258 68.0072 45.2208 68.0028 45.1815V45.1706C67.9809 44.8472 67.9482 44.5064 67.9045 44.1524C67.8717 43.8858 67.8302 43.6127 67.7821 43.3309C67.7625 43.2216 67.7428 43.1124 67.721 43.0031C67.7057 42.9245 67.6904 42.8436 67.6751 42.765V42.7628C67.662 42.6929 67.6467 42.6208 67.6292 42.5509C67.6248 42.5225 67.6183 42.4962 67.6117 42.4678C67.6095 42.4547 67.6052 42.4416 67.603 42.4285C67.5899 42.363 67.5746 42.2974 67.5571 42.2319C67.5527 42.21 67.5462 42.1904 67.5418 42.1685L67.5025 42.0112C67.4872 41.9413 67.4697 41.8736 67.45 41.8058C67.4194 41.6835 67.3888 41.5633 67.3539 41.4431C67.3299 41.3557 67.3036 41.2705 67.2774 41.1831C67.1725 40.827 67.0546 40.4796 66.9278 40.1387C66.9169 40.1103 66.906 40.0798 66.8951 40.0513C66.8776 40.0033 66.8579 39.953 66.8404 39.905C66.8339 39.8831 66.8251 39.8634 66.8164 39.8416C66.7967 39.7913 66.7771 39.7411 66.7574 39.6908C66.7356 39.6384 66.7137 39.5881 66.6919 39.5357C66.6788 39.5073 66.6678 39.4767 66.6547 39.4483C66.6088 39.3347 66.5608 39.2233 66.5105 39.1097C66.504 39.09 66.4952 39.0703 66.4843 39.0507C66.4756 39.031 66.4668 39.0113 66.4559 38.9917C66.4362 38.9436 66.4144 38.8933 66.3903 38.8453C66.3685 38.7972 66.3467 38.7513 66.327 38.7033C66.3008 38.6486 66.2745 38.5962 66.2483 38.5438C66.2221 38.4913 66.1959 38.4367 66.1697 38.3843C66.1522 38.3515 66.1369 38.3187 66.1216 38.2881C66.1172 38.2794 66.1129 38.2728 66.1085 38.2641C66.0888 38.2226 66.0692 38.1811 66.0451 38.1396C65.9752 37.9975 65.9009 37.8577 65.8223 37.7179C65.7698 37.6196 65.7152 37.5212 65.6584 37.4251C65.6366 37.3814 65.6125 37.3399 65.5863 37.2984C65.5273 37.1957 65.4683 37.0952 65.4071 36.9969C65.3831 36.9532 65.3569 36.9116 65.3307 36.8701C65.2695 36.7696 65.2083 36.6713 65.1428 36.5708C64.9352 36.2409 64.7167 35.9197 64.4895 35.6051C64.472 35.581 64.4545 35.5548 64.4371 35.5308C64.3977 35.4762 64.3562 35.4215 64.3147 35.3669C64.1923 35.1987 64.0656 35.0326 63.9367 34.8688C63.893 34.812 63.8493 34.753 63.8034 34.6962C63.7641 34.6481 63.7226 34.5978 63.6833 34.5476C63.6352 34.4864 63.5849 34.4274 63.5347 34.3662C63.4888 34.3094 63.4407 34.2526 63.3927 34.1958C63.3883 34.1893 63.3861 34.1849 63.3817 34.1805C63.3402 34.1325 63.3009 34.0844 63.2616 34.0363C63.2528 34.0276 63.2463 34.0188 63.2397 34.0101L63.2332 34.0036C63.2157 33.9817 63.196 33.962 63.1764 33.9402C63.1545 33.9162 63.1327 33.8899 63.113 33.8659C63.0081 33.7435 62.9033 33.6234 62.7962 33.5032C62.7044 33.4027 62.6127 33.3022 62.5209 33.2017C62.3964 33.0662 62.2718 32.9329 62.1429 32.7997C62.0992 32.7494 62.0533 32.7014 62.0074 32.6533C61.9943 32.6424 61.9834 32.6314 61.9725 32.6183C61.9353 32.5812 61.8982 32.5419 61.8611 32.5047C61.3279 31.9563 60.773 31.4232 60.2027 30.901L60.2005 30.8988C60.2005 30.8988 60.2005 30.8988 60.2005 30.8966C54.7842 25.9304 47.9629 21.8577 44.5064 14.925C44.3841 14.6847 44.2683 14.44 44.1568 14.1909C44.1503 14.18 44.1437 14.1669 44.1394 14.1559C44.1 14.0664 44.0607 13.9768 44.0236 13.8872C43.9711 13.7692 43.9231 13.6512 43.875 13.5333C43.8269 13.4175 43.781 13.3017 43.7352 13.1837C43.7089 13.1181 43.6849 13.0504 43.6609 12.9848C43.6368 12.928 43.615 12.869 43.5953 12.8122C43.5057 12.5719 43.4227 12.3294 43.3441 12.0825C43.3266 12.0322 43.3113 11.9798 43.2938 11.9274C43.2654 11.8421 43.2392 11.7569 43.2151 11.6695C43.1977 11.6149 43.1824 11.5625 43.1671 11.5079C43.1387 11.4139 43.1103 11.3178 43.0841 11.2216C42.5444 9.27052 42.0222 6.28595 42.5356 2.2854C42.6165 1.64304 42.3936 1.03783 41.9807 0.616141C41.9435 0.576813 41.9064 0.53967 41.8649 0.504711C41.7862 0.434794 41.6988 0.369248 41.6092 0.31244C41.5175 0.255633 41.4213 0.20538 41.3208 0.163867C41.2203 0.122354 41.1133 0.0873959 41.0062 0.063362C40.9516 0.0480677 40.897 0.0393281 40.8402 0.0305886C40.7484 0.0174792 40.6566 0.0109245 40.5627 0.0109245C40.3988 0.00873959 40.2349 0.00873959 40.0733 0.00655469H40.0711C40.0143 0.00655469 39.9553 0.00655469 39.8985 0.00436979C39.8023 0.00436979 39.7084 0.00436979 39.6144 0.0021849H39.4659C39.3807 0.0021849 39.2976 0 39.2124 0C39.2015 0 39.1906 0.0021849 39.1818 0.0021849C39.1709 0.0021849 39.16 0.0021849 39.1491 0.00436979C39.1425 0.00436979 39.1381 0.00436979 39.1316 0.00655469C38.8257 0.0240339 38.5417 0.113615 38.2882 0.255633C37.7595 0.554964 37.3771 1.08808 37.2875 1.72825V1.74573C36.4638 7.67117 34.2745 11.7198 32.9134 13.8457C29.4874 19.2031 24.6697 22.5241 22.9939 23.6712C21.3094 24.8248 20.0028 25.5109 16.6271 27.8531C13.376 30.1057 11.7483 31.2331 10.6602 32.2382C10.2407 32.6271 9.83647 33.0531 9.45412 33.5141C8.99529 34.0582 8.56705 34.6481 8.1694 35.2795C7.82418 35.8279 7.50301 36.4048 7.21023 37.0056C7.17527 37.0711 7.14468 37.1432 7.10972 37.211C7.10972 37.2132 7.10754 37.2132 7.10754 37.2154C7.07258 37.2918 7.03762 37.3661 7.00266 37.4404C6.99611 37.4557 6.98737 37.4732 6.98081 37.4885C6.96771 37.5212 6.95241 37.5518 6.9393 37.5824C6.92619 37.613 6.9109 37.6436 6.89779 37.6764C6.82787 37.8315 6.76014 37.991 6.69678 38.1505C6.65308 38.2554 6.60938 38.3624 6.57005 38.4695C6.54165 38.5372 6.51543 38.6049 6.4914 38.6727C6.46518 38.7404 6.43896 38.8081 6.41493 38.8781C6.39745 38.9218 6.38215 38.9655 6.36686 39.0113V39.0135C6.3603 39.0288 6.35593 39.0419 6.35156 39.0572C6.32753 39.1249 6.3035 39.1949 6.27946 39.2648C6.22921 39.4134 6.18114 39.5641 6.13307 39.7149C6.10249 39.811 6.0719 39.9071 6.04349 40.0055C6.0282 40.0557 6.01291 40.106 5.9998 40.1562C5.96702 40.2655 5.93643 40.3725 5.90803 40.4818C5.90366 40.4927 5.90148 40.5058 5.89711 40.5167C5.88618 40.5539 5.87744 40.5932 5.8687 40.6303C5.83593 40.7527 5.80534 40.875 5.77694 40.9996C5.75509 41.087 5.73542 41.1744 5.71576 41.2618C5.6808 41.4104 5.64803 41.5589 5.61962 41.7097C5.58685 41.8692 5.55626 42.0287 5.52786 42.1882C5.52567 42.1969 5.52567 42.2057 5.52349 42.2144C5.49945 42.3477 5.47761 42.4809 5.46013 42.6142C5.44702 42.6885 5.43609 42.7628 5.42735 42.8393C5.4055 42.9747 5.38802 43.1102 5.37273 43.2478C5.37273 43.2478 5.37273 43.25 5.37273 43.2522C5.36181 43.3462 5.35088 43.4379 5.33996 43.5319C5.33122 43.6127 5.32466 43.6958 5.31592 43.7766V43.8006C5.30063 43.9754 5.28752 44.1502 5.2766 44.325C5.26786 44.4845 5.25912 44.644 5.25475 44.8035C5.24382 45.0701 5.24164 45.341 5.24601 45.6097C5.24382 45.6141 5.24382 45.6206 5.24601 45.625V45.7277C5.24601 45.7911 5.25038 45.8544 5.25256 45.9222C5.25038 45.9287 5.25038 45.9353 5.25256 45.944V45.9746C5.25912 46.1494 5.26567 46.3264 5.27878 46.5033C5.28533 46.5951 5.29189 46.6869 5.29844 46.7786C5.29844 46.783 5.29844 46.7896 5.30063 46.7939C5.31374 46.9644 5.32903 47.1326 5.34651 47.303C5.35962 47.4166 5.37273 47.5302 5.38802 47.6417C5.40113 47.7466 5.41643 47.8492 5.43172 47.9541V47.9629C5.43828 48.0022 5.44265 48.0393 5.4492 48.0787C5.45576 48.118 5.46231 48.1551 5.46887 48.1923C5.48198 48.2687 5.49508 48.3408 5.50819 48.4173C5.53878 48.5856 5.57156 48.7516 5.60651 48.9155C5.6371 49.0597 5.66988 49.2039 5.70483 49.3459C5.71576 49.3983 5.72887 49.4508 5.74416 49.5032C5.76601 49.595 5.79005 49.6846 5.81408 49.7741V49.7763C5.87526 49.9948 5.93862 50.2111 6.00635 50.423C6.06097 50.5957 6.11997 50.7661 6.18114 50.9343C6.20736 51.0108 6.23576 51.0829 6.26417 51.1572C6.27946 51.1987 6.29476 51.238 6.31005 51.2773C6.34719 51.3757 6.38652 51.474 6.42804 51.5701C6.52199 51.7995 6.62031 52.0246 6.72737 52.2453C6.8672 52.5402 7.01577 52.8264 7.1709 53.1061C7.21023 53.1782 7.25174 53.2525 7.29544 53.3268C7.42435 53.5496 7.55763 53.7681 7.69528 53.9801C7.7346 54.0412 7.77393 54.1002 7.81326 54.1592C7.87007 54.2466 7.92687 54.3318 7.98587 54.4149C8.07982 54.5481 8.17377 54.6792 8.2699 54.8103C8.72655 55.4308 9.22252 56.0076 9.74252 56.5495C9.82118 56.6303 9.90202 56.7112 9.98286 56.792C10.0856 56.8947 10.1882 56.9952 10.2931 57.0957C10.3718 57.1722 10.4526 57.2465 10.5313 57.3208C10.5575 57.3448 10.5815 57.3667 10.6077 57.3907C10.7104 57.4846 10.8131 57.5764 10.9158 57.666C11.0469 57.784 11.178 57.8954 11.3113 58.0068C11.3987 58.0811 11.4883 58.1532 11.5778 58.2253C12.1262 58.671 12.6856 59.084 13.2493 59.4642C13.352 59.5341 13.4568 59.604 13.5595 59.6717C13.7365 59.7875 13.9113 59.8989 14.0883 60.0104C14.25 60.1131 14.4138 60.2114 14.5755 60.3075C15.8165 61.0526 17.0313 61.6578 18.1107 62.1581C18.2068 62.204 18.3029 62.2477 18.3991 62.2914C18.5258 62.3482 18.6482 62.405 18.7705 62.4596C19.0174 62.5711 19.2534 62.6738 19.4784 62.7743C19.6161 62.8333 19.7494 62.8923 19.8783 62.9469C19.9089 62.96 19.9373 62.9731 19.9678 62.9862C19.9788 62.9906 19.9919 62.9971 20.0028 63.0015C20.1536 63.0671 20.3021 63.1304 20.4507 63.1916C20.6998 63.2965 20.9467 63.3948 21.1936 63.4887C21.2635 63.5149 21.3312 63.5412 21.4011 63.5674C22.1899 63.8602 22.9655 64.1092 23.739 64.319C24.0492 64.4042 24.3573 64.4807 24.6654 64.5528C24.8205 64.5899 24.9756 64.6249 25.1308 64.6577C25.441 64.7254 25.7513 64.7866 26.0659 64.8434C27.473 65.099 28.9172 65.2607 30.4706 65.3743C30.6039 65.383 30.7394 65.394 30.877 65.4027C31.0125 65.4114 31.148 65.4202 31.2856 65.4289C31.3599 65.4333 31.4342 65.4377 31.5107 65.442C31.6986 65.453 31.8908 65.4639 32.0831 65.4748C32.1115 65.477 32.1377 65.4792 32.1661 65.4792C32.3649 65.4901 32.566 65.501 32.7692 65.5098C32.7866 65.5119 32.8019 65.5119 32.8172 65.5119C32.9898 65.5207 33.1646 65.5294 33.3394 65.536C33.5164 65.5425 33.6934 65.5491 33.8725 65.5578C33.9971 65.5622 34.1216 65.5666 34.2483 65.5731C34.493 65.5819 34.7399 65.5906 34.9912 65.6015C35.2403 65.6103 35.4959 65.619 35.7537 65.6299C35.8826 65.6343 36.0115 65.6387 36.1426 65.643C36.4398 65.654 36.7304 65.6649 37.0188 65.6758C37.0363 65.678 37.0537 65.678 37.0712 65.678C37.9146 65.7064 38.7186 65.7348 39.4899 65.7588H39.4921C39.5576 65.761 39.621 65.7632 39.6844 65.7654C39.9138 65.7719 40.141 65.7785 40.3639 65.7829C40.4687 65.7851 40.5736 65.7872 40.6785 65.7894C40.7397 65.7916 40.7986 65.7916 40.8598 65.7938C41.1133 65.7982 41.3645 65.8025 41.6092 65.8069C41.7819 65.8091 41.9545 65.8113 42.1227 65.8135C42.9136 65.82 43.6696 65.8157 44.395 65.796H44.4387C44.6135 65.7916 44.7861 65.7851 44.9565 65.7785C45.1247 65.7719 45.2908 65.7654 45.4547 65.7567C45.6338 65.7479 45.813 65.737 45.99 65.7261C46.1626 65.7151 46.333 65.7042 46.5012 65.6889C47.148 65.6387 47.775 65.5709 48.3912 65.4814C48.6337 65.4464 48.874 65.4071 49.1144 65.3677C49.1166 65.3656 49.1187 65.3656 49.1209 65.3656C49.2411 65.3437 49.3613 65.3219 49.4814 65.2978C50.032 65.1929 50.5739 65.0684 51.1157 64.922C51.2621 64.8827 51.4107 64.8412 51.5571 64.7975C51.5658 64.7953 51.5767 64.7931 51.5855 64.7887C51.651 64.7713 51.7144 64.7516 51.7799 64.7319C51.9023 64.6948 52.0247 64.6555 52.147 64.6161C52.2038 64.5987 52.2606 64.579 52.3174 64.5593C52.3546 64.5484 52.3917 64.5353 52.4289 64.5222C52.4529 64.5156 52.4769 64.5069 52.501 64.4982C52.5687 64.4741 52.6342 64.4523 52.702 64.4282C52.7653 64.4064 52.8287 64.3824 52.8899 64.3605L52.8921 64.3583C52.9379 64.343 52.9838 64.3277 53.0275 64.3103C53.3815 64.1792 53.7376 64.0371 54.0938 63.882C54.3319 63.7793 54.5722 63.6723 54.8148 63.5587C54.9022 63.5193 54.9983 63.4734 55.1054 63.421C55.1578 63.397 55.2146 63.3686 55.2714 63.3402C55.3304 63.3118 55.3916 63.2834 55.4528 63.2506C55.787 63.0823 56.1869 62.8748 56.6326 62.6279C56.744 62.5645 56.8576 62.5012 56.9734 62.4334C56.9997 62.4203 57.0259 62.405 57.0521 62.3897C57.3165 62.2368 57.594 62.0707 57.8824 61.8916L57.8845 61.8894C57.9916 61.8238 58.1008 61.7561 58.2123 61.684C58.3215 61.6119 58.433 61.5398 58.5466 61.4655C58.658 61.3934 58.7716 61.3191 58.8874 61.2383C58.9901 61.1706 59.0928 61.1006 59.1955 61.0285C59.3244 60.939 59.4555 60.8472 59.5888 60.7489C59.7068 60.6637 59.8269 60.5785 59.9449 60.4889C60.0651 60.3993 60.1852 60.3097 60.3054 60.2158C60.4256 60.124 60.5479 60.03 60.6681 59.9339C60.7883 59.8378 60.9084 59.7394 61.0308 59.6389C61.1531 59.5384 61.2733 59.4379 61.3957 59.3331C61.5137 59.2304 61.6338 59.1277 61.7518 59.0228C61.7562 59.0184 61.7627 59.0141 61.7693 59.0075C61.8611 58.9245 61.9506 58.8436 62.0424 58.7584C62.1058 58.7016 62.1691 58.6426 62.2325 58.5836C62.3832 58.4438 62.534 58.2996 62.6826 58.151C62.7591 58.0767 62.8355 58.0003 62.9098 57.9238C63.1217 57.7097 63.3315 57.489 63.5369 57.2618C63.8624 56.9013 64.1814 56.5255 64.4895 56.1344C64.6424 55.9399 64.7932 55.7389 64.9418 55.5357C65.0161 55.4352 65.0882 55.3325 65.1603 55.2276C65.3744 54.9174 65.5841 54.5984 65.7829 54.2685C65.8485 54.1592 65.914 54.0478 65.9774 53.9364C66.0561 53.7987 66.1347 53.6611 66.209 53.5191C66.2745 53.3945 66.3401 53.27 66.4013 53.1454C66.4013 53.1454 66.4013 53.1454 66.4013 53.1432C66.4231 53.1039 66.4428 53.0646 66.4625 53.0253C66.4843 52.9859 66.5018 52.9466 66.5214 52.9073C67.0917 51.7318 67.5331 50.458 67.7931 49.0815C67.8804 48.6227 68.0181 47.775 68.0399 46.617C68.0399 46.5208 68.0421 46.4203 68.0421 46.3198C68.0421 46.1057 68.0378 45.8828 68.029 45.6512ZM19.0961 49.9948C19.1092 50.0188 19.1201 50.0451 19.131 50.0691H19.1288C19.1179 50.0451 19.107 50.021 19.0961 49.9948ZM19.2119 43.2675C19.2141 43.3331 19.2184 43.3964 19.2228 43.462C19.2162 43.3811 19.2119 43.3025 19.2075 43.2216C19.2075 43.2369 19.2097 43.2522 19.2119 43.2675ZM22.9677 52.289C23.0005 52.3392 23.0354 52.3895 23.0726 52.4397C23.0376 52.3916 23.0027 52.3436 22.9699 52.2955C22.9677 52.2933 22.9677 52.2911 22.9677 52.289ZM23.1469 52.5468C23.1731 52.5839 23.1993 52.6211 23.2255 52.656H23.2233C23.1993 52.6211 23.1731 52.5839 23.1469 52.5468ZM32.7495 64.0852C32.7298 64.0765 32.7102 64.0656 32.6905 64.0546C32.6665 64.0415 32.6402 64.0306 32.6162 64.0175C32.6118 64.0153 32.6075 64.0131 32.6031 64.0087C32.6075 64.0131 32.6118 64.0153 32.6162 64.0153C32.6402 64.0284 32.6665 64.0415 32.6905 64.0546C32.7102 64.0656 32.7298 64.0743 32.7495 64.083C32.7932 64.1071 32.8369 64.1289 32.8806 64.1508C32.8369 64.1289 32.7932 64.1071 32.7495 64.0852ZM37.5016 6.71419C37.5082 6.68141 37.5169 6.64864 37.5235 6.61587C37.5191 6.64427 37.5126 6.67268 37.506 6.70108C37.5016 6.72293 37.4973 6.74259 37.4907 6.76226C37.4951 6.74696 37.4995 6.73167 37.5016 6.71419ZM35.4609 13.0482C35.5025 12.9543 35.544 12.8603 35.5855 12.7642H35.5877C35.5636 12.821 35.5374 12.8778 35.5134 12.9346C35.4893 12.9892 35.4631 13.046 35.4391 13.1006C35.4216 13.14 35.4041 13.1771 35.3867 13.2143C35.4107 13.1596 35.4369 13.105 35.4609 13.0482ZM32.9396 64.1792C33.0444 64.2316 33.1471 64.2819 33.2455 64.3299C33.3787 64.2491 33.5142 64.1661 33.6497 64.0808C33.5142 64.1661 33.3787 64.2491 33.2455 64.3321C33.145 64.284 33.0444 64.2338 32.9396 64.1792ZM35.2927 13.4196C35.2905 13.4218 35.2883 13.4262 35.2883 13.4284H35.2905C35.2905 13.424 35.2927 13.4218 35.2949 13.4175L35.2927 13.4196ZM35.2993 13.4043C35.2993 13.4065 35.2993 13.4065 35.2993 13.4043C35.3014 13.4043 35.3015 13.4022 35.3036 13.3978C35.3015 13.4 35.3014 13.4022 35.2993 13.4043Z" fill="url(#paint0_linear_2761_6825)"/>
<path d="M18.0408 39.6205C18.1456 39.2906 18.268 38.9541 18.4056 38.6133C18.268 38.9563 18.1478 39.2906 18.0408 39.6205Z" fill="#B52E47"/>
<path d="M18.978 37.3476C19.0851 37.1313 19.1965 36.9106 19.3167 36.6855C19.1965 36.9084 19.0851 37.1313 18.978 37.3476Z" fill="#B52E47"/>
<path d="M19.5112 45.3262C19.5243 45.3808 19.5374 45.4354 19.5506 45.49C19.5374 45.4442 19.5265 45.3939 19.5156 45.348L19.5112 45.3262Z" fill="#B52E47"/>
<path d="M19.5615 36.231C19.8565 35.6957 20.1864 35.1363 20.5469 34.5508C20.1864 35.1341 19.8587 35.6935 19.5615 36.231Z" fill="#B52E47"/>
<path d="M20.5469 34.5484C20.702 34.2971 20.8637 34.0393 21.0297 33.7793C20.8637 34.0415 20.7042 34.2971 20.5469 34.5484Z" fill="#B52E47"/>
<path d="M22.677 55.748C22.7622 55.8551 22.8496 55.9622 22.9348 56.0649C22.8802 55.9993 22.8278 55.9338 22.7731 55.8682C22.7404 55.8289 22.7098 55.7874 22.677 55.748Z" fill="#B52E47"/>
<path d="M33.3438 63.3203C33.5076 63.4405 33.6671 63.5563 33.8222 63.6677C33.6671 63.5585 33.5098 63.4405 33.3438 63.3203Z" fill="#B52E47"/>
<path d="M35.2883 13.4288C35.4872 12.9983 35.686 12.5417 35.8826 12.0566C35.6882 12.5417 35.4893 12.9983 35.2883 13.4288Z" fill="#B52E47"/>
<path d="M36.1733 11.3115C36.9359 9.26428 37.6132 6.78005 37.9955 3.80859C37.6132 6.78005 36.9359 9.26428 36.1733 11.3115Z" fill="#B52E47"/>
<path d="M37.9954 3.80891C38.0303 3.52924 38.0653 3.24739 38.0959 2.95898C38.0631 3.24739 38.0303 3.52924 37.9954 3.80891Z" fill="#B52E47"/>
<path d="M39.4528 1.36338C39.4528 1.36556 39.4528 1.36556 39.4528 1.36338C39.4463 1.74355 39.431 2.11498 39.4091 2.47767C39.4091 2.47986 39.4069 2.48204 39.4091 2.48204C39.2431 5.5846 38.7078 8.19555 38.0479 10.3477C38.0479 10.3499 38.0479 10.3499 38.0479 10.352C37.7858 11.2085 37.5039 11.9929 37.2177 12.7052C37.0713 13.0701 36.9249 13.4131 36.7785 13.7408C36.4879 14.3832 36.2039 14.9578 35.9067 15.4909C37.4668 10.6142 38.5505 5.43384 39.1469 0C39.1426 0 39.136 0 39.1316 0.0021849L39.1469 0H39.2103C39.2955 0 39.3807 0.0021849 39.4638 0.0021849C39.4703 0.465383 39.4659 0.919842 39.4528 1.36338Z" fill="#8E2B64"/>
<path opacity="0.22" d="M66.8011 47.8438C66.3379 47.5423 63.3206 54.2215 55.0748 59.9482C50.9781 62.7929 47.4429 64.1148 47.6133 64.5321C47.7991 64.9865 52.3262 64.189 56.3333 61.8512C64.2863 57.2127 67.3233 48.1847 66.8011 47.8438Z" fill="white"/>
<path opacity="0.22" d="M49.2585 62.1641C49.169 62.0374 51.3364 60.6238 54.4171 57.8468C59.0578 53.6649 61.3323 50.3963 61.494 50.5252C61.6578 50.6541 59.5713 54.2876 55.9072 57.6436C52.7019 60.5779 49.3656 62.3149 49.2585 62.1641Z" fill="white"/>
<path opacity="0.22" d="M42.4962 13.9919C42.1379 14.1383 42.6732 16.6051 43.5253 18.696C45.4174 23.3345 49.0618 26.5595 49.4639 26.2579C49.6212 26.14 48.6467 24.368 46.689 20.8307C44.1196 16.179 42.8283 13.8565 42.4962 13.9919Z" fill="white"/>
<path opacity="0.22" d="M41.8475 15.5123C41.5787 15.5516 41.3865 17.5158 41.9349 19.4582C42.8787 22.8011 45.6907 24.9467 45.9442 24.7479C46.1386 24.5971 44.749 23.1398 43.3966 19.8406C42.3216 17.2231 42.1031 15.4752 41.8475 15.5123Z" fill="white"/>
<path opacity="0.22" d="M46.3724 18.7896C46.2501 18.8573 46.698 20.2841 47.7664 21.4814C48.6469 22.469 49.7262 23.0502 49.8114 22.9496C49.8879 22.8601 49.1385 22.2483 47.9433 20.7953C46.8334 19.4494 46.462 18.7394 46.3724 18.7896Z" fill="white"/>
<path d="M18.0408 39.6205C18.1456 39.2906 18.268 38.9541 18.4056 38.6133C18.268 38.9563 18.1478 39.2906 18.0408 39.6205Z" fill="#B52E47"/>
<path d="M18.978 37.3476C19.0851 37.1313 19.1965 36.9106 19.3167 36.6855C19.1965 36.9084 19.0851 37.1313 18.978 37.3476Z" fill="#B52E47"/>
<g opacity="0.2">
<path d="M68.0421 46.3192C68.0421 46.4197 68.0399 46.5202 68.0399 46.6164C68.0181 47.7744 67.8804 48.6221 67.7931 49.0809C67.5331 50.4574 67.0917 51.7312 66.5214 52.9067C66.4843 52.9875 66.445 53.0662 66.4056 53.1448C66.4035 53.1448 66.4035 53.1448 66.4035 53.1448C66.4013 53.1536 66.3969 53.1601 66.3925 53.1689C66.3335 53.2868 66.2724 53.4026 66.209 53.5184C66.1347 53.6605 66.0561 53.7981 65.9774 53.9358C65.914 54.0472 65.8485 54.1586 65.7829 54.2679C65.5841 54.5978 65.3766 54.9168 65.1603 55.227C65.0882 55.3319 65.0161 55.4346 64.9418 55.5351C64.7954 55.7383 64.6446 55.9393 64.4895 56.1338C64.1836 56.5249 63.8646 56.9007 63.5369 57.2612C63.3315 57.4884 63.1217 57.7091 62.9098 57.9232C62.8355 57.9997 62.7591 58.0761 62.6826 58.1504C62.534 58.299 62.3832 58.4432 62.2325 58.583C62.1691 58.642 62.1058 58.701 62.0424 58.7578C61.9506 58.843 61.8611 58.9239 61.7693 59.0069C61.7627 59.0135 61.7562 59.0178 61.7518 59.0222C61.6338 59.1271 61.5137 59.2298 61.3957 59.3325C61.2733 59.4373 61.1531 59.5378 61.0308 59.6383C60.9084 59.7388 60.7883 59.8372 60.6681 59.9333C60.5479 60.0294 60.4256 60.1234 60.3054 60.2152C60.1852 60.3091 60.0651 60.3987 59.9449 60.4883C59.8269 60.5778 59.7068 60.6631 59.5888 60.7483C59.4555 60.8466 59.3244 60.9384 59.1955 61.0279C59.0928 61.1 58.9901 61.17 58.8874 61.2377C58.7716 61.3185 58.658 61.3928 58.5466 61.4649C58.433 61.5392 58.3215 61.6113 58.2123 61.6834C58.1008 61.7555 57.9916 61.8232 57.8845 61.8888L57.8824 61.891C57.594 62.0701 57.3165 62.2362 57.0521 62.3891C57.0259 62.4044 56.9997 62.4197 56.9734 62.4328C56.8576 62.5006 56.744 62.5639 56.6326 62.6273C56.1869 62.8742 55.787 63.0817 55.4528 63.25C55.3916 63.2827 55.3304 63.3112 55.2714 63.3396C55.2146 63.368 55.1578 63.3964 55.1054 63.4204C54.9983 63.4728 54.9022 63.5187 54.8148 63.558C54.5722 63.6717 54.3319 63.7787 54.0938 63.8814C53.7376 64.0365 53.3815 64.1786 53.0275 64.3097C52.9838 64.3271 52.9379 64.3424 52.8921 64.3577L52.8899 64.3599C52.8287 64.3818 52.7653 64.4058 52.702 64.4276C52.6342 64.4517 52.5687 64.4735 52.501 64.4976C52.4769 64.5063 52.4529 64.515 52.4289 64.5216C52.3917 64.5347 52.3546 64.5478 52.3174 64.5587C52.2606 64.5784 52.2038 64.5981 52.147 64.6155C52.0247 64.6549 51.9023 64.6942 51.7799 64.7313C51.7144 64.751 51.651 64.7707 51.5855 64.7881C51.5767 64.7925 51.5658 64.7947 51.5571 64.7969C51.4107 64.8406 51.2621 64.8821 51.1157 64.9214C50.5739 65.0678 50.032 65.1923 49.4814 65.2972C49.3613 65.3213 49.2411 65.3431 49.1209 65.365C49.1187 65.365 49.1166 65.365 49.1144 65.3671C48.874 65.4065 48.6337 65.4458 48.3912 65.4808C47.775 65.5703 47.148 65.6381 46.5012 65.6883C46.333 65.7036 46.1626 65.7145 45.99 65.7255C45.813 65.7364 45.6338 65.7473 45.4547 65.7561C45.2908 65.7648 45.1247 65.7713 44.9565 65.7779C44.7861 65.7845 44.6135 65.791 44.4387 65.7954H44.395C44.2442 65.7998 44.0913 65.8041 43.9384 65.8085C43.5647 65.815 43.1802 65.815 42.7891 65.815C42.5684 65.815 42.3477 65.815 42.1227 65.8129C41.9545 65.8107 41.7819 65.8085 41.6092 65.8063C41.3645 65.8019 41.1133 65.7976 40.8598 65.7932C40.7986 65.791 40.7397 65.791 40.6785 65.7888C40.6217 65.7888 40.5627 65.7866 40.5015 65.7866C40.1716 65.7801 39.8351 65.7714 39.4921 65.7604C38.8344 65.7408 38.1549 65.7167 37.447 65.6927C37.3225 65.6883 37.1979 65.684 37.0712 65.6774C37.0537 65.6774 37.0363 65.6774 37.0188 65.6752C36.9379 65.673 36.8549 65.6708 36.7719 65.6665C36.7194 65.6665 36.6648 65.6643 36.6102 65.6621C36.4573 65.6555 36.2999 65.6512 36.1426 65.6446C36.0115 65.6403 35.8826 65.6359 35.7537 65.6293C35.4959 65.6184 35.2403 65.6097 34.9912 65.6009C34.7399 65.59 34.493 65.5813 34.2483 65.5725C34.1216 65.5681 33.9971 65.5638 33.8725 65.5594C33.6934 65.5529 33.5164 65.5441 33.3394 65.5354C33.1646 65.5288 32.9898 65.5201 32.8172 65.5113C32.8019 65.5113 32.7866 65.5113 32.7692 65.5092C32.566 65.5004 32.3649 65.4895 32.1661 65.4786C32.1377 65.4786 32.1115 65.4764 32.0831 65.4742C31.8908 65.4633 31.6986 65.4524 31.5107 65.4414C31.4342 65.4371 31.3599 65.4327 31.2856 65.4283C31.148 65.4196 31.0125 65.4108 30.877 65.4021C30.7394 65.3934 30.6039 65.3824 30.4706 65.3737C28.9172 65.2601 27.473 65.0984 26.0659 64.8428C25.7513 64.786 25.441 64.7248 25.1308 64.657C24.9756 64.6243 24.8205 64.5893 24.6654 64.5522C24.3551 64.4801 24.047 64.4014 23.739 64.3184C22.9655 64.1086 22.1899 63.8596 21.4011 63.5668C21.3312 63.5406 21.2635 63.5143 21.1936 63.4881C20.9467 63.3942 20.6998 63.2959 20.4507 63.191C20.3021 63.1298 20.1536 63.0664 20.0028 63.0009C19.9919 62.9965 19.9788 62.99 19.9678 62.9856C19.9373 62.9725 19.9089 62.9594 19.8783 62.9463C19.7494 62.8917 19.6161 62.8327 19.4784 62.7737C19.2534 62.6732 19.0174 62.5705 18.7705 62.459C18.6482 62.4044 18.5258 62.3476 18.3991 62.2908C18.3029 62.2471 18.2068 62.2034 18.1107 62.1575C17.0313 61.6572 15.8165 61.052 14.5755 60.3069C14.4138 60.2108 14.25 60.1125 14.0883 60.0098C13.9113 59.8983 13.7365 59.7869 13.5595 59.6711C13.4568 59.6034 13.352 59.5335 13.2493 59.4636C12.6856 59.0834 12.1262 58.6704 11.5778 58.2247C11.4883 58.1526 11.3987 58.0805 11.3113 58.0062C11.178 57.8948 11.0469 57.7834 10.9158 57.6654C10.8131 57.5758 10.7104 57.484 10.6077 57.3901C10.5815 57.3661 10.5575 57.3442 10.5313 57.3202C10.4526 57.2459 10.3718 57.1716 10.2931 57.0951C10.1882 56.9946 10.0856 56.8941 9.98286 56.7914C9.90202 56.7106 9.82118 56.6297 9.74252 56.5489C9.22252 56.007 8.72655 55.4302 8.2699 54.8097C8.17377 54.6786 8.07982 54.5475 7.98587 54.4143C7.92687 54.3312 7.87007 54.246 7.81326 54.1586C7.77393 54.0996 7.7346 54.0406 7.69528 53.9795C7.55763 53.7675 7.42435 53.549 7.29544 53.3262C7.25174 53.2519 7.21023 53.1776 7.1709 53.1055C7.01577 52.8258 6.8672 52.5396 6.72737 52.2446C6.62249 52.024 6.52199 51.7989 6.42804 51.5695C6.38652 51.4734 6.34719 51.3751 6.31005 51.2767C6.29476 51.2374 6.27946 51.1981 6.26417 51.1566C6.23576 51.0823 6.20736 51.0102 6.18114 50.9337C6.11997 50.7655 6.06097 50.5951 6.00635 50.4224C5.93862 50.2105 5.87526 49.9942 5.81408 49.7757V49.7735C5.79005 49.684 5.76601 49.5944 5.74416 49.5026C5.72887 49.4502 5.71576 49.3977 5.70483 49.3453C5.66988 49.2033 5.6371 49.0591 5.60651 48.9149C5.57156 48.751 5.53878 48.5849 5.50819 48.4167C5.49508 48.3402 5.48198 48.2681 5.46887 48.1917C5.45794 48.1152 5.44702 48.0387 5.43609 47.9644C5.41861 47.8574 5.40332 47.7481 5.38802 47.6411C5.37273 47.5296 5.35962 47.416 5.34651 47.3024C5.32903 47.132 5.31374 46.9638 5.30063 46.7933C5.29844 46.789 5.29844 46.7824 5.29844 46.778C5.29189 46.6863 5.28533 46.5945 5.27878 46.5027C5.26567 46.3258 5.25912 46.1488 5.25256 45.974V45.9434C5.25038 45.9347 5.25038 45.9281 5.25256 45.9216C5.25038 45.8538 5.24601 45.7905 5.24601 45.7271V45.6244C5.24382 45.62 5.24382 45.6135 5.24601 45.6091C5.24164 45.3404 5.24382 45.0694 5.25475 44.8029C5.25912 44.6434 5.26786 44.4839 5.2766 44.3244C5.28752 44.1496 5.30063 43.9748 5.31592 43.8V43.776C5.32466 43.6951 5.33122 43.6121 5.33996 43.5313C5.35088 43.4373 5.36181 43.3456 5.37273 43.2516C5.37273 43.2494 5.37273 43.2472 5.37273 43.2472C5.38802 43.1096 5.4055 42.9741 5.42735 42.8387C5.43609 42.7622 5.44702 42.6879 5.46013 42.6136C5.47761 42.4803 5.49945 42.3471 5.52349 42.2138C5.52567 42.2051 5.52567 42.1963 5.52786 42.1876C5.55626 42.0281 5.58685 41.8686 5.61962 41.7091C5.64803 41.5583 5.6808 41.4097 5.71576 41.2612C5.73542 41.1738 5.75509 41.0864 5.77694 40.999C5.80534 40.8744 5.83593 40.7521 5.8687 40.6297C5.91022 40.4702 5.95391 40.3129 5.9998 40.1556C6.01291 40.1054 6.0282 40.0551 6.04349 40.0049C6.0719 39.9065 6.10249 39.8104 6.13307 39.7143C6.18114 39.5635 6.22921 39.4128 6.27946 39.2642C6.3035 39.1943 6.32753 39.1243 6.35156 39.0566C6.35593 39.0413 6.3603 39.0282 6.36686 39.0129V39.0107C6.38215 38.9648 6.39745 38.9211 6.41493 38.8775C6.43896 38.8075 6.46518 38.7398 6.4914 38.6721C6.51543 38.6043 6.54165 38.5366 6.57005 38.4689C6.60938 38.3618 6.65308 38.2548 6.69678 38.1499C6.76014 37.9904 6.82787 37.8309 6.89779 37.6758C6.9109 37.643 6.92619 37.6124 6.9393 37.5818C6.9546 37.549 6.96771 37.5184 6.983 37.4879C7.02233 37.3961 7.06384 37.3043 7.10754 37.2147C7.10754 37.2126 7.10972 37.2126 7.10972 37.2104C7.10972 37.3786 7.11191 37.5512 7.11628 37.7282C7.12939 38.4055 7.1709 39.144 7.24956 39.9306V39.9437C7.30636 40.5118 7.38065 41.1039 7.48116 41.7178C7.75208 43.3696 8.1978 45.17 8.91445 47.0293C8.92974 47.0686 8.94504 47.108 8.96033 47.1451C9.43445 48.3621 10.0244 49.6031 10.7585 50.8441C13.7715 55.9415 18.0648 59.138 22.2401 61.1459C22.3538 61.2005 22.4674 61.253 22.581 61.3076C23.9007 61.9216 25.205 62.4197 26.4482 62.8217C29.151 63.6979 31.5696 64.1239 33.2455 64.3315C33.6431 64.3818 33.9993 64.4167 34.3073 64.4451C34.9519 64.5041 35.3888 64.5194 35.5615 64.526C36.4332 64.3861 37.447 64.1939 38.5657 63.9229H38.5679C38.5701 63.9207 38.5701 63.9207 38.5722 63.9207H38.5744C38.6334 63.9076 38.6946 63.8923 38.7558 63.877C38.8628 63.8508 38.9721 63.8224 39.0813 63.794V63.7918C39.3501 63.7241 39.6254 63.6476 39.9072 63.569H39.9094C39.9116 63.569 39.9116 63.569 39.9138 63.569C40.3835 63.4357 40.8686 63.2871 41.3667 63.1233C41.6573 63.0293 41.9501 62.9288 42.2472 62.8217C43.9165 62.2274 45.7037 61.454 47.5412 60.4402C47.8165 60.2894 48.094 60.1321 48.3715 59.9704C48.4261 59.9377 48.4829 59.9049 48.5397 59.8721C52.0203 57.8271 57.4891 54.5585 60.4671 48.9367V48.9345C60.4693 48.9323 60.4693 48.9323 60.4715 48.9302C60.4693 48.9302 60.4693 48.9302 60.4715 48.928C60.9303 48.0606 61.3301 47.1342 61.6535 46.1488C61.7169 45.9543 61.7802 45.7555 61.837 45.5545V45.5501C61.9463 45.1809 62.0424 44.8051 62.1276 44.4184C62.1691 44.2261 62.2085 44.036 62.2434 43.8459C62.7503 41.1279 62.5821 38.5606 62.0883 36.284C61.6404 34.2127 60.9216 32.3818 60.2027 30.9004C60.773 31.4226 61.3279 31.9557 61.8611 32.5041C61.9572 32.6002 62.0511 32.6986 62.1429 32.7991C62.2718 32.9323 62.3964 33.0656 62.5209 33.2011C62.6127 33.3016 62.7044 33.4021 62.7962 33.5026C62.9033 33.6228 63.0081 33.7429 63.113 33.8653C63.1327 33.8893 63.1545 33.9155 63.1764 33.9396C63.1982 33.9636 63.2179 33.9898 63.2375 34.0139C63.2878 34.0685 63.3337 34.1231 63.3817 34.1799C63.3861 34.1843 63.3883 34.1887 63.3927 34.1952C63.4407 34.252 63.4888 34.3088 63.5347 34.3656C63.5849 34.4268 63.6352 34.4858 63.6833 34.547C63.7685 34.654 63.8537 34.7611 63.9367 34.8682C64.0656 35.032 64.1923 35.1981 64.3147 35.3663C64.3737 35.445 64.4305 35.5236 64.4895 35.6045C64.7167 35.9191 64.9352 36.2403 65.1428 36.5702C65.2083 36.6707 65.2695 36.769 65.3307 36.8695C65.3569 36.911 65.3831 36.9526 65.4071 36.9963C65.4683 37.0946 65.5273 37.1951 65.5863 37.2978C65.6125 37.3393 65.6366 37.3808 65.6584 37.4245C65.7152 37.5206 65.7698 37.619 65.8223 37.7173C65.9009 37.8571 65.9752 37.9969 66.0451 38.139C66.0692 38.1805 66.0888 38.222 66.1085 38.2635C66.1129 38.2722 66.1172 38.2788 66.1216 38.2875C66.1369 38.3181 66.1522 38.3509 66.1697 38.3837C66.1959 38.4361 66.2221 38.4907 66.2483 38.5432C66.2745 38.5956 66.3008 38.648 66.327 38.7027C66.3467 38.7507 66.3685 38.7966 66.3903 38.8447C66.4231 38.9124 66.4559 38.9801 66.4843 39.0501C66.4952 39.0697 66.504 39.0894 66.5105 39.109C66.5608 39.2227 66.6088 39.3341 66.6547 39.4477C66.6678 39.4761 66.6788 39.5067 66.6919 39.5351C66.7137 39.5875 66.7356 39.6378 66.7574 39.6902C66.7771 39.7405 66.7967 39.7907 66.8164 39.841C66.8251 39.8628 66.8339 39.8825 66.8404 39.9044C66.871 39.983 66.9016 40.0595 66.9278 40.1381C67.0546 40.479 67.1725 40.8264 67.2774 41.1825C67.3036 41.2699 67.3299 41.3551 67.3539 41.4425C67.3888 41.5627 67.4194 41.6829 67.45 41.8052C67.4697 41.8729 67.4872 41.9407 67.5025 42.0106L67.5418 42.1679C67.5462 42.1898 67.5527 42.2094 67.5571 42.2313C67.5746 42.2968 67.5899 42.3624 67.603 42.4279C67.6052 42.441 67.6095 42.4541 67.6117 42.4672C67.6183 42.4956 67.6248 42.5219 67.6292 42.5503C67.6467 42.6202 67.662 42.6923 67.6751 42.7622V42.7644C67.6904 42.843 67.7057 42.9239 67.721 43.0025C67.7428 43.1118 67.7625 43.221 67.7821 43.3303C67.8302 43.6121 67.8695 43.8874 67.9045 44.1518C67.9482 44.5057 67.9809 44.8466 68.0028 45.17V45.1809C68.0072 45.2202 68.0094 45.2573 68.0115 45.2945C68.0181 45.4147 68.0225 45.5348 68.029 45.6506C68.0378 45.8822 68.0421 46.1051 68.0421 46.3192Z" fill="#8C1B33"/>
<path d="M39.1467 0.00390625C38.5503 5.43775 37.4666 10.6181 35.9065 15.4948C35.9065 15.497 35.9065 15.497 35.9044 15.4992C33.9751 18.9928 31.6351 20.8369 25.5392 29.7797C19.6902 38.3598 19.1768 40.5469 19.1899 42.6181C19.2161 47.2894 21.9188 50.9273 24.8182 54.8339C28.0912 59.243 31.6307 62.1227 34.0538 63.8313C33.785 63.9974 33.5141 64.1634 33.2453 64.3316C31.351 63.4118 28.5522 61.8103 25.7861 59.1229C24.0426 57.4274 17.1514 50.735 17.5381 42.3188C17.7238 38.2658 20.5555 34.2565 26.2122 26.2336C31.2767 19.054 32.6445 18.6039 34.6939 14.6449C36.2671 11.6123 38.0281 6.94751 38.2881 0.257354C38.5415 0.115336 38.8256 0.0257552 39.1315 0.00827604C39.1358 0.00390625 39.1424 0.00390625 39.1467 0.00390625Z" fill="#8C1B33"/>
<path d="M42.6056 53.5328C41.2728 57.7671 40.0209 61.2739 39.0792 63.7931C39.0595 63.8477 39.0399 63.9023 39.0202 63.957C38.8716 63.946 38.7209 63.9351 38.5701 63.922C38.4303 63.9133 38.2905 63.9023 38.1484 63.8914C38.4084 62.7072 38.7908 60.9484 39.2256 58.8159C41.2903 48.7195 42.5292 42.6651 42.7717 36.9975C43.1191 29.0226 41.216 28.4087 40.3639 18.3472C39.7347 10.9142 40.211 4.59987 40.8359 0.03125C41.2859 0.094612 41.6814 0.308732 41.9764 0.614617C41.0063 5.74257 41.2138 9.84362 41.6639 12.826C42.066 15.4828 42.6122 16.9533 43.39 19.8308C43.6697 20.8555 43.9756 22.0594 44.3142 23.5582C44.4453 24.1394 44.583 24.7643 44.7228 25.4394C45.8546 30.8383 46.4205 33.5388 46.4576 36.2022C46.5275 40.985 45.2209 45.2324 42.6056 53.5328Z" fill="#8C1B33"/>
<path d="M37.9998 41.0273C38.4652 31.8201 38.3101 30.4458 38.6531 22.1979C38.8716 16.9366 39.2714 9.35503 40.0711 0.00585938C40.0143 0.00585938 39.9553 0.00585938 39.8985 0.00585938C37.5454 11.6011 36.4507 21.6429 35.9373 29.5369C34.8863 45.6374 35.9832 56.669 36.2453 59.1488C36.4551 61.1458 36.6692 62.802 36.8243 63.9403C36.9445 63.9512 37.0647 63.9622 37.1849 63.9731C37.2045 62.2011 37.246 59.5334 37.3378 56.2866C37.5235 49.5768 37.7923 45.1327 37.9998 41.0273Z" fill="#8C1B33"/>
<path d="M52.2867 28.2291C49.8615 23.8899 48.4064 23.573 46.4793 19.9658C45.5878 18.2965 44.9739 16.6273 44.5544 15.0235C44.0016 13.9267 43.5319 12.76 43.1648 11.5059C43.132 12.4366 43.1692 13.4439 43.3177 14.5079C43.9361 18.9564 46.0379 21.2199 48.3299 25.6334C50.5694 29.9464 52.5183 33.7022 52.6756 38.1769C52.8876 44.1832 49.7828 48.9943 44.9608 56.4645C42.9791 59.5343 41.1219 61.9333 39.8 63.5414C40.1387 63.62 40.4752 63.6987 40.8138 63.7773C42.0221 62.3419 43.711 60.3274 45.7255 57.9065C50.246 52.4727 50.9168 51.5812 51.6597 50.4385C53.9145 46.9689 55.492 44.5393 55.918 41.1287C56.5735 35.9002 54.122 31.5151 52.2867 28.2291Z" fill="#8C1B33"/>
<path d="M39.6124 0.00241667C39.5643 0.45906 39.5097 0.913519 39.4529 1.36361C39.4529 1.36579 39.4529 1.36579 39.4529 1.36579C38.9613 5.28987 38.214 9.07629 37.2177 12.7076C36.2673 16.1728 35.0874 19.4961 33.6826 22.6664C33.0773 24.0275 32.5049 25.203 31.9521 26.3392C30.3331 29.6602 29.0549 32.2821 28.4738 36.6519C27.7047 42.4506 28.4912 48.5159 30.816 54.6751C32.0177 57.8585 33.6279 60.8889 35.6053 63.6834L35.2295 63.95C33.2281 61.1249 31.5982 58.0573 30.3834 54.839C30.0338 53.9104 29.103 51.4414 28.4475 48.1226C27.6697 44.1745 27.5233 40.2941 28.0171 36.5907C28.607 32.1488 29.9005 29.4963 31.537 26.1382C32.0898 25.0042 32.6622 23.8331 33.2609 22.4785C34.2594 20.2302 35.1421 17.9011 35.909 15.4977C35.9111 15.4955 35.9111 15.4955 35.9111 15.4933C37.4712 10.6166 38.5549 5.43626 39.1514 0.00241667C39.1514 0.000231772 39.1514 0.000231772 39.1514 -0.00195312H39.2147C39.2999 -0.00195312 39.3851 0.000231772 39.4682 0.000231772H39.6124V0.00241667Z" fill="#8C1B33"/>
<path d="M19.5112 45.3262C19.5243 45.3808 19.5374 45.4354 19.5506 45.49C19.5374 45.4442 19.5265 45.3939 19.5156 45.348L19.5112 45.3262Z" fill="#8C1B33"/>
</g>
<path d="M19.5615 36.231C19.8565 35.6957 20.1864 35.1363 20.5469 34.5508C20.1864 35.1341 19.8587 35.6935 19.5615 36.231Z" fill="#B52E47"/>
<path d="M20.5469 34.5484C20.702 34.2971 20.8637 34.0393 21.0297 33.7793C20.8637 34.0415 20.7042 34.2971 20.5469 34.5484Z" fill="#B52E47"/>
<path d="M22.677 55.748C22.7622 55.8551 22.8496 55.9622 22.9348 56.0649C22.8802 55.9993 22.8278 55.9338 22.7731 55.8682C22.7404 55.8289 22.7098 55.7874 22.677 55.748Z" fill="#B52E47"/>
<path d="M33.3438 63.3203C33.5076 63.4405 33.6671 63.5563 33.8222 63.6677C33.6671 63.5585 33.5098 63.4405 33.3438 63.3203Z" fill="#B52E47"/>
<path d="M35.2883 13.4288C35.4872 12.9983 35.686 12.5417 35.8826 12.0566C35.6882 12.5417 35.4893 12.9983 35.2883 13.4288Z" fill="#B52E47"/>
<path d="M36.1733 11.3115C36.9359 9.26428 37.6132 6.78005 37.9955 3.80859C37.6132 6.78005 36.9359 9.26428 36.1733 11.3115Z" fill="#B52E47"/>
<path d="M37.9954 3.80891C38.0303 3.52924 38.0653 3.24739 38.0959 2.95898C38.0631 3.24739 38.0303 3.52924 37.9954 3.80891Z" fill="#B52E47"/>
<path opacity="0.7" d="M25.8386 23.8086L22.7208 29.2162C21.9976 31.4885 21.589 31.8621 20.4485 33.9574C18.3357 37.8422 15.2135 45.6488 19.8258 51.8998C19.8258 51.8998 26.2647 61.1966 34.5171 63.8272C34.5171 63.8272 26.245 61.675 19.9744 57.834C14.3985 54.419 9.94133 48.9065 14.1626 40.073C18.3838 31.2394 25.8386 23.8086 25.8386 23.8086Z" fill="url(#paint1_linear_2761_6825)"/>
<path opacity="0.5" d="M54.2446 30.1337C56.5365 34.3702 57.6749 41.5541 54.6794 46.6886C53.8229 48.1569 53.1718 50.0905 51.6861 51.8581C43.6697 61.3995 43.6697 61.3995 43.6697 61.3995C43.6697 61.3995 56.3945 55.4173 59.4774 49.3629C62.143 44.1301 61.9507 37.5099 56.6633 28.9866C55.0923 26.4565 52.4879 24.7413 49.5449 24.2891L54.2446 30.1337Z" fill="url(#paint2_linear_2761_6825)"/>
<path opacity="0.7" d="M37.0581 16.1113C37.0581 16.1113 30.9929 30.973 29.2952 36.4112C25.6857 47.9737 35.603 63.6831 35.603 63.6831C35.603 63.6831 33.6912 44.2266 34.3554 40.7613C35.0196 37.2961 37.0581 16.1113 37.0581 16.1113Z" fill="url(#paint3_linear_2761_6825)"/>
<path opacity="0.7" d="M27.8292 31.3242C27.8292 31.3242 11.6129 47.073 33.8246 61.8319C33.8246 61.8319 23.5053 48.1741 27.8292 31.3242Z" fill="url(#paint4_linear_2761_6825)"/>
<path opacity="0.7" d="M46.1036 30.8984C46.1036 30.8984 57.677 42.2359 39.4419 62.822C39.4397 62.822 52.8834 41.257 46.1036 30.8984Z" fill="url(#paint5_linear_2761_6825)"/>
<path d="M30.8529 35.118C32.482 35.118 33.8025 33.7974 33.8025 32.1684C33.8025 30.5393 32.482 29.2188 30.8529 29.2188C29.2239 29.2188 27.9033 30.5393 27.9033 32.1684C27.9033 33.7974 29.2239 35.118 30.8529 35.118Z" fill="#110B09"/>
<path d="M31.7662 31.6619C32.1825 31.6619 32.52 31.3244 32.52 30.9081C32.52 30.4918 32.1825 30.1543 31.7662 30.1543C31.3499 30.1543 31.0125 30.4918 31.0125 30.9081C31.0125 31.3244 31.3499 31.6619 31.7662 31.6619Z" fill="white"/>
<path d="M44.5216 35.118C46.1507 35.118 47.4712 33.7974 47.4712 32.1684C47.4712 30.5393 46.1507 29.2188 44.5216 29.2188C42.8926 29.2188 41.572 30.5393 41.572 32.1684C41.572 33.7974 42.8926 35.118 44.5216 35.118Z" fill="#110B09"/>
<path d="M45.5377 31.6619C45.954 31.6619 46.2915 31.3244 46.2915 30.9081C46.2915 30.4918 45.954 30.1543 45.5377 30.1543C45.1214 30.1543 44.7839 30.4918 44.7839 30.9081C44.7839 31.3244 45.1214 31.6619 45.5377 31.6619Z" fill="white"/>
<path d="M42.4024 38.2885V38.2994C42.3915 38.7648 42.3653 39.2018 42.3281 39.6082C42.2167 40.8273 41.996 41.7931 41.688 42.5578C40.8533 44.6247 39.3742 45.1971 37.6874 45.1971C36.0335 45.1971 34.5761 44.6422 33.7349 42.667C33.4028 41.887 33.1647 40.8841 33.0467 39.606C33.0096 39.1996 32.9833 38.7626 32.9724 38.2972V38.2863C32.9724 37.9455 33.2499 37.668 33.5907 37.668H41.7885C42.1249 37.6702 42.4024 37.9498 42.4024 38.2885Z" fill="white"/>
<path opacity="0.5" d="M41.6857 42.5608C40.8511 44.6277 39.3719 45.2001 37.6851 45.2001C36.0312 45.2001 34.5739 44.6452 33.7327 42.67C34.6263 41.9228 36.1055 41.4355 37.7769 41.4355C39.3675 41.4355 40.7811 41.8747 41.6857 42.5608Z" fill="#EF8D7F"/>
<path d="M68.04 46.6171C68.0181 47.7751 67.8805 48.6228 67.7931 49.0817C67.5331 50.4582 67.0917 51.732 66.5215 52.9074C66.3532 53.2592 66.1697 53.6022 65.9774 53.9365C65.9141 54.0479 65.8485 54.1594 65.783 54.2686C65.5841 54.5985 65.3766 54.9175 65.1603 55.2278C65.0882 55.3327 65.0161 55.4354 64.9418 55.5359C64.7954 55.7391 64.6446 55.9401 64.4895 56.1345C64.1836 56.5256 63.8646 56.9014 63.5369 57.2619C60.2705 60.8605 56.1978 62.9143 54.8148 63.5588C54.5723 63.6724 54.3319 63.7795 54.0938 63.8822C53.7376 64.0373 53.3815 64.1793 53.0275 64.3104C52.8527 64.376 52.6758 64.4371 52.501 64.4983C52.4398 64.5202 52.3786 64.5398 52.3174 64.5595C52.2606 64.5792 52.2038 64.5988 52.147 64.6163C52.0247 64.6556 51.9023 64.6949 51.78 64.7321C51.7144 64.7518 51.6511 64.7714 51.5855 64.7889C51.5768 64.7933 51.5658 64.7955 51.5571 64.7976C51.4107 64.8413 51.2621 64.8829 51.1157 64.9222C50.5739 65.0686 50.032 65.1931 49.4814 65.298C49.3613 65.322 49.2411 65.3439 49.1209 65.3657C49.1188 65.3657 49.1166 65.3657 49.1144 65.3679C48.874 65.4072 48.6337 65.4466 48.3912 65.4815C47.775 65.5711 47.148 65.6388 46.5012 65.6891C46.333 65.7044 46.1626 65.7153 45.99 65.7262C45.813 65.7371 45.6338 65.7481 45.4547 65.7568C45.2908 65.7655 45.1248 65.7721 44.9565 65.7787C44.7861 65.7852 44.6135 65.7918 44.4387 65.7961H44.4321C44.2683 65.8005 44.1044 65.8049 43.9384 65.8093C42.8634 65.8267 41.7229 65.8158 40.5015 65.7874C40.4556 65.7874 40.4098 65.7852 40.3639 65.783C40.141 65.7787 39.9138 65.7721 39.6844 65.7656C39.621 65.7634 39.5555 65.7634 39.4921 65.7612C38.8344 65.7415 38.1549 65.7175 37.447 65.6935C37.3225 65.6891 37.198 65.6847 37.0712 65.6782C37.0538 65.6782 37.0363 65.6782 37.0188 65.676C36.938 65.6738 36.8549 65.6716 36.7719 65.6672C36.7195 65.6672 36.6648 65.665 36.6102 65.6629C36.4573 65.6563 36.3 65.6519 36.1427 65.6454C36.0116 65.641 35.8826 65.6366 35.7537 65.6301C35.4959 65.6192 35.2403 65.6104 34.9912 65.6017C34.7399 65.5908 34.4931 65.582 34.2483 65.5733C34.1216 65.5689 33.9971 65.5645 33.8725 65.5602C33.5142 65.5449 33.1625 65.5296 32.8172 65.5121C32.8019 65.5121 32.7866 65.5121 32.7692 65.5099C32.566 65.5012 32.365 65.4903 32.1661 65.4793C32.1377 65.4793 32.1115 65.4771 32.0831 65.475C31.8908 65.4662 31.6986 65.4553 31.5107 65.4422C31.4342 65.4378 31.3599 65.4334 31.2856 65.4291C31.148 65.4203 31.0125 65.4116 30.8771 65.4029C30.7394 65.3941 30.6039 65.3832 30.4707 65.3745C28.9172 65.2608 27.473 65.0992 26.0659 64.8435C25.7513 64.7867 25.441 64.7255 25.1308 64.6578C24.9756 64.625 24.8205 64.5901 24.6654 64.5529C24.3573 64.4808 24.0492 64.4044 23.739 64.3191C22.9655 64.1094 22.1899 63.8603 21.4011 63.5675C21.3312 63.5413 21.2635 63.5151 21.1936 63.4889C20.9467 63.3949 20.6998 63.2966 20.4507 63.1917C20.3021 63.1306 20.1536 63.0672 20.0028 63.0017C19.9919 62.9973 19.9788 62.9907 19.9679 62.9864C19.9373 62.9733 19.9089 62.9601 19.8783 62.947C19.7494 62.8924 19.6161 62.8334 19.4784 62.7744C19.2534 62.6739 19.0174 62.5712 18.7705 62.4598C18.6482 62.4052 18.5258 62.3484 18.3991 62.2916C18.303 62.2479 18.2068 62.2042 18.1107 62.1583C17.0314 61.6579 15.8166 61.0527 14.5755 60.3077C14.4139 60.2115 14.25 60.1132 14.0883 60.0105C13.9113 59.8991 13.7365 59.7877 13.5596 59.6719C13.4569 59.6041 13.352 59.5342 13.2493 59.4643C12.6856 59.0841 12.1263 58.6712 11.5779 58.2255C11.4883 58.1534 11.3987 58.0813 11.3113 58.007C11.178 57.8955 11.0469 57.7841 10.9158 57.6661C10.8131 57.5766 10.7105 57.4848 10.6078 57.3908C10.5029 57.2947 10.398 57.1964 10.2931 57.0959C10.1883 56.9954 10.0856 56.8949 9.98288 56.7922C9.90204 56.7113 9.8212 56.6305 9.74254 56.5497C9.22254 56.0078 8.72656 55.431 8.26992 54.8105C8.17378 54.6794 8.07983 54.5483 7.98588 54.415C7.92689 54.332 7.87008 54.2468 7.81328 54.1594C7.77395 54.1004 7.73462 54.0414 7.69529 53.9802C7.55764 53.7683 7.42437 53.5498 7.29546 53.3269C7.25176 53.2526 7.21025 53.1784 7.17092 53.1063C7.01579 52.8266 6.86722 52.5404 6.72738 52.2454C6.62032 52.0247 6.522 51.7997 6.42805 51.5703C6.38654 51.4741 6.34721 51.3758 6.31007 51.2775C6.29477 51.2382 6.27948 51.1988 6.26419 51.1573C6.23578 51.083 6.20738 51.0109 6.18116 50.9345C6.11998 50.7662 6.06099 50.5958 6.00637 50.4232C5.93864 50.2113 5.87527 49.995 5.8141 49.7765V49.7743C5.79006 49.6847 5.76603 49.5951 5.74418 49.5034C5.72889 49.4509 5.71578 49.3985 5.70485 49.3461C5.66989 49.204 5.63712 49.0598 5.60653 48.9156C5.57157 48.7518 5.5388 48.5857 5.50821 48.4175C5.48855 48.3039 5.46888 48.1946 5.44922 48.0788C5.42737 47.9324 5.40552 47.7882 5.38804 47.6418C5.37275 47.5304 5.35964 47.4168 5.34653 47.3032C5.32905 47.1327 5.31376 46.9645 5.30065 46.7941C5.29846 46.7897 5.29846 46.7832 5.29846 46.7788C5.29191 46.687 5.28535 46.5953 5.2788 46.5035C5.26569 46.3265 5.25913 46.1495 5.25258 45.9748V45.9442C5.25039 45.9354 5.25039 45.9289 5.25258 45.9223C5.25039 45.8546 5.24602 45.7912 5.24602 45.7279V45.6252C5.24384 45.6208 5.24384 45.6142 5.24602 45.6099C5.25039 45.0309 5.2788 44.4541 5.33342 43.8773C5.33779 43.8314 5.34216 43.7877 5.34871 43.744C5.36182 43.5932 5.3793 43.4381 5.39678 43.2851C5.42082 43.0994 5.44703 42.9137 5.47544 42.728C5.47981 42.6777 5.48855 42.6297 5.4951 42.5816C5.50603 42.5248 5.51258 42.4702 5.52351 42.4156C5.55409 42.2211 5.58905 42.0288 5.6262 41.8366C5.65241 41.6967 5.68082 41.5591 5.70922 41.4214C5.76821 41.1505 5.82939 40.8818 5.89712 40.6152C5.89931 40.6021 5.90368 40.5868 5.90586 40.5759C5.93645 40.4492 5.97141 40.3224 6.00637 40.1957C6.00637 40.1957 6.00637 40.1957 6.00637 40.1935C6.0457 40.0471 6.08721 39.9051 6.13309 39.7609C6.17897 39.6014 6.22704 39.4419 6.27948 39.2846C6.30351 39.2081 6.32755 39.1317 6.35158 39.0574C6.35595 39.0421 6.36032 39.029 6.36688 39.0137C6.58973 39.9423 6.96554 40.8468 7.48117 41.7186C8.56925 43.5648 10.2844 45.269 12.4933 46.7591C14.2085 47.9171 16.2208 48.9506 18.4756 49.8202C18.4756 49.8224 18.4778 49.8224 18.4778 49.8224C18.5236 49.8398 18.5673 49.8573 18.6132 49.8748C18.7836 49.9425 18.9563 50.0059 19.1289 50.0693H19.131C20.088 50.421 21.0865 50.7444 22.12 51.0372H22.1222C22.6771 51.1945 23.2452 51.3452 23.822 51.4829H23.8242C23.9771 51.52 24.1301 51.5572 24.2852 51.5921C25.8103 51.9461 27.4009 52.2367 29.0461 52.4573C29.2209 52.4814 29.3979 52.5032 29.577 52.5273C29.7453 52.5469 29.9135 52.5666 30.0839 52.5863C30.2107 52.6015 30.3396 52.6147 30.4685 52.6278C31.8428 52.7763 33.2498 52.8768 34.6853 52.9227C35.0415 52.9358 35.3976 52.9446 35.7559 52.9489C36.0509 52.9533 36.3458 52.9555 36.643 52.9555C36.9117 52.9555 37.1783 52.9533 37.4427 52.9489C38.4565 52.9358 39.4571 52.8965 40.4425 52.8331C41.2706 52.7785 42.0878 52.7086 42.8918 52.6212H42.894C43.4926 52.5557 44.0826 52.4814 44.6659 52.3984C45.435 52.2891 46.1888 52.1646 46.9317 52.0247C47.2616 51.9657 47.5871 51.9002 47.9083 51.8346C49.0707 51.5921 50.1981 51.3146 51.284 51.0022H51.2862C51.7341 50.8755 52.1711 50.7422 52.6015 50.6046C55.5992 49.641 58.256 48.4153 60.4496 46.9864H60.4518C60.8713 46.7154 61.269 46.4358 61.6535 46.1495C64.1945 44.2509 65.9665 42.0529 66.7312 39.6757C66.7312 39.6757 66.7334 39.6779 66.7334 39.6801C66.7618 39.7522 66.788 39.8243 66.8142 39.8986C66.8405 39.9707 66.8689 40.0471 66.8929 40.1192C66.9082 40.1586 66.9213 40.2001 66.9366 40.2394C67.0087 40.4491 67.0786 40.6633 67.1463 40.8796C67.1813 40.9954 67.2184 41.1134 67.2512 41.2379C67.3211 41.4761 67.3867 41.7208 67.4457 41.9655C67.4653 42.0419 67.4828 42.1206 67.5025 42.2014C67.5221 42.2801 67.5396 42.3587 67.5549 42.4374C67.5724 42.5051 67.5877 42.5751 67.6008 42.6472C67.6073 42.6734 67.6139 42.7018 67.6183 42.728C67.6401 42.8176 67.6576 42.9115 67.6751 43.0033C67.7122 43.1999 67.7472 43.4009 67.78 43.602C67.9635 44.7294 68.0312 45.7453 68.04 46.6171Z" fill="url(#paint6_radial_2761_6825)"/>
<path d="M25.559 55.7996C25.559 55.9242 25.5524 56.0509 25.5437 56.1732C25.4978 56.7653 25.3689 57.3487 25.1504 57.919C25.1002 58.0544 25.0434 58.1899 24.98 58.3232C24.9494 58.3953 24.9144 58.4674 24.8773 58.5395C24.6348 59.0223 24.3245 59.4965 23.9422 59.9575C23.5598 60.4229 23.1075 60.873 22.581 61.3077C22.5438 61.3405 22.5067 61.3711 22.4674 61.4017C21.7704 61.9632 20.951 62.5007 20.0028 63.001C19.9569 63.0273 19.9089 63.0513 19.863 63.0753C19.863 63.0775 19.863 63.0775 19.8608 63.0775L19.745 63.0273L19.7472 63.0251C19.7909 62.9989 19.8346 62.9748 19.8783 62.9464C19.7494 62.8918 19.6161 62.8328 19.4784 62.7738C19.2534 62.6733 19.0174 62.5706 18.7705 62.4592C18.6482 62.4046 18.5258 62.3478 18.3991 62.291C18.3029 62.2473 18.2068 62.2036 18.1107 62.1577C17.0313 61.6573 15.8165 61.0521 14.5755 60.3071C14.4138 60.2109 14.25 60.1126 14.0883 60.0099C13.9113 59.8985 13.7365 59.7871 13.5595 59.6713C13.4568 59.6035 13.352 59.5336 13.2493 59.4637C12.6856 59.0835 12.1262 58.6706 11.5778 58.2249C11.4883 58.1528 11.3987 58.0807 11.3113 58.0064C11.178 57.8949 11.0469 57.7835 10.9158 57.6655C10.8131 57.5759 10.7104 57.4842 10.6077 57.3902C10.5029 57.2941 10.398 57.1958 10.2931 57.0953C10.1882 56.9948 10.0856 56.8943 9.98286 56.7916C9.90202 56.7107 9.82118 56.6299 9.74252 56.549C9.22252 56.0072 8.72655 55.4304 8.2699 54.8099C8.17377 54.6788 8.07982 54.5477 7.98587 54.4144C7.92687 54.3314 7.87007 54.2462 7.81326 54.1588C7.77393 54.0998 7.7346 54.0408 7.69528 53.9796C7.55763 53.7677 7.42435 53.5492 7.29544 53.3263C7.25174 53.252 7.21023 53.1777 7.1709 53.1056C7.01577 52.826 6.8672 52.5398 6.72737 52.2448C6.62031 52.0241 6.52199 51.7991 6.42804 51.5697C6.38652 51.4735 6.34719 51.3752 6.31005 51.2769C6.29476 51.2376 6.27946 51.1982 6.26417 51.1567C6.23576 51.0824 6.20736 51.0103 6.18114 50.9339C6.11997 50.7656 6.06097 50.5952 6.00635 50.4226C5.93862 50.2107 5.87526 49.9944 5.81408 49.7759V49.7737C5.79005 49.6841 5.76601 49.5945 5.74416 49.5027C5.72887 49.4503 5.71576 49.3979 5.70483 49.3454C5.66988 49.2034 5.6371 49.0592 5.60651 48.915C5.57156 48.7511 5.53878 48.5851 5.50819 48.4169C5.48853 48.3032 5.46887 48.194 5.4492 48.0782C5.42735 47.9318 5.4055 47.7876 5.38802 47.6412C5.37273 47.5298 5.35962 47.4162 5.34651 47.3026C5.32903 47.1321 5.31374 46.9639 5.30063 46.7935C5.29844 46.7891 5.29844 46.7826 5.29844 46.7782C5.29189 46.6864 5.28533 46.5946 5.27878 46.5029C5.26567 46.3259 5.25912 46.1489 5.25256 45.9741V45.9436C5.25038 45.9348 5.25038 45.9283 5.25256 45.9217C5.25038 45.854 5.24601 45.7906 5.24601 45.7272V45.6246C5.24382 45.6202 5.24382 45.6136 5.24601 45.6093C5.24164 45.3405 5.24382 45.0696 5.25475 44.803C5.25912 44.6435 5.26786 44.484 5.2766 44.3245C5.28752 44.1497 5.30063 43.975 5.31592 43.8002V43.7761C5.32466 43.6953 5.33122 43.6123 5.33996 43.5314C5.35088 43.4375 5.36181 43.3457 5.37273 43.2518C5.37273 43.2496 5.37273 43.2474 5.37273 43.2474C5.38802 43.1097 5.4055 42.9743 5.42735 42.8388C5.43609 42.7623 5.44702 42.6881 5.46013 42.6138C5.47761 42.4805 5.49945 42.3472 5.52349 42.2139C5.52567 42.2052 5.52567 42.1965 5.52786 42.1877C5.55626 42.0282 5.58685 41.8687 5.61962 41.7092C5.64803 41.5585 5.6808 41.4099 5.71576 41.2613C5.73542 41.1739 5.75509 41.0865 5.77694 40.9991C5.80534 40.8746 5.83593 40.7522 5.8687 40.6299C5.87744 40.5927 5.88618 40.5534 5.89711 40.5163C5.90148 40.5053 5.90366 40.4922 5.90803 40.4813C5.93643 40.3721 5.96702 40.265 5.9998 40.1558C6.04131 40.0072 6.08501 39.8608 6.13307 39.7144C6.18114 39.5637 6.22921 39.4129 6.27946 39.2643C6.3035 39.1944 6.32753 39.1245 6.35156 39.0568C6.35593 39.0415 6.3603 39.0284 6.36686 39.0131V39.0109C6.38215 38.965 6.39745 38.9213 6.41493 38.8776C6.43896 38.8077 6.46518 38.7399 6.4914 38.6722C6.51543 38.6045 6.54165 38.5368 6.57005 38.469C6.60938 38.362 6.65308 38.2549 6.69678 38.15C6.76014 37.9905 6.82787 37.831 6.89779 37.6759C6.9109 37.6431 6.92619 37.6125 6.9393 37.5819C6.95241 37.5514 6.96771 37.5208 6.98081 37.488C6.98737 37.4727 6.99611 37.4552 7.00266 37.4399C7.03762 37.3656 7.07258 37.2914 7.10754 37.2149C7.10754 37.2127 7.10972 37.2127 7.10972 37.2105C7.14468 37.1428 7.17527 37.0707 7.21023 37.0051C7.50301 36.4043 7.82418 35.8275 8.1694 35.2791C8.56705 34.6476 8.99529 34.0577 9.45412 33.5137C10.2254 35.172 11.3004 37.2761 12.6004 39.3408C12.9609 39.9132 13.3389 40.4813 13.7321 41.0385C14.829 42.5854 16.0481 44.0318 17.3613 45.1504C17.394 45.1788 17.4268 45.2072 17.4618 45.2335C17.547 45.3056 17.6322 45.3755 17.7196 45.4432C17.9971 45.6661 18.2811 45.8736 18.5673 46.0615C18.9366 46.3062 19.2905 46.5531 19.6336 46.8044C19.7799 46.9115 19.9241 47.0185 20.0662 47.13C21.3116 48.0782 22.3581 49.0658 23.1927 50.0708C23.6101 50.5755 23.9749 51.0824 24.2852 51.5915C24.7702 52.389 25.122 53.1865 25.3296 53.9818V53.984C25.4913 54.5957 25.5699 55.201 25.559 55.7996Z" fill="url(#paint7_linear_2761_6825)"/>
<path d="M23.9618 57.2485V57.2507C23.9662 57.3621 23.964 57.4735 23.9575 57.585V57.5871C23.9181 58.2972 23.7193 58.9964 23.3479 59.6737C23.0748 60.1784 22.7055 60.67 22.2401 61.1463C22.2074 61.1813 22.1746 61.2141 22.1396 61.249C21.5388 61.8455 20.7872 62.4114 19.8783 62.9467C19.7494 62.8921 19.6161 62.8331 19.4784 62.7741C19.2534 62.6736 19.0174 62.5709 18.7705 62.4595C18.6482 62.4048 18.5258 62.348 18.3991 62.2912C18.303 62.2475 18.2068 62.2038 18.1107 62.1579C17.0313 61.6576 15.8165 61.0524 14.5755 60.3073C14.4138 60.2112 14.25 60.1129 14.0883 60.0102C13.9113 59.8988 13.7365 59.7873 13.5595 59.6715C13.4569 59.6038 13.352 59.5339 13.2493 59.464C12.6856 59.0838 12.1262 58.6709 11.5778 58.2251C11.4883 58.153 11.3987 58.0809 11.3113 58.0066C11.178 57.8952 11.0469 57.7838 10.9158 57.6658C10.8131 57.5762 10.7104 57.4845 10.6077 57.3905C10.5029 57.2944 10.398 57.1961 10.2931 57.0955C10.1882 56.995 10.0856 56.8945 9.98286 56.7918C9.90202 56.711 9.82118 56.6302 9.74252 56.5493C9.22252 56.0075 8.72655 55.4307 8.2699 54.8101C8.17377 54.6791 8.07982 54.548 7.98587 54.4147C7.92688 54.3317 7.87007 54.2464 7.81326 54.159C7.77393 54.1001 7.7346 54.0411 7.69528 53.9799C7.55763 53.7679 7.42435 53.5495 7.29544 53.3266C7.25174 53.2523 7.21023 53.178 7.1709 53.1059C7.01577 52.8263 6.8672 52.54 6.72737 52.2451C6.62031 52.0244 6.52199 51.7994 6.42804 51.5699C6.38652 51.4738 6.34719 51.3755 6.31005 51.2772C6.29476 51.2378 6.27946 51.1985 6.26417 51.157C6.23576 51.0827 6.20736 51.0106 6.18114 50.9341C6.11997 50.7659 6.06097 50.5955 6.00635 50.4229C5.93862 50.2109 5.87526 49.9946 5.81408 49.7761V49.774C5.79005 49.6844 5.76601 49.5948 5.74416 49.503C5.72887 49.4506 5.71576 49.3982 5.70484 49.3457C5.66988 49.2037 5.6371 49.0595 5.60651 48.9153C5.57156 48.7514 5.53878 48.5854 5.50819 48.4171C5.48853 48.3035 5.46887 48.1943 5.4492 48.0785C5.42735 47.9321 5.4055 47.7879 5.38802 47.6415C5.37273 47.5301 5.35962 47.4165 5.34651 47.3028C5.32903 47.1324 5.31374 46.9642 5.30063 46.7938C5.29844 46.7894 5.29844 46.7828 5.29844 46.7785C5.29189 46.6867 5.28533 46.5949 5.27878 46.5032C5.26567 46.3262 5.25912 46.1492 5.25256 45.9744V45.9438C5.25038 45.9351 5.25038 45.9285 5.25256 45.922C5.25038 45.8542 5.24601 45.7909 5.24601 45.7275V45.6248C5.24382 45.6205 5.24382 45.6139 5.24601 45.6095C5.24164 45.3408 5.24382 45.0699 5.25475 44.8033C5.25912 44.6438 5.26786 44.4843 5.2766 44.3248C5.28752 44.15 5.30063 43.9752 5.31592 43.8004V43.7764C5.32466 43.6956 5.33122 43.6125 5.33996 43.5317C5.35088 43.4378 5.36181 43.346 5.37273 43.252C5.37273 43.2499 5.37273 43.2477 5.37273 43.2477C5.38802 43.11 5.4055 42.9746 5.42735 42.8391C5.43609 42.7626 5.44702 42.6883 5.46013 42.614C5.47761 42.4808 5.49945 42.3475 5.52349 42.2142C5.52567 42.2055 5.52567 42.1967 5.52786 42.188C5.55626 42.0285 5.58685 41.869 5.61962 41.7095C5.64803 41.5587 5.6808 41.4102 5.71576 41.2616C5.73542 41.1742 5.75509 41.0868 5.77694 40.9994C5.80534 40.8749 5.83593 40.7525 5.8687 40.6302C5.87744 40.593 5.88618 40.5537 5.89711 40.5165C5.90148 40.5056 5.90366 40.4925 5.90803 40.4816C5.93643 40.3723 5.96702 40.2653 5.9998 40.156C6.04131 40.0075 6.08501 39.8611 6.13307 39.7147C6.18114 39.5639 6.22921 39.4132 6.27946 39.2646C6.3035 39.1947 6.32753 39.1248 6.35156 39.057C6.35593 39.0417 6.3603 39.0286 6.36686 39.0133V39.0112C6.38215 38.9653 6.39745 38.9216 6.41493 38.8779C6.43896 38.808 6.46518 38.7402 6.4914 38.6725C6.51543 38.6048 6.54165 38.537 6.57005 38.4693C6.60938 38.3622 6.65308 38.2552 6.69678 38.1503C6.76014 37.9908 6.82787 37.8313 6.89779 37.6762C6.9109 37.6434 6.92619 37.6128 6.9393 37.5822C6.95241 37.5516 6.96771 37.5211 6.98082 37.4883H6.983C7.0267 37.5669 7.0704 37.6478 7.11628 37.7286C7.95965 39.234 9.09361 41.0803 10.4482 42.8762C10.9988 43.6038 11.5844 44.3226 12.2049 45.0065C12.3229 45.1376 12.4431 45.2665 12.5632 45.3932C13.789 46.6954 15.1327 47.8447 16.5638 48.6465C17.2455 49.0311 17.8813 49.4244 18.4756 49.8198C18.4756 49.822 18.4777 49.822 18.4777 49.822C18.5324 49.8592 18.587 49.8941 18.6394 49.9313C18.6962 49.9706 18.753 50.0077 18.8077 50.0471C18.9672 50.1585 19.1223 50.2699 19.2752 50.3835C22.0566 52.4242 23.6712 54.6157 23.9269 56.7263C23.9487 56.9011 23.9618 57.0737 23.9618 57.2485Z" fill="url(#paint8_radial_2761_6825)"/>
<path d="M66.0452 38.1392C65.9753 37.9972 65.901 37.8574 65.8223 37.7175C65.7699 37.6192 65.7153 37.5209 65.6585 37.4248C65.6366 37.3811 65.6126 37.3395 65.5864 37.298C65.5274 37.1953 65.4684 37.0948 65.4072 36.9965C65.3832 36.9528 65.3569 36.9113 65.3307 36.8698C65.2695 36.7693 65.2084 36.671 65.1428 36.5705C64.9353 36.2405 64.7168 35.9194 64.4895 35.6047C64.4721 35.5807 64.4546 35.5545 64.4371 35.5305C64.3978 35.4758 64.3563 35.4212 64.3147 35.3666C64.1924 35.1983 64.0657 35.0323 63.9368 34.8684C63.8931 34.8116 63.8494 34.7526 63.8035 34.6958C63.7641 34.6478 63.7226 34.5975 63.6833 34.5472C63.6352 34.4861 63.585 34.4271 63.5347 34.3659C63.4889 34.3091 63.4408 34.2523 63.3927 34.1955C63.3884 34.1889 63.3862 34.1846 63.3818 34.1802C63.3403 34.1321 63.301 34.0841 63.2616 34.036C63.2529 34.0272 63.2463 34.0185 63.2398 34.0098C63.2398 34.0098 63.2398 34.0119 63.2376 34.0141C62.8989 34.7177 62.5144 35.4846 62.0883 36.2842C61.6841 37.0424 61.2428 37.829 60.7665 38.6243V38.6265C59.2327 41.1893 57.3449 43.8068 55.2256 45.6312C55.2256 45.6356 55.2256 45.6356 55.2234 45.6334C55.1862 45.6684 55.1469 45.7011 55.1098 45.7339V45.7361C54.7711 46.0201 54.4281 46.2845 54.0763 46.527C53.9955 46.5838 53.9146 46.6385 53.8338 46.6931C53.4449 46.9465 53.0713 47.2065 52.7086 47.4687H52.7064C50.823 48.8365 49.3373 50.2807 48.2863 51.7511V51.7533C47.0213 53.5165 46.3855 55.3103 46.4467 57.0429V57.0451C46.4488 57.1303 46.4532 57.2156 46.4598 57.3008C46.4772 57.5258 46.5057 57.7509 46.5472 57.9737C46.6499 58.533 46.829 59.0836 47.0868 59.6211C47.1087 59.6758 47.1371 59.7282 47.1633 59.7828C47.2747 60.0035 47.4015 60.2242 47.5413 60.4405C48.0679 61.2598 48.7889 62.0464 49.7109 62.7849C49.7262 62.798 49.7415 62.8089 49.759 62.822C49.8376 62.8854 49.9185 62.9487 50.0015 63.0121C50.4407 63.342 50.9213 63.6654 51.4457 63.9756H51.4479C51.5702 64.0499 51.6904 64.122 51.8171 64.1919C52.016 64.3034 52.2192 64.4148 52.4289 64.5219C52.4333 64.524 52.4355 64.5262 52.4398 64.5284C52.4486 64.5328 52.4551 64.5371 52.4639 64.5415C52.466 64.5437 52.4661 64.5437 52.4661 64.5437L52.5884 64.4913C52.6212 64.476 52.6561 64.4629 52.6889 64.4498C52.6933 64.4476 52.6998 64.4454 52.7042 64.4432C52.7086 64.441 52.7129 64.4388 52.7173 64.4366C52.737 64.4279 52.7588 64.4192 52.7785 64.4082C52.8156 64.3929 52.8528 64.3755 52.8899 64.3602L52.8921 64.358C53.222 64.2181 53.576 64.063 53.9518 63.8948C54.2489 63.7637 54.557 63.6239 54.876 63.4753C54.9044 63.46 54.9328 63.4491 54.9612 63.4338C55.3545 63.2524 55.7565 63.058 56.1738 62.846C56.27 62.798 56.3705 62.7477 56.4688 62.6975C56.5474 62.6559 56.6261 62.6166 56.7048 62.5751C56.7921 62.5292 56.8839 62.4812 56.9735 62.4331C56.9997 62.42 57.0259 62.4047 57.0521 62.3894C57.1155 62.3566 57.1811 62.3217 57.2444 62.2867C57.334 62.2386 57.4258 62.1884 57.5175 62.1359C57.6093 62.0879 57.7011 62.0376 57.7928 61.983C57.8169 61.9699 57.8409 61.9546 57.8671 61.9393L57.8824 61.8912L57.8846 61.8891L58.3718 60.4929V60.4907L59.9493 55.9592L61.4045 51.7795L63.7663 44.9954V44.9932L64.1334 43.9401V43.9379L66.1085 38.2638L66.0452 38.1392Z" fill="url(#paint9_linear_2761_6825)"/>
<path d="M66.0453 38.1387C65.1648 39.679 64.0068 41.5384 62.6325 43.3453C62.5057 43.5135 62.3746 43.6796 62.2436 43.8456C61.7957 44.4159 61.3259 44.9752 60.8365 45.5127L60.8343 45.5149C60.8146 45.5389 60.795 45.5586 60.7753 45.5804C59.6282 46.8411 58.3675 47.9904 57.0326 48.8731C57.0304 48.8731 57.0304 48.8753 57.0282 48.8753C57.026 48.8753 57.026 48.8774 57.0238 48.8774C56.742 49.0632 56.4558 49.238 56.1674 49.3996C55.3109 49.8781 54.5199 50.3675 53.7946 50.8701C50.1327 53.4002 48.2034 56.1706 48.352 58.7772V58.7794C48.3542 58.8187 48.3563 58.8559 48.3607 58.8952V58.8974C48.3847 59.2273 48.4437 59.5507 48.5399 59.8718C48.7321 60.547 49.0752 61.2068 49.5755 61.8426C49.6214 61.9016 49.6673 61.9606 49.7175 62.0174C49.8858 62.2206 50.0715 62.4216 50.2747 62.6204C50.3271 62.6729 50.3817 62.7253 50.4364 62.7756C50.4517 62.7909 50.4691 62.8062 50.4844 62.8215C50.869 63.1798 51.3103 63.5272 51.8063 63.8615H51.8085C51.8456 63.8899 51.8806 63.9139 51.9177 63.9358C52.1646 64.104 52.4268 64.2657 52.7021 64.4274C52.7065 64.4295 52.7108 64.4317 52.7152 64.4339L52.7174 64.4361C52.7196 64.4383 52.7196 64.4383 52.7218 64.4383C52.7436 64.4274 52.7698 64.4164 52.7939 64.4055C53.1238 64.2897 53.4537 64.163 53.7858 64.0297C54.1463 63.8833 54.509 63.726 54.8739 63.5556C55.0115 63.4922 55.1798 63.4136 55.3699 63.3196C55.4638 63.2715 55.5665 63.2213 55.6714 63.1688C55.7784 63.1164 55.8899 63.0596 56.0057 62.9984C56.0647 62.9678 56.1237 62.9373 56.1848 62.9045C56.5497 62.7122 56.9583 62.4872 57.3975 62.2272C57.4717 62.1856 57.5438 62.1419 57.6203 62.0961C57.7077 62.0436 57.7951 61.9912 57.8825 61.9366C57.9459 61.8972 58.0114 61.8579 58.0791 61.8164C58.2365 61.7181 58.3938 61.6176 58.5554 61.5149C60.9894 59.9374 63.9718 57.5122 65.971 54.1824C65.971 54.1824 65.971 54.1824 65.9732 54.1824C66.1742 53.8481 66.3665 53.5029 66.5456 53.1511C66.5456 53.1489 66.5456 53.1489 66.5456 53.1489C67.1792 51.9079 67.6686 50.5511 67.9483 49.0763C68.0445 48.5759 68.2039 47.6058 68.2018 46.2774C68.2018 45.9256 68.1887 45.5477 68.1603 45.1456C68.1253 45.1522 68.0903 45.1587 68.0554 45.1631C68.0379 45.1653 68.0204 45.1675 68.0029 45.1697C67.9811 44.8463 67.9483 44.5055 67.9046 44.1515C67.8718 43.885 67.8303 43.6118 67.7823 43.33C67.7626 43.2207 67.7429 43.1115 67.7211 43.0023C67.7058 42.9236 67.6905 42.8428 67.6752 42.7641V42.7619C67.6621 42.692 67.6468 42.6199 67.6293 42.55C67.625 42.5216 67.6184 42.4954 67.6118 42.467C67.6097 42.4538 67.6053 42.4407 67.6031 42.4276C67.59 42.3621 67.5747 42.2965 67.5572 42.231C67.5529 42.2091 67.5463 42.1895 67.5419 42.1676L67.5026 42.0103C67.4873 41.9404 67.4698 41.8727 67.4502 41.8049C67.4196 41.6826 67.389 41.5624 67.354 41.4422C67.33 41.3548 67.3038 41.2696 67.2776 41.1822C67.1727 40.8261 67.0547 40.4787 66.928 40.1379C66.9018 40.0592 66.8712 39.9827 66.8406 39.9041C66.834 39.8822 66.8253 39.8626 66.8165 39.8407C66.7969 39.7905 66.7772 39.7402 66.7576 39.6899C66.7357 39.6375 66.7139 39.5873 66.692 39.5348C66.6789 39.5064 66.668 39.4758 66.6549 39.4474C66.609 39.3338 66.5609 39.2224 66.5107 39.1088C66.5041 39.0891 66.4954 39.0694 66.4844 39.0498C66.456 38.9799 66.4233 38.9121 66.3905 38.8444C66.3686 38.7963 66.3468 38.7504 66.3271 38.7024C66.3009 38.6478 66.2747 38.5953 66.2485 38.5429C66.2222 38.4904 66.196 38.4358 66.1698 38.3834C66.1523 38.3506 66.137 38.3178 66.1217 38.2872C66.1174 38.2785 66.113 38.272 66.1086 38.2632L66.0453 38.1387Z" fill="url(#paint10_radial_2761_6825)"/>
<path d="M38.3974 31.1665L38.3952 31.7935H38.1877L37.0821 31.7892H36.8789L36.8811 31.1621L37.6393 31.1643L38.3974 31.1665Z" fill="white"/>
<path d="M27.0665 35.2575C27.0338 35.4956 27.0054 35.7316 26.9791 35.9654C27.2916 36.2341 27.6346 36.4679 28.006 36.6624C28.0082 36.6383 28.0126 36.6143 28.0148 36.5903C28.0454 36.3674 28.076 36.1489 28.1087 35.937C27.7198 35.7491 27.3724 35.5196 27.0665 35.2575ZM51.5986 27.0597C51.3757 26.9876 50.3663 26.9636 49.0357 27.0029C47.8646 27.0357 46.4466 27.1165 45.1051 27.2542C43.8793 27.3787 42.717 27.5491 41.867 27.772C41.406 27.8922 41.0368 28.0276 40.7964 28.1784C40.7964 28.1784 39.6144 28.8251 39.007 29.7865C38.771 29.9088 38.57 29.9962 38.4018 30.0552C38.2445 30.112 38.1134 30.1448 38.0085 30.1645H37.2788C37.0581 30.1208 36.7325 30.0203 36.2803 29.7821C36.1819 29.627 36.0705 29.4784 35.9482 29.3408C35.8848 29.2665 35.8171 29.1944 35.7493 29.1245C35.1616 28.5324 34.4952 28.1631 34.4952 28.1631C34.1128 27.9206 33.4006 27.7174 32.5179 27.5491C32.1836 27.4858 31.8253 27.4268 31.4494 27.3744H31.4473C31.2899 27.3525 31.1283 27.3307 30.9666 27.311C29.8348 27.1668 28.5982 27.0685 27.4686 27.0051C26.8371 26.9701 26.2407 26.9483 25.7163 26.9374H25.7141C24.9778 26.9199 24.3813 26.9265 24.0252 26.9549C23.7892 26.9701 23.6581 26.9964 23.6537 27.0291C23.6494 27.0838 23.6668 27.2607 23.7018 27.512V27.5142C23.7674 27.9883 23.8853 28.7246 23.9946 29.3845C24.1257 30.1688 24.2437 30.8462 24.2437 30.8462C24.283 31.0515 24.3311 31.2657 24.39 31.4863C24.6151 32.3537 24.98 33.3151 25.5153 34.2022C25.9085 34.8554 26.3914 35.465 26.9791 35.9654C27.2916 36.2341 27.6346 36.4679 28.006 36.6624C28.1481 36.7366 28.2945 36.8044 28.4452 36.8655C28.6571 36.9508 28.8756 37.0229 29.1051 37.0797C29.7103 37.2326 30.3788 37.2829 31.1173 37.2042C32.9614 37.0076 34.2374 36.1664 35.0917 35.1329L35.0939 35.1307C35.3167 34.862 35.5112 34.5823 35.6772 34.2939V34.2917C36.1251 33.5379 36.3873 32.7492 36.5206 32.0675L38.3537 32.0719L38.7514 32.0741C39.0726 33.7455 40.1803 36.0702 42.776 36.9355C43.1911 37.0753 43.6434 37.178 44.1371 37.2326C45.0024 37.3287 45.7736 37.2457 46.4575 37.0294C46.995 36.859 47.4778 36.6099 47.9126 36.2997C48.2316 36.0702 48.5222 35.8124 48.791 35.5284C49.9927 34.2568 50.6831 32.5176 50.9934 31.1236C51.0086 31.0494 51.0239 30.9772 51.0392 30.9051C51.1965 30.6561 51.6313 27.6147 51.6444 27.134V27.0903C51.6444 27.0794 51.627 27.0685 51.5986 27.0597ZM35.3189 33.1097C35.3189 33.1119 35.3189 33.1119 35.3189 33.1141C34.8251 35.004 33.0553 36.6143 30.6345 36.5203C30.1625 36.5029 29.7212 36.4439 29.3148 36.3499C29.0439 36.2909 28.7882 36.2144 28.5479 36.1227C28.3971 36.0681 28.2508 36.0047 28.1087 35.937C27.7198 35.7491 27.3724 35.5196 27.0665 35.2575C26.5531 34.8139 26.162 34.2721 25.8889 33.6647C25.5524 32.9196 25.3973 32.0719 25.4191 31.1804C25.4869 28.3488 27.6783 28.3008 27.6783 28.3008C27.6783 28.3008 28.9783 28.1631 30.5078 28.2811C30.6694 28.2942 30.8333 28.3095 30.9972 28.327C31.3795 28.3707 31.7663 28.4297 32.1464 28.5149C33.4246 28.7967 34.6044 29.3429 35.0873 30.372C35.3145 30.8571 35.4347 31.3705 35.4544 31.8862V31.8884C35.4718 32.2991 35.4238 32.7121 35.3189 33.1097ZM48.5703 34.9428C48.3496 35.181 48.0984 35.3995 47.8209 35.5918C47.4254 35.8649 46.9731 36.0877 46.4597 36.2494C45.9135 36.422 45.2995 36.5269 44.62 36.5509C43.9602 36.5728 43.3506 36.4701 42.8 36.2669C40.3726 35.3798 39.1425 32.5919 40.1934 30.383C40.5452 29.6445 41.2553 29.1572 42.1052 28.8382C43.1059 28.4646 44.2988 28.3248 45.317 28.2855C46.6039 28.2352 47.6133 28.3466 47.6133 28.3466C47.6133 28.3466 49.8048 28.4013 49.8594 31.2373C49.8878 32.6705 49.4596 33.9815 48.5703 34.9428ZM27.0665 35.2575C27.0338 35.4956 27.0054 35.7316 26.9791 35.9654C27.2916 36.2341 27.6346 36.4679 28.006 36.6624C28.0082 36.6383 28.0126 36.6143 28.0148 36.5903C28.0454 36.3674 28.076 36.1489 28.1087 35.937C27.7198 35.7491 27.3724 35.5196 27.0665 35.2575Z" fill="white"/>
<path d="M70.3078 52.7023C70.2816 52.711 70.2532 52.7198 70.2269 52.7263C69.4622 52.9557 68.6713 53.0824 67.9131 53.1349C67.8913 53.1371 67.8694 53.1371 67.8476 53.1393C67.3975 53.1677 66.9583 53.1698 66.5454 53.1524C66.4973 53.1502 66.4514 53.148 66.4056 53.1458C66.4034 53.1458 66.4034 53.1458 66.4034 53.1458C66.4012 53.1458 66.4012 53.1458 66.4012 53.1458C66.3247 53.1414 66.2482 53.1371 66.174 53.1305C66.08 53.124 65.9882 53.1174 65.9008 53.1087C65.5403 53.0759 65.2017 53.0387 64.8827 52.9994C64.5637 52.9623 64.2644 52.9208 63.9847 52.8705C63.8907 52.853 63.7968 52.8355 63.705 52.8203C63.4647 52.7722 63.2375 52.7198 63.0277 52.6608C62.8442 52.6083 62.6716 52.5493 62.5077 52.4838C62.2258 52.3724 61.9746 52.2413 61.7539 52.0796C61.6272 51.9878 61.5114 51.8895 61.4043 51.7802C61.3453 51.7213 61.2907 51.6601 61.2405 51.5945C61.1924 51.5334 61.1443 51.47 61.1006 51.4023C61.0351 51.3039 60.9761 51.1991 60.9215 51.0876C60.6549 50.5458 60.5085 49.8466 60.4714 48.9311C60.4692 48.9311 60.4692 48.9311 60.4714 48.929C60.4648 48.7913 60.4604 48.6493 60.4604 48.5029C60.4604 48.4133 60.4604 48.3281 60.4648 48.2407C60.4736 48.0266 60.4976 47.8256 60.5304 47.6333C60.5435 47.5678 60.5566 47.5022 60.5697 47.4389C60.585 47.3755 60.6003 47.3121 60.6178 47.251C60.6199 47.2466 60.6199 47.2444 60.6199 47.24C60.668 47.0674 60.727 46.9079 60.7969 46.7572C60.8253 46.696 60.8537 46.6392 60.8865 46.5824V46.5802C61.022 46.3267 61.188 46.1061 61.3803 45.9204C61.4174 45.8832 61.4568 45.8461 61.4961 45.8111C61.6031 45.7128 61.7168 45.6276 61.8369 45.5511C62.1669 45.3348 62.5427 45.184 62.949 45.0945C63.1107 45.0595 63.2768 45.0333 63.4472 45.018C63.5521 45.0049 63.6591 44.9983 63.7662 44.994H63.799C63.847 44.9918 63.8951 44.9918 63.9454 44.9918C64.1398 44.9918 64.3343 45.0027 64.5331 45.0245C65.7173 45.1556 66.6918 45.3108 67.8279 45.1906C67.8323 45.1884 67.8367 45.1884 67.8432 45.1906C67.8869 45.1862 67.9284 45.1797 67.9721 45.1753C67.9831 45.1731 67.9918 45.1731 68.0027 45.1709C68.0202 45.1687 68.0377 45.1666 68.0552 45.1644C68.0901 45.16 68.1251 45.1535 68.16 45.1469C72.7002 44.415 72.5233 36.9929 74.4875 38.85C74.6404 38.992 74.8043 39.1909 74.9878 39.4552C75.0337 39.523 75.0818 39.5951 75.1298 39.6737C75.2631 39.8791 75.403 40.1151 75.5493 40.3838C75.5909 40.4581 75.6324 40.5324 75.6739 40.6111C78.2237 45.3938 75.5734 51.0745 70.3078 52.7023Z" fill="#720D27"/>
<path d="M70.2378 52.7433C68.8045 50.4164 68.4244 47.8666 68.0376 45.1792C66.7223 45.2513 65.809 45.1398 64.5331 45.0175C62.3678 44.8099 60.4539 45.7713 60.4561 48.5002C60.4582 52.267 62.0925 52.7411 65.8986 53.1081C67.1659 53.2305 68.9335 53.1518 70.2378 52.7433Z" fill="url(#paint11_radial_2761_6825)"/>
<path d="M8.0164 57.7784C15.303 58.1651 5.86865 51.3919 7.07689 49.266C7.35219 48.781 8.39876 47.4722 9.19406 46.7643C10.5443 45.5604 11.8247 43.3668 9.86482 41.4747C7.15774 38.8637 5.23721 39.7027 2.44928 42.589C1.52289 43.5481 0.559347 44.988 0.227243 46.6048C-0.939492 52.2746 2.4908 57.4856 8.0164 57.7784Z" fill="#720D27"/>
<path d="M0.216309 46.5327C3.10474 46.3186 5.03838 47.3018 7.00697 49.384C7.78698 48.3615 8.4643 47.6405 9.29893 46.8058C10.7191 45.3878 11.8006 43.4411 9.86044 41.49C7.18176 38.7938 5.21098 39.7748 2.45583 42.5802C1.54036 43.5088 0.522194 45.1256 0.216309 46.5327Z" fill="url(#paint12_radial_2761_6825)"/>
<path d="M39.0178 58.387C39.0178 58.411 39.0178 58.4329 39.0178 58.4569C39.0178 58.4613 39.0178 58.4657 39.0178 58.4722C39.0178 58.4919 39.0156 58.5137 39.0156 58.5334C39.0156 58.5378 39.0156 58.5421 39.0156 58.5465C39.0134 58.5967 39.009 58.6448 39.0046 58.6951C39.0025 58.7213 38.9981 58.7453 38.9959 58.7715C38.9937 58.7912 38.9915 58.8109 38.9872 58.8305C38.985 58.8436 38.9828 58.8589 38.9806 58.872C38.9784 58.8917 38.9741 58.9092 38.9719 58.9267C38.9675 58.9485 38.9631 58.9726 38.9588 58.9944C38.9544 59.0184 38.95 59.0403 38.9435 59.0643C38.9435 59.0665 38.9435 59.0687 38.9435 59.0687C38.9391 59.0927 38.9325 59.1146 38.926 59.1386C38.9194 59.1605 38.9151 59.1823 38.9085 59.2042C38.9085 59.2063 38.9063 59.2085 38.9063 59.2107C38.8998 59.2347 38.8932 59.2566 38.8845 59.2806C38.8779 59.3003 38.8714 59.3199 38.8648 59.3374C38.8626 59.344 38.8604 59.3505 38.8583 59.3571C38.8517 59.3768 38.843 59.3986 38.8364 59.4183C38.8299 59.4358 38.8233 59.4532 38.8167 59.4685C38.8146 59.4773 38.8102 59.4838 38.808 59.4926C38.8014 59.51 38.7949 59.5253 38.7883 59.5428C38.7862 59.5472 38.7862 59.5494 38.784 59.5537C38.7752 59.5756 38.7665 59.5952 38.7578 59.6149C38.7578 59.6171 38.7556 59.6193 38.7556 59.6215C38.7468 59.6389 38.7403 59.6564 38.7315 59.6739C38.7272 59.6826 38.725 59.6914 38.7206 59.6979C38.7141 59.7132 38.7053 59.7285 38.6966 59.7438C38.6878 59.7635 38.6769 59.781 38.6682 59.8006C38.6594 59.8181 38.6485 59.8356 38.6398 59.8531C38.6376 59.8574 38.6332 59.864 38.631 59.8684C38.6223 59.8837 38.6135 59.9011 38.6026 59.9164C38.5851 59.9448 38.5699 59.971 38.5524 59.9994C38.5393 60.0213 38.524 60.0432 38.5087 60.065C38.4912 60.0912 38.4737 60.1153 38.4562 60.1393C38.4431 60.1568 38.43 60.1742 38.4169 60.1917C38.4147 60.1939 38.4125 60.1983 38.4104 60.2005C38.3972 60.2179 38.3841 60.2354 38.3688 60.2529C38.3667 60.2551 38.3645 60.2573 38.3623 60.2616C38.3492 60.2769 38.3361 60.2944 38.323 60.3097C38.3186 60.3141 38.3142 60.3206 38.3098 60.325C38.2967 60.3403 38.2814 60.3578 38.2683 60.3731C38.2661 60.3753 38.2662 60.3774 38.264 60.3774C38.2487 60.3949 38.2312 60.4146 38.2137 60.4321C38.2137 60.4342 38.2115 60.4342 38.2115 60.4342C38.1962 60.4495 38.1831 60.4648 38.1678 60.4801C38.1635 60.4867 38.1569 60.4911 38.1525 60.4954C38.1438 60.5042 38.1351 60.5151 38.1241 60.5238C38.1132 60.5348 38.1023 60.5457 38.0914 60.5544C38.0761 60.5697 38.0608 60.5828 38.0433 60.5981C38.0258 60.6134 38.0083 60.6309 37.9887 60.6462C37.9865 60.6484 37.9865 60.6484 37.9843 60.6506L37.9712 60.6615L37.969 60.6637C37.9515 60.679 37.9319 60.6942 37.9144 60.7095C37.9056 60.7161 37.8969 60.7248 37.886 60.7314C37.8772 60.7379 37.8685 60.7467 37.8598 60.7532C37.8488 60.762 37.8379 60.7707 37.827 60.7773C37.8095 60.7904 37.792 60.8035 37.7724 60.8166C37.7702 60.8188 37.768 60.8188 37.7658 60.821C37.7483 60.8341 37.7287 60.8472 37.709 60.8603C37.7046 60.8625 37.7024 60.8669 37.6981 60.869C37.6806 60.8822 37.6609 60.8931 37.6435 60.904C37.6347 60.9106 37.6238 60.9171 37.6151 60.9215C37.5823 60.9411 37.5495 60.9608 37.5167 60.9805C37.5058 60.987 37.4949 60.9936 37.484 61.0001C37.4752 61.0045 37.4687 61.0089 37.4599 61.0132C37.449 61.0198 37.4381 61.0242 37.4272 61.0307C37.425 61.0329 37.4206 61.0329 37.4184 61.0351C37.39 61.0504 37.3594 61.0657 37.3288 61.081L37.3157 61.0875C37.2939 61.0985 37.2698 61.1094 37.248 61.1203C37.2283 61.129 37.2087 61.1378 37.1912 61.1465C37.1824 61.1509 37.1759 61.1531 37.1671 61.1574C37.1497 61.164 37.1322 61.1727 37.1147 61.1793C37.0929 61.188 37.0732 61.1946 37.0513 61.2033C37.0492 61.2033 37.047 61.2055 37.0448 61.2055C37.0229 61.2143 36.9989 61.2208 36.9771 61.2295C36.964 61.2339 36.9487 61.2383 36.9334 61.2427C36.9006 61.2536 36.8678 61.2623 36.8329 61.2732C36.8088 61.2798 36.787 61.2864 36.7629 61.2929C36.7389 61.2995 36.7171 61.3038 36.693 61.3104C36.6908 61.3104 36.6887 61.3104 36.6865 61.3126C36.6646 61.3169 36.645 61.3213 36.6231 61.3257C36.6187 61.3257 36.6144 61.3279 36.61 61.3279C36.5925 61.3322 36.575 61.3344 36.5554 61.3388C36.5466 61.341 36.5401 61.341 36.5313 61.3432C36.5292 61.3432 36.5292 61.3432 36.527 61.3432C36.5095 61.3454 36.4898 61.3497 36.4702 61.3519C36.4702 61.3519 36.4702 61.3519 36.468 61.3519C36.4461 61.3563 36.4221 61.3585 36.4003 61.3606C36.3937 61.3606 36.3871 61.3628 36.3806 61.3628C36.3609 61.365 36.3391 61.3672 36.3194 61.3694C36.3172 61.3694 36.3172 61.3694 36.315 61.3694C36.291 61.3716 36.267 61.3738 36.2429 61.3759C36.2167 61.3781 36.1927 61.3803 36.1665 61.3803C36.1446 61.3825 36.1206 61.3825 36.0987 61.3825C36.0944 61.3825 36.09 61.3825 36.0856 61.3825C36.0616 61.3825 36.0354 61.3825 36.0113 61.3825C35.9786 61.3825 35.9436 61.3825 35.9108 61.3803C35.8955 61.3803 35.8802 61.3803 35.8649 61.3781C35.8584 61.3781 35.8518 61.3781 35.8453 61.3781C35.8234 61.3781 35.8038 61.3759 35.7819 61.3738C35.7797 61.3738 35.7754 61.3738 35.7732 61.3738C35.7557 61.3716 35.7382 61.3716 35.7229 61.3694C35.712 61.3694 35.7011 61.3672 35.6902 61.3672C35.6792 61.3672 35.6683 61.365 35.6596 61.3628C35.6443 61.3606 35.6312 61.3606 35.6181 61.3585C35.5744 61.3519 35.5307 61.3453 35.4891 61.3388C35.0696 61.2645 34.6938 61.0242 34.471 60.6615C34.4688 60.6593 34.4666 60.6549 34.4644 60.6527C34.3617 60.4845 34.3071 60.29 34.3049 60.0912V60.089C34.3049 60.0694 34.3049 60.0519 34.3049 60.0322C34.3049 60.0235 34.3049 60.0148 34.3071 60.006C34.3137 59.9033 34.3333 59.8028 34.3683 59.7089C34.412 59.5931 34.4666 59.4816 34.5322 59.3768C34.6567 59.1779 34.8359 59.0206 35.0478 58.9201C35.1177 58.8873 35.192 58.8589 35.2663 58.8349C35.4236 58.7846 35.5875 58.7541 35.7601 58.7475C35.7863 58.7453 35.8125 58.7453 35.8387 58.7453C36.3194 58.7453 36.7586 58.9267 37.0907 59.2238C37.0929 59.2238 37.095 59.2238 37.0972 59.2238C37.6566 58.6776 38.0018 57.9151 38.0018 57.0717C38.0018 56.6697 37.9231 56.2873 37.7811 55.9355C38.2989 56.3113 38.6922 56.851 38.8888 57.4759C38.8954 57.4956 38.902 57.5152 38.9063 57.5349C38.9085 57.5436 38.9129 57.5546 38.9151 57.5655C38.9194 57.5808 38.9238 57.5983 38.9282 57.6135C38.9304 57.6179 38.9304 57.6201 38.9304 57.6245C38.9369 57.6463 38.9413 57.6704 38.9478 57.6922C38.9544 57.7162 38.9588 57.7403 38.9631 57.7665C38.9675 57.7862 38.9719 57.8058 38.9741 57.8255C38.9762 57.8364 38.9784 57.8473 38.9806 57.8583C38.985 57.8867 38.9894 57.9151 38.9937 57.9435C38.9959 57.9566 38.9981 57.9675 38.9981 57.9806C39.0003 57.9893 39.0003 57.9981 39.0003 58.0068C39.0025 58.0199 39.0025 58.0309 39.0046 58.044C39.0068 58.0549 39.0068 58.068 39.009 58.0789C39.0112 58.0986 39.0134 58.1204 39.0134 58.1423C39.0156 58.1663 39.0178 58.1904 39.0178 58.2144C39.0178 58.2188 39.0178 58.2231 39.0178 58.2275C39.0199 58.2472 39.0199 58.2668 39.0199 58.2865C39.0199 58.2909 39.0199 58.2952 39.0199 58.3018C39.0178 58.3389 39.0178 58.363 39.0178 58.387Z" fill="url(#paint13_linear_2761_6825)"/>
<path d="M37.5365 55.7938C37.46 55.8288 37.3836 55.8703 37.3137 55.914C37.2612 55.9467 37.211 55.9817 37.1629 56.021C37.0864 56.08 37.0165 56.1456 36.951 56.2155C36.6604 56.5257 36.4725 56.9321 36.4441 57.3844C36.4397 57.4478 36.4266 57.5111 36.4047 57.5723C36.4026 57.5789 36.4004 57.5832 36.3982 57.5898C36.2911 57.8629 36.1207 58.1054 35.9044 58.2999C35.6641 58.5162 35.3647 58.6713 35.0348 58.7412C34.9955 58.75 34.9321 58.7565 34.8906 58.7565C34.8098 58.7565 34.7311 58.7653 34.6546 58.7806C34.3378 58.8483 34.0691 59.0493 33.9118 59.3246C33.8178 59.4885 33.7632 59.6807 33.7632 59.8839C33.7632 60.0369 33.7938 60.1833 33.8484 60.3165C33.6452 59.9123 33.5316 59.4557 33.5316 58.9728C33.5316 57.699 34.3225 56.611 35.439 56.1696C34.895 56.292 34.4077 56.5607 34.0188 56.9321C33.7523 57.1878 33.5556 57.509 33.4442 57.8607C33.3546 58.1448 33.3066 58.4485 33.3066 58.7609C33.3066 59.4164 33.5163 60.0238 33.8724 60.5176C33.643 60.2903 33.4529 60.0238 33.3066 59.731C33.2148 59.5475 33.1427 59.3552 33.0881 59.1542C33.0247 58.9095 32.9897 58.6538 32.9897 58.3895C32.9897 58.2125 33.005 58.0399 33.0356 57.8716C33.0662 57.6925 33.1143 57.5177 33.1755 57.3495C33.5709 56.2723 34.5651 55.4857 35.7558 55.3896C35.8367 55.383 35.9197 55.3809 36.0027 55.3809C36.1273 55.3809 36.2518 55.3874 36.3741 55.4027C36.7958 55.4508 37.1891 55.5884 37.5365 55.7938Z" fill="#8DB53F"/>
<path d="M73.6814 42.8447C73.4542 42.7726 73.3296 42.5322 73.3996 42.305L79.1589 23.9868C79.231 23.7596 79.4714 23.6351 79.6986 23.705C79.9258 23.7771 80.0504 24.0174 79.9805 24.2446L74.2211 42.5628C74.149 42.79 73.9086 42.9168 73.6814 42.8447Z" fill="#110B09"/>
<path d="M75.3369 40.6241C75.6522 40.3908 75.7396 39.9745 75.5322 39.6941C75.3247 39.4138 74.901 39.3756 74.5857 39.6089C74.2705 39.8422 74.183 40.2585 74.3905 40.5389C74.5979 40.8192 75.0216 40.8574 75.3369 40.6241Z" fill="#720D27"/>
</g>
<defs>
<linearGradient id="paint0_linear_2761_6825" x1="36.6426" y1="65.8157" x2="36.6426" y2="-0.000584521" gradientUnits="userSpaceOnUse">
<stop stop-color="#B7304A"/>
<stop offset="0.0426" stop-color="#BE3552"/>
<stop offset="0.1888" stop-color="#D04569"/>
<stop offset="0.3275" stop-color="#DB4E76"/>
<stop offset="0.4498" stop-color="#DF517B"/>
<stop offset="0.5481" stop-color="#DF5480"/>
<stop offset="0.6605" stop-color="#DE5D8E"/>
<stop offset="0.7407" stop-color="#DD669C"/>
<stop offset="0.7534" stop-color="#DA6195"/>
<stop offset="0.8228" stop-color="#CA4B73"/>
<stop offset="0.8889" stop-color="#BE3B5B"/>
<stop offset="0.9497" stop-color="#B7314C"/>
<stop offset="1" stop-color="#B52E47"/>
</linearGradient>
<linearGradient id="paint1_linear_2761_6825" x1="23.5041" y1="23.8095" x2="23.5041" y2="63.8278" gradientUnits="userSpaceOnUse">
<stop stop-color="#F5A1B8" stop-opacity="0"/>
<stop offset="0.0681" stop-color="#F5A1B8" stop-opacity="0.0687"/>
<stop offset="0.9901" stop-color="#F5A1B8"/>
</linearGradient>
<linearGradient id="paint2_linear_2761_6825" x1="52.4144" y1="24.2881" x2="52.4144" y2="61.3982" gradientUnits="userSpaceOnUse">
<stop stop-color="#F5A1B8" stop-opacity="0"/>
<stop offset="0.0681" stop-color="#F5A1B8" stop-opacity="0.0687"/>
<stop offset="0.9901" stop-color="#F5A1B8"/>
</linearGradient>
<linearGradient id="paint3_linear_2761_6825" x1="37.0646" y1="16.1051" x2="30.5393" y2="62.9699" gradientUnits="userSpaceOnUse">
<stop stop-color="#F5A1B8" stop-opacity="0"/>
<stop offset="0.0681" stop-color="#F5A1B8" stop-opacity="0.0687"/>
<stop offset="0.9901" stop-color="#F5A1B8"/>
</linearGradient>
<linearGradient id="paint4_linear_2761_6825" x1="31.057" y1="31.8033" x2="26.7423" y2="60.776" gradientUnits="userSpaceOnUse">
<stop stop-color="#F5A1B8" stop-opacity="0"/>
<stop offset="0.0681" stop-color="#F5A1B8" stop-opacity="0.0687"/>
<stop offset="0.9901" stop-color="#F5A1B8"/>
</linearGradient>
<linearGradient id="paint5_linear_2761_6825" x1="41.6337" y1="31.617" x2="46.1402" y2="61.8777" gradientUnits="userSpaceOnUse">
<stop stop-color="#F5A1B8" stop-opacity="0"/>
<stop offset="0.0681" stop-color="#F5A1B8" stop-opacity="0.0687"/>
<stop offset="0.9901" stop-color="#F5A1B8"/>
</linearGradient>
<radialGradient id="paint6_radial_2761_6825" cx="0" cy="0" r="1" gradientUnits="userSpaceOnUse" gradientTransform="translate(36.6417 52.4151) scale(24.1395 24.1395)">
<stop stop-color="white"/>
<stop offset="0.6941" stop-color="#E4E4E4"/>
<stop offset="1" stop-color="#D6D6D6"/>
</radialGradient>
<linearGradient id="paint7_linear_2761_6825" x1="15.4015" y1="63.0769" x2="15.4015" y2="33.5131" gradientUnits="userSpaceOnUse">
<stop stop-color="#3A8E84"/>
<stop offset="1" stop-color="#92C1AD"/>
</linearGradient>
<radialGradient id="paint8_radial_2761_6825" cx="0" cy="0" r="1" gradientUnits="userSpaceOnUse" gradientTransform="translate(14.6035 50.2169) scale(11.1724)">
<stop stop-color="#8DB53F"/>
<stop offset="0.4034" stop-color="#8BB33E"/>
<stop offset="0.6284" stop-color="#86AB3A"/>
<stop offset="0.8095" stop-color="#7E9D34"/>
<stop offset="0.9663" stop-color="#71892A"/>
<stop offset="1" stop-color="#6E8428"/>
</radialGradient>
<linearGradient id="paint9_linear_2761_6825" x1="46.4422" y1="49.2761" x2="66.1081" y2="49.2761" gradientUnits="userSpaceOnUse">
<stop stop-color="#3A8E84"/>
<stop offset="1" stop-color="#92C1AD"/>
</linearGradient>
<radialGradient id="paint10_radial_2761_6825" cx="0" cy="0" r="1" gradientUnits="userSpaceOnUse" gradientTransform="translate(58.2724 51.2879) scale(11.6512 11.6512)">
<stop stop-color="#8DB53F"/>
<stop offset="0.4034" stop-color="#8BB33E"/>
<stop offset="0.6284" stop-color="#86AB3A"/>
<stop offset="0.8095" stop-color="#7E9D34"/>
<stop offset="0.9663" stop-color="#71892A"/>
<stop offset="1" stop-color="#6E8428"/>
</radialGradient>
<radialGradient id="paint11_radial_2761_6825" cx="0" cy="0" r="1" gradientUnits="userSpaceOnUse" gradientTransform="translate(65.4282 49.5396) rotate(55.8666) scale(4.98884)">
<stop stop-color="#8DB53F"/>
<stop offset="0.4034" stop-color="#8BB33E"/>
<stop offset="0.6284" stop-color="#86AB3A"/>
<stop offset="0.8095" stop-color="#7E9D34"/>
<stop offset="0.9663" stop-color="#71892A"/>
<stop offset="1" stop-color="#6E8428"/>
</radialGradient>
<radialGradient id="paint12_radial_2761_6825" cx="0" cy="0" r="1" gradientUnits="userSpaceOnUse" gradientTransform="translate(5.77576 44.3465) rotate(-169.618) scale(4.85406)">
<stop stop-color="#8DB53F"/>
<stop offset="0.4034" stop-color="#8BB33E"/>
<stop offset="0.6284" stop-color="#86AB3A"/>
<stop offset="0.8095" stop-color="#7E9D34"/>
<stop offset="0.9663" stop-color="#71892A"/>
<stop offset="1" stop-color="#6E8428"/>
</radialGradient>
<linearGradient id="paint13_linear_2761_6825" x1="34.4583" y1="58.4432" x2="38.9857" y2="58.8891" gradientUnits="userSpaceOnUse">
<stop stop-color="#4FAAA2"/>
<stop offset="1" stop-color="#92C1AD"/>
</linearGradient>
<clipPath id="clip0_2761_6825">
<rect width="80" height="73.8386" fill="white"/>
</clipPath>
</defs>
</svg>
