<svg width="21" height="21" viewBox="0 0 21 21" fill="none" xmlns="http://www.w3.org/2000/svg">
<path d="M10.2899 20.5477C15.8896 20.5477 20.429 16.0293 20.429 10.4555C20.429 4.88172 15.8896 0.363281 10.2899 0.363281C4.69028 0.363281 0.150879 4.88172 0.150879 10.4555C0.150879 16.0293 4.69028 20.5477 10.2899 20.5477Z" fill="#E97600"/>
<path d="M10.2898 19.1105C15.0914 19.1105 18.9838 15.2361 18.9838 10.4566C18.9838 5.67722 15.0914 1.80273 10.2898 1.80273C5.48816 1.80273 1.5957 5.67722 1.5957 10.4566C1.5957 15.2361 5.48816 19.1105 10.2898 19.1105Z" fill="#FFDE02"/>
<path d="M16.2113 11.2086C16.2044 11.2532 16.1975 11.2978 16.1906 11.3459C16.1906 11.3562 16.1871 11.3665 16.1871 11.3733C16.1802 11.4111 16.1733 11.4523 16.1664 11.4935C16.1664 11.5038 16.163 11.5106 16.163 11.5209C16.1457 11.6171 16.125 11.7132 16.1043 11.8093C16.094 11.8573 16.0802 11.9054 16.0699 11.9569C16.0595 11.9947 16.0492 12.0324 16.0388 12.0702C16.0319 12.0976 16.025 12.1251 16.0147 12.1526C16.0043 12.1903 15.994 12.2247 15.9836 12.259C15.9698 12.3036 15.9561 12.3448 15.9423 12.386C15.9285 12.4306 15.9112 12.4752 15.894 12.5199C15.894 12.5233 15.8905 12.5267 15.8905 12.5302C15.8733 12.5748 15.856 12.6194 15.8388 12.6606C15.8216 12.7018 15.8043 12.743 15.7871 12.7842C15.7836 12.7876 15.7836 12.7945 15.7802 12.7979C15.7595 12.8425 15.7422 12.8872 15.7215 12.9284C15.7043 12.9661 15.6871 13.0004 15.6698 13.0382C15.6664 13.0485 15.6595 13.0622 15.6526 13.076C15.6319 13.1137 15.6146 13.1515 15.5939 13.1927C15.5767 13.2236 15.5595 13.2545 15.5457 13.2888L15.5215 13.3334C15.5043 13.3643 15.487 13.3952 15.4698 13.4261C15.4663 13.433 15.4629 13.4398 15.456 13.4467C15.4353 13.4845 15.4112 13.5222 15.387 13.56C15.3836 13.5634 15.3836 13.5668 15.3801 13.5703C15.3594 13.6046 15.3387 13.6355 15.3181 13.6664C15.3077 13.6836 15.2974 13.6973 15.287 13.711C15.2698 13.7385 15.2491 13.7694 15.2284 13.7968C15.2042 13.8312 15.1801 13.8655 15.156 13.8998C15.1353 13.9307 15.1111 13.965 15.087 13.9925C15.0801 14.0028 15.0732 14.0097 15.0663 14.02C15.0422 14.0509 15.0215 14.0783 14.9973 14.1058C14.9594 14.1573 14.918 14.2053 14.8766 14.2568C14.8456 14.2946 14.8111 14.3358 14.7766 14.3735C14.7352 14.4182 14.6973 14.4628 14.6525 14.5074C14.6249 14.5383 14.5938 14.5692 14.5628 14.6001C14.5559 14.607 14.5525 14.6104 14.5456 14.6173C14.5145 14.6482 14.4835 14.6791 14.4524 14.7099C14.449 14.7134 14.4421 14.7202 14.4386 14.7237C14.4076 14.7511 14.38 14.7786 14.349 14.8095C14.3386 14.8198 14.3283 14.8301 14.3179 14.837C14.2869 14.8644 14.2559 14.8919 14.2248 14.9228C14.2214 14.9262 14.2179 14.9296 14.2145 14.9331C14.1765 14.964 14.1421 14.9983 14.1041 15.0258C14.1007 15.0292 14.1007 15.0292 14.0972 15.0326C14.0627 15.0601 14.0317 15.0875 13.9972 15.1116C13.9869 15.1219 13.9731 15.1287 13.9627 15.139C13.942 15.1562 13.9213 15.1699 13.9007 15.1871C13.8765 15.2043 13.8524 15.2214 13.8282 15.242C13.7937 15.266 13.7593 15.2935 13.7248 15.3175C13.6868 15.345 13.6455 15.3725 13.6075 15.3999C13.6041 15.4034 13.6006 15.4034 13.5972 15.4068L13.5696 15.4274C13.5661 15.4274 13.5661 15.4308 13.5661 15.4308C13.5248 15.4583 13.4868 15.4823 13.4454 15.5063C13.4247 15.5201 13.404 15.5304 13.3868 15.5441C13.3661 15.5578 13.3489 15.5681 13.3282 15.5784C13.304 15.5922 13.2833 15.6059 13.2592 15.6196C13.2213 15.6436 13.1833 15.6642 13.1454 15.6848C13.142 15.6883 13.1385 15.6883 13.1351 15.6917C13.0937 15.7123 13.0557 15.7363 13.0144 15.7569C13.0075 15.7604 12.9971 15.7672 12.9902 15.7707C12.9523 15.7913 12.9143 15.8084 12.873 15.829C12.8523 15.8393 12.8316 15.8496 12.8143 15.8565C12.7454 15.8874 12.6764 15.9183 12.6074 15.9492C12.5833 15.9595 12.5591 15.9698 12.535 15.9766C12.5177 15.9835 12.5005 15.9904 12.4867 15.9972C12.4626 16.0075 12.4419 16.0144 12.4177 16.0247C12.4108 16.0281 12.4074 16.0281 12.4005 16.0315C12.3384 16.0556 12.2763 16.0796 12.2108 16.1002L12.1832 16.1105C12.1349 16.1242 12.0901 16.1414 12.0418 16.1551C12.0004 16.1654 11.9625 16.1792 11.9211 16.1894C11.9039 16.1929 11.8866 16.1997 11.8694 16.2032C11.8349 16.2135 11.797 16.2238 11.7625 16.2306C11.7177 16.2409 11.6763 16.2512 11.6314 16.2615C11.628 16.2615 11.6211 16.265 11.6176 16.265C11.5728 16.2753 11.5245 16.2856 11.4797 16.2959C11.4487 16.3027 11.4211 16.3096 11.39 16.313C11.3211 16.3268 11.2521 16.3371 11.1866 16.3474C11.1383 16.3542 11.09 16.3611 11.0417 16.368C10.9934 16.3748 10.9486 16.3817 10.9003 16.3851C10.8934 16.3851 10.89 16.3851 10.8865 16.3851C10.8451 16.3885 10.8003 16.392 10.7589 16.3954C10.7486 16.3954 10.7417 16.3954 10.7313 16.3988C10.6969 16.4023 10.6589 16.4023 10.6244 16.4057C10.6072 16.4057 10.5899 16.4091 10.5762 16.4091C10.5727 16.4091 10.5693 16.4091 10.5658 16.4091C10.5279 16.4091 10.4899 16.4126 10.452 16.4126H10.4486C10.4037 16.4126 10.3554 16.416 10.3141 16.416C10.3003 16.416 10.2865 16.416 10.2727 16.416C10.2313 16.416 10.1899 16.416 10.1485 16.416C10.1451 16.416 10.1416 16.416 10.1382 16.416C10.0899 16.416 10.0416 16.4126 9.99678 16.4091C9.94505 16.4057 9.89677 16.4023 9.84504 16.3988C9.80021 16.3954 9.75537 16.392 9.71054 16.3885C9.70364 16.3885 9.6933 16.3885 9.6864 16.3851C9.63812 16.3782 9.58984 16.3748 9.53811 16.368C9.47258 16.3611 9.40706 16.3508 9.34154 16.3405C9.3105 16.3371 9.28291 16.3302 9.25187 16.3268C9.23808 16.3268 9.22773 16.3233 9.21394 16.3199C9.17255 16.313 9.13117 16.3062 9.08978 16.2959C9.08289 16.2959 9.07944 16.2959 9.07254 16.2924C9.03805 16.2856 9.00702 16.2787 8.97598 16.2718C8.95529 16.2684 8.93115 16.2615 8.91045 16.2581C8.88976 16.2547 8.86907 16.2478 8.84838 16.2409C8.82079 16.2341 8.7932 16.2272 8.76561 16.2203C8.68284 16.1997 8.59663 16.1757 8.51731 16.1483C7.71032 15.8977 7.03094 15.3313 6.68607 14.5658C6.68262 14.5589 6.67918 14.552 6.67573 14.5452C6.51709 14.1882 6.45501 13.7934 6.50329 13.4055V13.3986C6.50674 13.3609 6.51364 13.3266 6.52054 13.2888C6.52399 13.2716 6.52744 13.2545 6.53088 13.2407C6.56537 13.0416 6.63434 12.8494 6.72746 12.6743C6.84126 12.4581 6.97921 12.2521 7.1344 12.0633C7.42753 11.7029 7.82068 11.4386 8.26211 11.3012C8.40695 11.2532 8.55869 11.2189 8.71388 11.188C9.03461 11.1296 9.36913 11.1124 9.70709 11.1399C9.75882 11.1433 9.81055 11.1502 9.85883 11.1571C10.8072 11.2772 11.6245 11.7406 12.2039 12.4066C12.2074 12.4066 12.2108 12.4066 12.2143 12.4066C13.4489 11.4763 14.3248 10.0689 14.5352 8.41776C14.6352 7.63166 14.5766 6.8593 14.3835 6.13843C15.3077 7.00691 15.9457 8.15687 16.1733 9.43041C16.1802 9.47161 16.1871 9.50937 16.194 9.55056C16.1975 9.57115 16.2009 9.59175 16.2044 9.61235C16.2078 9.64667 16.2147 9.67757 16.2182 9.70846C16.2216 9.71533 16.2216 9.72219 16.2216 9.72906C16.2285 9.77368 16.2319 9.82174 16.2388 9.86637C16.2457 9.91443 16.2492 9.96592 16.2526 10.014C16.2561 10.0552 16.2595 10.0929 16.2595 10.1307C16.2595 10.1547 16.263 10.1753 16.263 10.1959C16.2664 10.2508 16.2664 10.3092 16.2664 10.3675C16.2664 10.3916 16.2664 10.419 16.2664 10.4431C16.2664 10.4602 16.2664 10.4774 16.2664 10.4946C16.2664 10.5186 16.2664 10.5426 16.2664 10.5666C16.2664 10.5907 16.2664 10.6147 16.263 10.6387C16.263 10.6799 16.2595 10.7211 16.2595 10.7623C16.2561 10.8104 16.2561 10.8584 16.2492 10.9065C16.2492 10.9133 16.2492 10.9236 16.2457 10.9305C16.2423 10.9683 16.2388 11.0095 16.2354 11.0472C16.2354 11.0575 16.2319 11.0678 16.2319 11.0747C16.225 11.1124 16.2182 11.1605 16.2113 11.2086Z" fill="#E97600"/>
<path d="M13.9525 5.75704C13.7904 5.80853 13.6352 5.86688 13.4835 5.93897C13.3731 5.99046 13.2627 6.04882 13.1593 6.11061C12.9972 6.20672 12.8386 6.31657 12.6937 6.43671C12.0419 6.96879 11.5729 7.72055 11.4039 8.59933C11.3798 8.72291 11.3384 8.84306 11.2798 8.95634C11.2763 8.96663 11.2694 8.97693 11.2625 8.98723C10.9797 9.49527 10.5866 9.9278 10.1141 10.2539C9.58647 10.6178 8.95882 10.8478 8.29323 10.9027C8.21391 10.9096 8.08631 10.9061 8.00699 10.8958C7.84835 10.8752 7.68971 10.8718 7.53797 10.8855C6.89652 10.937 6.31715 11.2666 5.94125 11.7643C5.71364 12.063 5.5619 12.4234 5.51017 12.8216C5.47223 13.1202 5.49637 13.4154 5.57224 13.6866C5.27566 12.8456 5.1653 11.9222 5.28945 10.9782C5.61018 8.48605 7.43451 6.55 9.74166 5.96643C8.64154 6.06941 7.61729 6.47448 6.75858 7.1061C6.16886 7.53862 5.70329 8.11875 5.39636 8.78127C5.15151 9.31677 4.97907 9.8969 4.9032 10.5114C4.73767 11.7952 4.99977 13.0344 5.57569 14.0917C5.18254 13.5871 4.87217 13.0207 4.65835 12.4131C4.52385 12.0321 4.43074 11.6339 4.37556 11.2288C4.31003 10.7345 4.31003 10.223 4.37556 9.7081C4.42039 9.3614 4.49281 9.02499 4.59282 8.70231C4.69973 8.35904 4.83423 8.02607 4.99976 7.71369C6.04816 5.70554 8.20356 4.41141 10.5659 4.51782C10.728 4.52469 10.8901 4.53842 11.0522 4.55901C11.3005 4.58991 11.5384 4.63453 11.7764 4.69632C12.5799 4.89885 13.3179 5.26616 13.9525 5.75704Z" fill="#E97600"/>
</svg>
