<svg width="675" height="166" viewBox="0 0 675 166" fill="none" xmlns="http://www.w3.org/2000/svg">
<path d="M137.76 82.3701C137.76 82.8901 137.75 83.4101 137.74 83.9301C137.74 84.0401 137.74 84.1501 137.74 84.2601C137.73 84.7101 137.71 85.1701 137.69 85.6301C137.69 85.7401 137.68 85.8401 137.68 85.9401C137.63 87.0501 137.54 88.1601 137.43 89.2601C137.38 89.8301 137.31 90.3901 137.24 90.9601C137.19 91.4001 137.12 91.8301 137.06 92.2701C137.02 92.5801 136.97 92.9001 136.92 93.2101C136.86 93.6301 136.78 94.0401 136.71 94.4501C136.62 94.9601 136.52 95.4501 136.42 95.9501C136.32 96.4801 136.2 97.0001 136.08 97.5301C136.08 97.5701 136.07 97.6101 136.06 97.6501C135.94 98.1701 135.81 98.6901 135.67 99.2101C135.54 99.7101 135.41 100.2 135.28 100.68C135.26 100.74 135.25 100.79 135.23 100.85C135.08 101.38 134.93 101.89 134.76 102.41V102.42C134.62 102.85 134.48 103.29 134.33 103.72C134.29 103.86 134.24 104.01 134.19 104.16C134.03 104.62 133.87 105.08 133.69 105.54C133.55 105.92 133.41 106.3 133.27 106.68L133.05 107.22C132.9 107.6 132.75 107.97 132.6 108.33C132.57 108.42 132.53 108.5 132.49 108.59C132.3 109.06 132.09 109.51 131.89 109.97C131.87 110.01 131.85 110.06 131.83 110.11C131.66 110.51 131.47 110.89 131.29 111.28C131.21 111.47 131.12 111.66 131.02 111.84C130.85 112.19 130.68 112.54 130.5 112.89C130.29 113.31 130.07 113.72 129.85 114.14C129.65 114.53 129.43 114.92 129.21 115.3C129.14 115.42 129.08 115.53 129.02 115.64C128.81 116.01 128.6 116.36 128.39 116.72C128.02 117.34 127.64 117.96 127.25 118.58C126.94 119.07 126.62 119.56 126.29 120.05C125.9 120.61 125.52 121.18 125.11 121.73C124.84 122.12 124.55 122.51 124.25 122.89C124.2 122.96 124.15 123.03 124.09 123.1C123.79 123.5 123.48 123.89 123.17 124.29C123.13 124.35 123.08 124.41 123.02 124.47C122.73 124.83 122.44 125.19 122.14 125.55C122.05 125.67 121.95 125.79 121.84 125.9C121.54 126.27 121.23 126.62 120.91 126.98C120.88 127.02 120.85 127.06 120.81 127.1C120.44 127.51 120.08 127.92 119.71 128.31C119.69 128.34 119.66 128.36 119.64 128.38C119.31 128.73 118.98 129.08 118.65 129.41C118.54 129.53 118.42 129.65 118.31 129.75C118.11 129.97 117.9 130.17 117.69 130.38C117.45 130.62 117.21 130.85 116.97 131.08C116.62 131.41 116.28 131.74 115.92 132.07C115.52 132.43 115.12 132.8 114.71 133.15C114.68 133.18 114.64 133.21 114.61 133.24L114.31 133.5C114.29 133.51 114.27 133.53 114.26 133.55C113.85 133.9 113.44 134.24 113.02 134.58C112.82 134.75 112.61 134.92 112.4 135.08C112.2 135.25 112 135.41 111.8 135.56C111.56 135.75 111.32 135.93 111.09 136.11C110.69 136.42 110.29 136.71 109.89 137C109.85 137.03 109.81 137.06 109.77 137.09C109.35 137.39 108.93 137.69 108.5 137.98C108.42 138.04 108.33 138.1 108.24 138.16C107.84 138.44 107.43 138.7 107.02 138.97C106.81 139.11 106.6 139.24 106.39 139.38C105.67 139.83 104.94 140.27 104.21 140.7C103.96 140.85 103.71 140.99 103.45 141.13C103.27 141.23 103.1 141.33 102.92 141.43C102.68 141.56 102.43 141.7 102.19 141.82C102.13 141.86 102.07 141.89 102 141.92C101.34 142.28 100.67 142.62 99.99 142.95L99.7 143.1C99.2 143.34 98.69 143.58 98.18 143.81C97.75 144 97.32 144.19 96.89 144.37C96.7 144.45 96.52 144.53 96.33 144.61C95.94 144.77 95.55 144.93 95.16 145.09C94.69 145.28 94.22 145.45 93.74 145.63C93.69 145.65 93.64 145.67 93.58 145.68C93.08 145.87 92.57 146.05 92.06 146.22C91.74 146.33 91.42 146.44 91.1 146.54C90.36 146.78 89.61 147.01 88.87 147.21C88.35 147.36 87.82 147.5 87.29 147.64C86.77 147.77 86.25 147.91 85.72 148.03C85.66 148.04 85.61 148.05 85.55 148.07C85.08 148.17 84.61 148.28 84.13 148.37C84.03 148.39 83.93 148.41 83.84 148.43C83.44 148.51 83.04 148.59 82.64 148.66C82.46 148.69 82.27 148.73 82.09 148.76C82.05 148.76 82.02 148.77 81.98 148.77C81.57 148.84 81.15 148.91 80.73 148.97C80.73 148.97 80.71 148.97 80.7 148.97C80.19 149.05 79.68 149.13 79.18 149.19C79.02 149.21 78.87 149.23 78.72 149.24C78.26 149.3 77.8 149.36 77.34 149.4C77.31 149.41 77.28 149.41 77.24 149.41C76.71 149.47 76.17 149.51 75.63 149.55C75.06 149.59 74.49 149.63 73.91 149.66C73.41 149.69 72.9 149.7 72.4 149.72C72.31 149.72 72.21 149.73 72.12 149.73C71.56 149.74 71.01 149.75 70.45 149.75C69.7 149.75 68.95 149.74 68.2 149.71C67.86 149.7 67.52 149.69 67.18 149.67C67.04 149.67 66.9 149.66 66.75 149.65C66.27 149.63 65.8 149.6 65.33 149.56C65.27 149.56 65.2 149.56 65.14 149.54C64.76 149.51 64.38 149.48 64.01 149.44C63.76 149.42 63.51 149.4 63.26 149.37C63.03 149.35 62.79 149.32 62.56 149.28C62.24 149.26 61.92 149.21 61.61 149.17C60.64 149.05 59.67 148.9 58.71 148.73C49.32 147.08 40.92 141.68 35.94 133.55C35.9 133.48 35.85 133.4 35.81 133.33C33.52 129.54 32.27 125.2 32.26 120.77V120.71C32.26 120.29 32.27 119.87 32.28 119.46C32.28 119.27 32.3 119.08 32.31 118.89C32.43 116.61 32.9 114.36 33.7 112.22C34.67 109.61 35.9 107.11 37.36 104.77C40.13 100.31 44.14 96.7801 48.9 94.5701C50.47 93.8401 52.11 93.2001 53.79 92.6601C57.3 91.5401 61 90.8701 64.83 90.7201C65.4 90.6901 65.99 90.6801 66.57 90.6801C77.35 90.6801 87.18 94.7301 94.61 101.4C94.65 101.4 94.7 101.4 94.74 101.4C107.24 89.1701 115 72.1101 115 53.2401C115 44.2501 113.24 35.6601 110.04 27.8201C121.64 36.2501 130.44 48.3001 134.8 62.2901C134.94 62.7301 135.07 63.1701 135.19 63.6101C135.26 63.8301 135.32 64.0601 135.38 64.2801C135.48 64.6401 135.57 64.9901 135.66 65.3501C135.69 65.4301 135.71 65.5101 135.73 65.5901C135.86 66.1001 135.98 66.6101 136.11 67.1101V67.1201C136.24 67.6601 136.35 68.2101 136.46 68.7501C136.55 69.1901 136.64 69.6301 136.71 70.0701C136.76 70.3201 136.8 70.5701 136.84 70.8101C136.95 71.4401 137.05 72.0801 137.14 72.7201C137.18 73.0001 137.22 73.2801 137.25 73.5501C137.28 73.7401 137.3 73.9401 137.32 74.1401C137.36 74.4101 137.39 74.6801 137.41 74.9501C137.44 75.2201 137.47 75.4801 137.49 75.7501C137.54 76.2101 137.58 76.6801 137.61 77.1501C137.65 77.6901 137.69 78.2301 137.71 78.7701C137.71 78.8601 137.72 78.9601 137.72 79.0501C137.75 79.4801 137.76 79.9301 137.77 80.3701C137.77 80.4801 137.77 80.5901 137.77 80.7001C137.76 81.2801 137.76 81.8201 137.76 82.3701Z" fill="url(#paint0_linear)"/>
<path d="M104.65 24.34C102.92 25.13 101.25 26.04 99.66 27.05C98.49 27.79 97.36 28.59 96.27 29.44C94.58 30.77 92.99 32.21 91.53 33.77C85 40.69 80.82 49.82 80.19 59.92C80.1 61.35 79.81 62.77 79.3 64.11C79.26 64.24 79.21 64.36 79.16 64.49C76.74 70.62 72.93 76.05 68.11 80.39C62.71 85.25 56.04 88.73 48.66 90.27C47.79 90.45 46.34 90.6 45.45 90.6H45.44C43.63 90.6 41.86 90.79 40.16 91.16C33.05 92.67 27.04 97.19 23.54 103.32C21.42 107.01 20.22 111.27 20.22 115.83C20.22 119.25 20.9 122.52 22.14 125.49C17.61 116.44 15.07 106.23 15.07 95.42C15.07 66.93 32.75 42.56 57.74 32.71C45.59 35.44 34.67 41.45 25.98 49.77C20.01 55.48 15.6 62.66 13.13 70.55C11.14 76.91 10.07 83.69 10.07 90.7C10.07 105.37 14.76 118.95 22.73 130.02C17.61 124.92 13.32 118.98 10.06 112.44C8.01 108.35 6.37999 104.02 5.18999 99.51C3.75999 94.04 3 88.31 3 82.39C3 78.43 3.34 74.55 4 70.78C4.7 66.75 5.75 62.84 7.14 59.1C16.01 35 38.26 17.38 64.88 15.22C66.7 15.08 68.53 15 70.39 15C73.2 15 75.96 15.17 78.68 15.51C88.06 16.64 96.86 19.73 104.65 24.34Z" fill="#8DB53F"/>
<path d="M223.14 115.93V120.26H165.21V38.8501H222.56V43.1901H170.47V75.7901H219.45V80.1301H170.47V115.93H223.14Z" fill="#81B841"/>
<path d="M280.85 107.72H280.61C275.59 116.95 268.07 121.63 257.07 121.63C238.55 121.63 230.55 107.27 230.55 91.0801C230.55 73.7501 239.39 60.2901 257.91 60.2901C267.94 60.2901 277.38 65.5301 280.61 74.7701H280.85V38.8501H285.39V120.26H280.85V107.72ZM280.73 91.0701C280.73 77.3901 273.68 64.0501 257.92 64.0501C241.67 64.0501 235.11 76.9301 235.11 91.0701C235.11 104.87 242.27 117.87 258.04 117.87C273.56 117.87 280.73 104.53 280.73 91.0701Z" fill="#81B841"/>
<path d="M303.79 91.53C303.55 105.32 311.2 117.87 326.37 117.87C337.95 117.87 346.19 111.26 348.34 100.42H352.88C350.49 114.1 340.94 121.63 326.37 121.63C308.45 121.63 299.02 108.18 299.25 91.99C299.02 75.91 307.85 60.29 326.37 60.29C345.59 60.29 354.2 74.77 353.36 91.53H303.79ZM348.82 87.77C348.58 75.46 340.46 64.05 326.37 64.05C312.75 64.05 304.74 76.14 303.79 87.77H348.82Z" fill="#81B841"/>
<path d="M366.14 61.66H370.69V74.2H370.92C374.03 65.42 383.35 60.29 392.91 60.29C414.53 60.29 414.76 76.82 414.76 84.01V120.27H410.22V83.21C410.22 77.16 409.5 64.05 392.78 64.05C379.04 64.05 370.69 74.2 370.69 88.56V120.26H366.14V61.66V61.66Z" fill="#81B841"/>
<path d="M436.4 80.1301V120.26H431.14V38.8501H484.66V43.1901H436.4V75.8001H479.88V80.1301H436.4Z" fill="#81B841"/>
<path d="M539.13 109.43C539.13 112.85 539.13 116.5 543.18 116.5C544.02 116.5 545.09 116.39 546.53 116.16V119.81C545.21 120.04 544.02 120.27 542.82 120.27C535.66 120.27 534.58 116.51 534.58 111.72V108.64H534.34C531.48 115.6 523.24 121.64 511.53 121.64C499.95 121.64 490.98 117.42 490.98 105.11C490.98 91.43 503.41 88.58 513.57 87.78C533.88 86.41 534.7 85.1601 534.7 75.5801C534.7 72.9601 531.61 64.06 517.62 64.06C506.62 64.06 499.34 69.5301 498.74 79.68H494.2C494.8 66.8 503.17 60.3 517.62 60.3C528.37 60.3 539.13 63.5001 539.13 75.5801V109.43ZM534.58 86.9701C531.01 90.8501 521.21 90.39 512.36 91.53C501.61 92.67 495.52 96.32 495.52 105.1C495.52 112.17 500.9 117.87 511.64 117.87C532.31 117.87 534.57 101 534.57 97.92V86.9701H534.58Z" fill="#81B841"/>
<path d="M560.29 74.6601H560.64C563.04 67.0201 573.07 60.8601 584.18 61.3201V65.6501C579.4 65.0801 572.72 66.2201 567.22 71.3501C562.68 75.8001 560.76 79.4401 560.29 88.2201V120.26H555.74V61.6601H560.29V74.6601Z" fill="#81B841"/>
<path d="M591.22 61.66H595.77V73.63H596C597.92 66.22 606.05 60.29 615.24 60.29C626.94 60.29 632.44 66.68 633.76 72.72H634C637.58 64.74 643.55 60.29 653.47 60.29C664.58 60.29 672.7 66.45 672.7 80.24V120.26H668.16V80.13C668.16 65.2 657.05 64.05 653.47 64.05C642.36 64.05 634.23 71.58 634.23 85.6V120.26H629.69V80.13C629.69 65.42 619.18 64.05 615.24 64.05C606.51 64.05 595.77 70.55 595.77 85.6V120.26H591.22V61.66Z" fill="#81B841"/>
<defs>
<linearGradient id="paint0_linear" x1="32.1776" y1="88.7985" x2="137.763" y2="88.7985" gradientUnits="userSpaceOnUse">
<stop stop-color="#50ABA3"/>
<stop offset="1" stop-color="#93C2AE"/>
</linearGradient>
</defs>
</svg>
