<svg width="498" height="99" viewBox="0 0 498 99" fill="none" xmlns="http://www.w3.org/2000/svg">
<path fill-rule="evenodd" clip-rule="evenodd" d="M35.3962 85.4875C42.2462 89.3492 50.4757 90.6563 58.2732 89.4493C66.1946 88.2231 74.2313 84.9212 79.208 78.7295C81.5594 75.8039 82.2958 72.1844 82.7439 68.2878C82.8384 67.4656 82.92 66.6293 83.0023 65.7857C83.3058 62.675 83.619 59.4656 84.6258 56.5022C85.5981 53.6405 87.324 50.9924 88.9904 48.4356C89.4653 47.7069 89.9354 46.9856 90.3818 46.2689C92.4216 42.9942 93.9967 39.785 93.6803 36.1714C93.3598 32.5123 91.5724 29.3613 89.1922 26.3957C88.0027 24.9136 86.6732 23.4876 85.3159 22.0723C84.9927 21.7352 84.6675 21.3985 84.3423 21.0617C83.3068 19.9892 82.2713 18.9166 81.298 17.8358L81.1594 17.6818C76.2527 12.2323 71.3682 6.80753 64.7341 4.10166C57.8376 1.28878 50.0416 -0.019148 42.9947 2.14481C39.6562 3.16998 37.173 5.58934 34.6995 8.30659C34.3613 8.67812 34.0231 9.0556 33.6828 9.43537C31.5631 11.801 29.3638 14.2553 26.601 15.9143C24.567 17.1356 22.1975 17.8944 19.7648 18.4831C18.5468 18.7778 17.3048 19.0317 16.0756 19.2786C15.9422 19.3055 15.8089 19.3322 15.6758 19.3589C14.5801 19.5786 13.4979 19.7956 12.4427 20.0358C7.67573 21.1213 3.70259 22.637 2.04456 26.6364C0.411968 30.5744 1.85762 34.4918 4.31039 38.5591C5.23118 40.086 6.27631 41.6066 7.3312 43.1415C7.67827 43.6464 8.0264 44.1529 8.3715 44.6617C9.75749 46.705 11.0884 48.7764 12.0442 50.8663C14.8875 57.0831 17.6101 62.9884 21.4059 68.6027C22.2741 69.8867 23.109 71.2096 23.9392 72.5251C24.1208 72.8128 24.3022 73.1002 24.4836 73.3868C25.4971 74.9874 26.5154 76.5658 27.6036 78.0624C29.78 81.0559 32.2169 83.6951 35.3962 85.4875ZM58.4262 90.4375C50.4241 91.6762 41.9652 90.3387 34.9051 86.3586C31.5487 84.4664 29.0113 81.6991 26.7947 78.6504C25.6864 77.126 24.6535 75.5244 23.6388 73.9218C23.4555 73.6323 23.2728 73.3429 23.0904 73.054C22.2606 71.7391 21.4359 70.4324 20.5775 69.1628C16.7284 63.4696 13.9741 57.4903 11.1348 51.2823C10.2164 49.274 8.92656 47.2615 7.54393 45.2231C7.20699 44.7263 6.86413 44.2275 6.5202 43.7271C5.46102 42.1861 4.39171 40.6304 3.45405 39.0755C0.975091 34.9648 -0.708391 30.6657 1.1208 26.2534C2.99034 21.7438 7.45861 20.1451 12.2207 19.0608C13.2892 18.8175 14.3846 18.5978 15.4784 18.3786C15.6119 18.3518 15.7453 18.325 15.8787 18.2982C17.1079 18.0513 18.3326 17.8008 19.5296 17.5111C21.9269 16.931 24.1812 16.2008 26.0862 15.057C28.7089 13.4821 30.7963 11.155 32.9239 8.78292C33.2674 8.39993 33.612 8.01578 33.96 7.63343C36.4352 4.91434 39.0778 2.30152 42.7011 1.18886C50.0489 -1.06749 58.0953 0.313895 65.1117 3.17572C71.9597 5.96884 76.9776 11.5424 81.8313 16.9336L82.0412 17.1666C83.0016 18.2332 84.0202 19.2883 85.0528 20.3578C85.3802 20.6969 85.7089 21.0373 86.0376 21.3801C87.3986 22.7992 88.7536 24.2515 89.9721 25.7697C92.4079 28.8047 94.3312 32.142 94.6764 36.0842C95.0235 40.0476 93.2839 43.5013 91.2306 46.7976C90.7585 47.5556 90.271 48.304 89.7855 49.0495C88.1318 51.5886 86.5004 54.0933 85.5727 56.8239C84.6068 59.6667 84.3078 62.7228 84.0051 65.8167C83.9209 66.6768 83.8365 67.5399 83.7373 68.4021C83.2864 72.3234 82.5292 76.1935 79.9874 79.3559C74.7952 85.8158 66.4815 89.1906 58.4262 90.4375Z" fill="#F4F8EC" fill-opacity="0.2"/>
<path fill-rule="evenodd" clip-rule="evenodd" d="M462.604 85.4875C455.754 89.3492 447.524 90.6563 439.727 89.4493C431.805 88.2231 423.768 84.9212 418.792 78.7295C416.44 75.8039 415.704 72.1844 415.256 68.2878C415.161 67.4656 415.08 66.6293 414.997 65.7857C414.694 62.675 414.381 59.4656 413.374 56.5022C412.402 53.6405 410.676 50.9924 409.009 48.4356C408.534 47.7069 408.064 46.9856 407.618 46.2689C405.578 42.9942 404.003 39.785 404.32 36.1714C404.64 32.5123 406.427 29.3613 408.808 26.3957C409.997 24.9136 411.327 23.4876 412.684 22.0723C413.007 21.7352 413.332 21.3985 413.657 21.0617C414.693 19.9892 415.728 18.9166 416.702 17.8358L416.84 17.6818C421.747 12.2323 426.632 6.80753 433.266 4.10166C440.162 1.28878 447.958 -0.019148 455.005 2.14481C458.344 3.16998 460.827 5.58934 463.3 8.30659C463.638 8.67812 463.977 9.0556 464.317 9.43537C466.437 11.801 468.636 14.2553 471.399 15.9143C473.433 17.1356 475.802 17.8944 478.235 18.4831C479.453 18.7778 480.695 19.0317 481.924 19.2786C482.058 19.3055 482.191 19.3322 482.324 19.3589C483.42 19.5786 484.502 19.7956 485.557 20.0358C490.324 21.1213 494.297 22.637 495.955 26.6364C497.588 30.5744 496.142 34.4918 493.689 38.5591C492.769 40.086 491.723 41.6066 490.669 43.1415C490.321 43.6464 489.973 44.1529 489.628 44.6617C488.242 46.705 486.911 48.7764 485.956 50.8663C483.112 57.0831 480.39 62.9884 476.594 68.6027C475.726 69.8867 474.891 71.2096 474.061 72.5251C473.879 72.8128 473.698 73.1002 473.516 73.3868C472.503 74.9874 471.484 76.5658 470.396 78.0624C468.22 81.0559 465.783 83.6951 462.604 85.4875ZM439.574 90.4375C447.576 91.6762 456.035 90.3387 463.095 86.3586C466.451 84.4664 468.988 81.6991 471.205 78.6504C472.313 77.126 473.346 75.5244 474.361 73.9218C474.544 73.6323 474.727 73.3429 474.909 73.054C475.739 71.7391 476.564 70.4324 477.422 69.1628C481.271 63.4696 484.026 57.4903 486.865 51.2823C487.783 49.274 489.073 47.2615 490.456 45.2231C490.793 44.7263 491.136 44.2275 491.48 43.7271C492.539 42.1861 493.608 40.6304 494.546 39.0755C497.025 34.9648 498.708 30.6657 496.879 26.2534C495.009 21.7438 490.541 20.1451 485.779 19.0608C484.711 18.8175 483.615 18.5978 482.521 18.3786C482.388 18.3518 482.254 18.325 482.121 18.2982C480.892 18.0513 479.667 17.8008 478.47 17.5111C476.073 16.931 473.819 16.2008 471.914 15.057C469.291 13.4821 467.203 11.155 465.076 8.78292C464.732 8.39993 464.388 8.01578 464.04 7.63343C461.565 4.91434 458.922 2.30152 455.299 1.18886C447.951 -1.06749 439.904 0.313895 432.888 3.17572C426.04 5.96884 421.022 11.5424 416.168 16.9336L415.959 17.1666C414.998 18.2332 413.98 19.2883 412.947 20.3578C412.62 20.6969 412.291 21.0373 411.962 21.3801C410.601 22.7992 409.246 24.2515 408.028 25.7697C405.592 28.8047 403.669 32.142 403.323 36.0842C402.976 40.0476 404.716 43.5013 406.769 46.7976C407.241 47.5556 407.729 48.304 408.214 49.0495C409.868 51.5886 411.499 54.0933 412.427 56.8239C413.393 59.6667 413.692 62.7228 413.995 65.8167C414.079 66.6768 414.163 67.5399 414.262 68.4021C414.713 72.3234 415.471 76.1935 418.012 79.3559C423.205 85.8158 431.518 89.1906 439.574 90.4375Z" fill="#F4F8EC" fill-opacity="0.2"/>
<path d="M87 98C87 97.4477 86.5523 97 86 97C85.4477 97 85 97.4477 85 98C85 98.5523 85.4477 99 86 99C86.5523 99 87 98.5523 87 98Z" fill="#FFBD1A" fill-opacity="0.8"/>
<path d="M87 92C87 91.4477 86.5523 91 86 91C85.4477 91 85 91.4477 85 92C85 92.5523 85.4477 93 86 93C86.5523 93 87 92.5523 87 92Z" fill="#FFBD1A" fill-opacity="0.8"/>
<path d="M87 86C87 85.4477 86.5523 85 86 85C85.4477 85 85 85.4477 85 86C85 86.5523 85.4477 87 86 87C86.5523 87 87 86.5523 87 86Z" fill="#FFBD1A" fill-opacity="0.8"/>
<path d="M87 80C87 79.4477 86.5523 79 86 79C85.4477 79 85 79.4477 85 80C85 80.5523 85.4477 81 86 81C86.5523 81 87 80.5523 87 80Z" fill="#FFBD1A" fill-opacity="0.8"/>
<path d="M87 74C87 73.4477 86.5523 73 86 73C85.4477 73 85 73.4477 85 74C85 74.5523 85.4477 75 86 75C86.5523 75 87 74.5523 87 74Z" fill="#FFBD1A" fill-opacity="0.8"/>
<path d="M87 68C87 67.4477 86.5523 67 86 67C85.4477 67 85 67.4477 85 68C85 68.5523 85.4477 69 86 69C86.5523 69 87 68.5523 87 68Z" fill="#FFBD1A" fill-opacity="0.8"/>
<path d="M87 62C87 61.4477 86.5523 61 86 61C85.4477 61 85 61.4477 85 62C85 62.5523 85.4477 63 86 63C86.5523 63 87 62.5523 87 62Z" fill="#FFBD1A" fill-opacity="0.8"/>
<path d="M87 56C87 55.4477 86.5523 55 86 55C85.4477 55 85 55.4477 85 56C85 56.5523 85.4477 57 86 57C86.5523 57 87 56.5523 87 56Z" fill="#FFBD1A" fill-opacity="0.8"/>
<path d="M87 50C87 49.4477 86.5523 49 86 49C85.4477 49 85 49.4477 85 50C85 50.5523 85.4477 51 86 51C86.5523 51 87 50.5523 87 50Z" fill="#FFBD1A" fill-opacity="0.8"/>
<path d="M87 44C87 43.4477 86.5523 43 86 43C85.4477 43 85 43.4477 85 44C85 44.5523 85.4477 45 86 45C86.5523 45 87 44.5523 87 44Z" fill="#FFBD1A" fill-opacity="0.8"/>
<path d="M87 38C87 37.4477 86.5523 37 86 37C85.4477 37 85 37.4477 85 38C85 38.5523 85.4477 39 86 39C86.5523 39 87 38.5523 87 38Z" fill="#FFBD1A" fill-opacity="0.8"/>
<path d="M93 98C93 97.4477 92.5523 97 92 97C91.4477 97 91 97.4477 91 98C91 98.5523 91.4477 99 92 99C92.5523 99 93 98.5523 93 98Z" fill="#FFBD1A" fill-opacity="0.8"/>
<path d="M93 92C93 91.4477 92.5523 91 92 91C91.4477 91 91 91.4477 91 92C91 92.5523 91.4477 93 92 93C92.5523 93 93 92.5523 93 92Z" fill="#FFBD1A" fill-opacity="0.8"/>
<path d="M93 86C93 85.4477 92.5523 85 92 85C91.4477 85 91 85.4477 91 86C91 86.5523 91.4477 87 92 87C92.5523 87 93 86.5523 93 86Z" fill="#FFBD1A" fill-opacity="0.8"/>
<path d="M93 80C93 79.4477 92.5523 79 92 79C91.4477 79 91 79.4477 91 80C91 80.5523 91.4477 81 92 81C92.5523 81 93 80.5523 93 80Z" fill="#FFBD1A" fill-opacity="0.8"/>
<path d="M93 74C93 73.4477 92.5523 73 92 73C91.4477 73 91 73.4477 91 74C91 74.5523 91.4477 75 92 75C92.5523 75 93 74.5523 93 74Z" fill="#FFBD1A" fill-opacity="0.8"/>
<path d="M93 68C93 67.4477 92.5523 67 92 67C91.4477 67 91 67.4477 91 68C91 68.5523 91.4477 69 92 69C92.5523 69 93 68.5523 93 68Z" fill="#FFBD1A" fill-opacity="0.8"/>
<path d="M93 62C93 61.4477 92.5523 61 92 61C91.4477 61 91 61.4477 91 62C91 62.5523 91.4477 63 92 63C92.5523 63 93 62.5523 93 62Z" fill="#FFBD1A" fill-opacity="0.8"/>
<path d="M93 56C93 55.4477 92.5523 55 92 55C91.4477 55 91 55.4477 91 56C91 56.5523 91.4477 57 92 57C92.5523 57 93 56.5523 93 56Z" fill="#FFBD1A" fill-opacity="0.8"/>
<path d="M93 50C93 49.4477 92.5523 49 92 49C91.4477 49 91 49.4477 91 50C91 50.5523 91.4477 51 92 51C92.5523 51 93 50.5523 93 50Z" fill="#FFBD1A" fill-opacity="0.8"/>
<path d="M93 44C93 43.4477 92.5523 43 92 43C91.4477 43 91 43.4477 91 44C91 44.5523 91.4477 45 92 45C92.5523 45 93 44.5523 93 44Z" fill="#FFBD1A" fill-opacity="0.8"/>
<path d="M99 98C99 97.4477 98.5523 97 98 97C97.4477 97 97 97.4477 97 98C97 98.5523 97.4477 99 98 99C98.5523 99 99 98.5523 99 98Z" fill="#FFBD1A" fill-opacity="0.8"/>
<path d="M99 92C99 91.4477 98.5523 91 98 91C97.4477 91 97 91.4477 97 92C97 92.5523 97.4477 93 98 93C98.5523 93 99 92.5523 99 92Z" fill="#FFBD1A" fill-opacity="0.8"/>
<path d="M99 86C99 85.4477 98.5523 85 98 85C97.4477 85 97 85.4477 97 86C97 86.5523 97.4477 87 98 87C98.5523 87 99 86.5523 99 86Z" fill="#FFBD1A" fill-opacity="0.8"/>
<path d="M99 80C99 79.4477 98.5523 79 98 79C97.4477 79 97 79.4477 97 80C97 80.5523 97.4477 81 98 81C98.5523 81 99 80.5523 99 80Z" fill="#FFBD1A" fill-opacity="0.8"/>
<path d="M99 74C99 73.4477 98.5523 73 98 73C97.4477 73 97 73.4477 97 74C97 74.5523 97.4477 75 98 75C98.5523 75 99 74.5523 99 74Z" fill="#FFBD1A" fill-opacity="0.8"/>
<path d="M99 68C99 67.4477 98.5523 67 98 67C97.4477 67 97 67.4477 97 68C97 68.5523 97.4477 69 98 69C98.5523 69 99 68.5523 99 68Z" fill="#FFBD1A" fill-opacity="0.8"/>
<path d="M99 62C99 61.4477 98.5523 61 98 61C97.4477 61 97 61.4477 97 62C97 62.5523 97.4477 63 98 63C98.5523 63 99 62.5523 99 62Z" fill="#FFBD1A" fill-opacity="0.8"/>
<path d="M99 56C99 55.4477 98.5523 55 98 55C97.4477 55 97 55.4477 97 56C97 56.5523 97.4477 57 98 57C98.5523 57 99 56.5523 99 56Z" fill="#FFBD1A" fill-opacity="0.8"/>
<path d="M99 50C99 49.4477 98.5523 49 98 49C97.4477 49 97 49.4477 97 50C97 50.5523 97.4477 51 98 51C98.5523 51 99 50.5523 99 50Z" fill="#FFBD1A" fill-opacity="0.8"/>
<path d="M105 98C105 97.4477 104.552 97 104 97C103.448 97 103 97.4477 103 98C103 98.5523 103.448 99 104 99C104.552 99 105 98.5523 105 98Z" fill="#FFBD1A" fill-opacity="0.8"/>
<path d="M105 92C105 91.4477 104.552 91 104 91C103.448 91 103 91.4477 103 92C103 92.5523 103.448 93 104 93C104.552 93 105 92.5523 105 92Z" fill="#FFBD1A" fill-opacity="0.8"/>
<path d="M105 86C105 85.4477 104.552 85 104 85C103.448 85 103 85.4477 103 86C103 86.5523 103.448 87 104 87C104.552 87 105 86.5523 105 86Z" fill="#FFBD1A" fill-opacity="0.8"/>
<path d="M105 80C105 79.4477 104.552 79 104 79C103.448 79 103 79.4477 103 80C103 80.5523 103.448 81 104 81C104.552 81 105 80.5523 105 80Z" fill="#FFBD1A" fill-opacity="0.8"/>
<path d="M105 74C105 73.4477 104.552 73 104 73C103.448 73 103 73.4477 103 74C103 74.5523 103.448 75 104 75C104.552 75 105 74.5523 105 74Z" fill="#FFBD1A" fill-opacity="0.8"/>
<path d="M105 68C105 67.4477 104.552 67 104 67C103.448 67 103 67.4477 103 68C103 68.5523 103.448 69 104 69C104.552 69 105 68.5523 105 68Z" fill="#FFBD1A" fill-opacity="0.8"/>
<path d="M105 62C105 61.4477 104.552 61 104 61C103.448 61 103 61.4477 103 62C103 62.5523 103.448 63 104 63C104.552 63 105 62.5523 105 62Z" fill="#FFBD1A" fill-opacity="0.8"/>
<path d="M105 56C105 55.4477 104.552 55 104 55C103.448 55 103 55.4477 103 56C103 56.5523 103.448 57 104 57C104.552 57 105 56.5523 105 56Z" fill="#FFBD1A" fill-opacity="0.8"/>
<path d="M111 98C111 97.4477 110.552 97 110 97C109.448 97 109 97.4477 109 98C109 98.5523 109.448 99 110 99C110.552 99 111 98.5523 111 98Z" fill="#FFBD1A" fill-opacity="0.8"/>
<path d="M111 92C111 91.4477 110.552 91 110 91C109.448 91 109 91.4477 109 92C109 92.5523 109.448 93 110 93C110.552 93 111 92.5523 111 92Z" fill="#FFBD1A" fill-opacity="0.8"/>
<path d="M111 86C111 85.4477 110.552 85 110 85C109.448 85 109 85.4477 109 86C109 86.5523 109.448 87 110 87C110.552 87 111 86.5523 111 86Z" fill="#FFBD1A" fill-opacity="0.8"/>
<path d="M111 80C111 79.4477 110.552 79 110 79C109.448 79 109 79.4477 109 80C109 80.5523 109.448 81 110 81C110.552 81 111 80.5523 111 80Z" fill="#FFBD1A" fill-opacity="0.8"/>
<path d="M111 74C111 73.4477 110.552 73 110 73C109.448 73 109 73.4477 109 74C109 74.5523 109.448 75 110 75C110.552 75 111 74.5523 111 74Z" fill="#FFBD1A" fill-opacity="0.8"/>
<path d="M111 68C111 67.4477 110.552 67 110 67C109.448 67 109 67.4477 109 68C109 68.5523 109.448 69 110 69C110.552 69 111 68.5523 111 68Z" fill="#FFBD1A" fill-opacity="0.8"/>
<path d="M111 62C111 61.4477 110.552 61 110 61C109.448 61 109 61.4477 109 62C109 62.5523 109.448 63 110 63C110.552 63 111 62.5523 111 62Z" fill="#FFBD1A" fill-opacity="0.8"/>
<path d="M411 98C411 97.4477 411.448 97 412 97C412.552 97 413 97.4477 413 98C413 98.5523 412.552 99 412 99C411.448 99 411 98.5523 411 98Z" fill="#FFBD1A" fill-opacity="0.8"/>
<path d="M411 92C411 91.4477 411.448 91 412 91C412.552 91 413 91.4477 413 92C413 92.5523 412.552 93 412 93C411.448 93 411 92.5523 411 92Z" fill="#FFBD1A" fill-opacity="0.8"/>
<path d="M411 86C411 85.4477 411.448 85 412 85C412.552 85 413 85.4477 413 86C413 86.5523 412.552 87 412 87C411.448 87 411 86.5523 411 86Z" fill="#FFBD1A" fill-opacity="0.8"/>
<path d="M411 80C411 79.4477 411.448 79 412 79C412.552 79 413 79.4477 413 80C413 80.5523 412.552 81 412 81C411.448 81 411 80.5523 411 80Z" fill="#FFBD1A" fill-opacity="0.8"/>
<path d="M411 74C411 73.4477 411.448 73 412 73C412.552 73 413 73.4477 413 74C413 74.5523 412.552 75 412 75C411.448 75 411 74.5523 411 74Z" fill="#FFBD1A" fill-opacity="0.8"/>
<path d="M411 68C411 67.4477 411.448 67 412 67C412.552 67 413 67.4477 413 68C413 68.5523 412.552 69 412 69C411.448 69 411 68.5523 411 68Z" fill="#FFBD1A" fill-opacity="0.8"/>
<path d="M411 62C411 61.4477 411.448 61 412 61C412.552 61 413 61.4477 413 62C413 62.5523 412.552 63 412 63C411.448 63 411 62.5523 411 62Z" fill="#FFBD1A" fill-opacity="0.8"/>
<path d="M411 56C411 55.4477 411.448 55 412 55C412.552 55 413 55.4477 413 56C413 56.5523 412.552 57 412 57C411.448 57 411 56.5523 411 56Z" fill="#FFBD1A" fill-opacity="0.8"/>
<path d="M411 50C411 49.4477 411.448 49 412 49C412.552 49 413 49.4477 413 50C413 50.5523 412.552 51 412 51C411.448 51 411 50.5523 411 50Z" fill="#FFBD1A" fill-opacity="0.8"/>
<path d="M411 44C411 43.4477 411.448 43 412 43C412.552 43 413 43.4477 413 44C413 44.5523 412.552 45 412 45C411.448 45 411 44.5523 411 44Z" fill="#FFBD1A" fill-opacity="0.8"/>
<path d="M411 38C411 37.4477 411.448 37 412 37C412.552 37 413 37.4477 413 38C413 38.5523 412.552 39 412 39C411.448 39 411 38.5523 411 38Z" fill="#FFBD1A" fill-opacity="0.8"/>
<path d="M405 98C405 97.4477 405.448 97 406 97C406.552 97 407 97.4477 407 98C407 98.5523 406.552 99 406 99C405.448 99 405 98.5523 405 98Z" fill="#FFBD1A" fill-opacity="0.8"/>
<path d="M405 92C405 91.4477 405.448 91 406 91C406.552 91 407 91.4477 407 92C407 92.5523 406.552 93 406 93C405.448 93 405 92.5523 405 92Z" fill="#FFBD1A" fill-opacity="0.8"/>
<path d="M405 86C405 85.4477 405.448 85 406 85C406.552 85 407 85.4477 407 86C407 86.5523 406.552 87 406 87C405.448 87 405 86.5523 405 86Z" fill="#FFBD1A" fill-opacity="0.8"/>
<path d="M405 80C405 79.4477 405.448 79 406 79C406.552 79 407 79.4477 407 80C407 80.5523 406.552 81 406 81C405.448 81 405 80.5523 405 80Z" fill="#FFBD1A" fill-opacity="0.8"/>
<path d="M405 74C405 73.4477 405.448 73 406 73C406.552 73 407 73.4477 407 74C407 74.5523 406.552 75 406 75C405.448 75 405 74.5523 405 74Z" fill="#FFBD1A" fill-opacity="0.8"/>
<path d="M405 68C405 67.4477 405.448 67 406 67C406.552 67 407 67.4477 407 68C407 68.5523 406.552 69 406 69C405.448 69 405 68.5523 405 68Z" fill="#FFBD1A" fill-opacity="0.8"/>
<path d="M405 62C405 61.4477 405.448 61 406 61C406.552 61 407 61.4477 407 62C407 62.5523 406.552 63 406 63C405.448 63 405 62.5523 405 62Z" fill="#FFBD1A" fill-opacity="0.8"/>
<path d="M405 56C405 55.4477 405.448 55 406 55C406.552 55 407 55.4477 407 56C407 56.5523 406.552 57 406 57C405.448 57 405 56.5523 405 56Z" fill="#FFBD1A" fill-opacity="0.8"/>
<path d="M405 50C405 49.4477 405.448 49 406 49C406.552 49 407 49.4477 407 50C407 50.5523 406.552 51 406 51C405.448 51 405 50.5523 405 50Z" fill="#FFBD1A" fill-opacity="0.8"/>
<path d="M405 44C405 43.4477 405.448 43 406 43C406.552 43 407 43.4477 407 44C407 44.5523 406.552 45 406 45C405.448 45 405 44.5523 405 44Z" fill="#FFBD1A" fill-opacity="0.8"/>
<path d="M399 98C399 97.4477 399.448 97 400 97C400.552 97 401 97.4477 401 98C401 98.5523 400.552 99 400 99C399.448 99 399 98.5523 399 98Z" fill="#FFBD1A" fill-opacity="0.8"/>
<path d="M399 92C399 91.4477 399.448 91 400 91C400.552 91 401 91.4477 401 92C401 92.5523 400.552 93 400 93C399.448 93 399 92.5523 399 92Z" fill="#FFBD1A" fill-opacity="0.8"/>
<path d="M399 86C399 85.4477 399.448 85 400 85C400.552 85 401 85.4477 401 86C401 86.5523 400.552 87 400 87C399.448 87 399 86.5523 399 86Z" fill="#FFBD1A" fill-opacity="0.8"/>
<path d="M399 80C399 79.4477 399.448 79 400 79C400.552 79 401 79.4477 401 80C401 80.5523 400.552 81 400 81C399.448 81 399 80.5523 399 80Z" fill="#FFBD1A" fill-opacity="0.8"/>
<path d="M399 74C399 73.4477 399.448 73 400 73C400.552 73 401 73.4477 401 74C401 74.5523 400.552 75 400 75C399.448 75 399 74.5523 399 74Z" fill="#FFBD1A" fill-opacity="0.8"/>
<path d="M399 68C399 67.4477 399.448 67 400 67C400.552 67 401 67.4477 401 68C401 68.5523 400.552 69 400 69C399.448 69 399 68.5523 399 68Z" fill="#FFBD1A" fill-opacity="0.8"/>
<path d="M399 62C399 61.4477 399.448 61 400 61C400.552 61 401 61.4477 401 62C401 62.5523 400.552 63 400 63C399.448 63 399 62.5523 399 62Z" fill="#FFBD1A" fill-opacity="0.8"/>
<path d="M399 56C399 55.4477 399.448 55 400 55C400.552 55 401 55.4477 401 56C401 56.5523 400.552 57 400 57C399.448 57 399 56.5523 399 56Z" fill="#FFBD1A" fill-opacity="0.8"/>
<path d="M399 50C399 49.4477 399.448 49 400 49C400.552 49 401 49.4477 401 50C401 50.5523 400.552 51 400 51C399.448 51 399 50.5523 399 50Z" fill="#FFBD1A" fill-opacity="0.8"/>
<path d="M393 98C393 97.4477 393.448 97 394 97C394.552 97 395 97.4477 395 98C395 98.5523 394.552 99 394 99C393.448 99 393 98.5523 393 98Z" fill="#FFBD1A" fill-opacity="0.8"/>
<path d="M393 92C393 91.4477 393.448 91 394 91C394.552 91 395 91.4477 395 92C395 92.5523 394.552 93 394 93C393.448 93 393 92.5523 393 92Z" fill="#FFBD1A" fill-opacity="0.8"/>
<path d="M393 86C393 85.4477 393.448 85 394 85C394.552 85 395 85.4477 395 86C395 86.5523 394.552 87 394 87C393.448 87 393 86.5523 393 86Z" fill="#FFBD1A" fill-opacity="0.8"/>
<path d="M393 80C393 79.4477 393.448 79 394 79C394.552 79 395 79.4477 395 80C395 80.5523 394.552 81 394 81C393.448 81 393 80.5523 393 80Z" fill="#FFBD1A" fill-opacity="0.8"/>
<path d="M393 74C393 73.4477 393.448 73 394 73C394.552 73 395 73.4477 395 74C395 74.5523 394.552 75 394 75C393.448 75 393 74.5523 393 74Z" fill="#FFBD1A" fill-opacity="0.8"/>
<path d="M393 68C393 67.4477 393.448 67 394 67C394.552 67 395 67.4477 395 68C395 68.5523 394.552 69 394 69C393.448 69 393 68.5523 393 68Z" fill="#FFBD1A" fill-opacity="0.8"/>
<path d="M393 62C393 61.4477 393.448 61 394 61C394.552 61 395 61.4477 395 62C395 62.5523 394.552 63 394 63C393.448 63 393 62.5523 393 62Z" fill="#FFBD1A" fill-opacity="0.8"/>
<path d="M393 56C393 55.4477 393.448 55 394 55C394.552 55 395 55.4477 395 56C395 56.5523 394.552 57 394 57C393.448 57 393 56.5523 393 56Z" fill="#FFBD1A" fill-opacity="0.8"/>
<path d="M387 98C387 97.4477 387.448 97 388 97C388.552 97 389 97.4477 389 98C389 98.5523 388.552 99 388 99C387.448 99 387 98.5523 387 98Z" fill="#FFBD1A" fill-opacity="0.8"/>
<path d="M387 92C387 91.4477 387.448 91 388 91C388.552 91 389 91.4477 389 92C389 92.5523 388.552 93 388 93C387.448 93 387 92.5523 387 92Z" fill="#FFBD1A" fill-opacity="0.8"/>
<path d="M387 86C387 85.4477 387.448 85 388 85C388.552 85 389 85.4477 389 86C389 86.5523 388.552 87 388 87C387.448 87 387 86.5523 387 86Z" fill="#FFBD1A" fill-opacity="0.8"/>
<path d="M387 80C387 79.4477 387.448 79 388 79C388.552 79 389 79.4477 389 80C389 80.5523 388.552 81 388 81C387.448 81 387 80.5523 387 80Z" fill="#FFBD1A" fill-opacity="0.8"/>
<path d="M387 74C387 73.4477 387.448 73 388 73C388.552 73 389 73.4477 389 74C389 74.5523 388.552 75 388 75C387.448 75 387 74.5523 387 74Z" fill="#FFBD1A" fill-opacity="0.8"/>
<path d="M387 68C387 67.4477 387.448 67 388 67C388.552 67 389 67.4477 389 68C389 68.5523 388.552 69 388 69C387.448 69 387 68.5523 387 68Z" fill="#FFBD1A" fill-opacity="0.8"/>
<path d="M387 62C387 61.4477 387.448 61 388 61C388.552 61 389 61.4477 389 62C389 62.5523 388.552 63 388 63C387.448 63 387 62.5523 387 62Z" fill="#FFBD1A" fill-opacity="0.8"/>
</svg>
