<svg width="80" height="74" viewBox="0 0 80 74" fill="none" xmlns="http://www.w3.org/2000/svg">
<g clip-path="url(#clip0_2761_6750)">
<path d="M55.86 70.5537L59.0674 62.3926H45.06L48.2674 70.5537C48.9207 72.2138 50.3868 73.3226 52.0233 73.3335C52.0495 73.3335 52.0757 73.3335 52.1041 73.3335C53.7406 73.3226 55.2089 72.2116 55.86 70.5537Z" fill="#720D27"/>
<path d="M38.4486 70.5537L41.656 62.3926H27.6486L30.8561 70.5537C31.5093 72.2138 32.9754 73.3226 34.6119 73.3335C34.6381 73.3335 34.6643 73.3335 34.6927 73.3335C36.3292 73.3226 37.7975 72.2116 38.4486 70.5537Z" fill="#720D27"/>
<path d="M11.972 45.3389C11.9785 45.2239 11.9829 45.1045 11.9894 44.9852C12.0135 44.6249 12.0462 44.2474 12.0965 43.8503C12.1293 43.5855 12.1708 43.3143 12.2188 43.0344C12.2385 42.9259 12.2582 42.8174 12.28 42.7089C12.2953 42.6308 12.3106 42.5505 12.3259 42.4724V42.4702C12.339 42.4007 12.3543 42.3291 12.3718 42.2597C12.3762 42.2315 12.3827 42.2055 12.3893 42.1772C12.3915 42.1642 12.3958 42.1512 12.398 42.1382C12.4111 42.0731 12.4264 42.008 12.4439 41.9429C12.4483 41.9212 12.4548 41.9017 12.4592 41.88L12.4985 41.7237C12.5138 41.6543 12.5313 41.587 12.551 41.5198C12.5815 41.3982 12.6121 41.2789 12.6471 41.1595C12.6711 41.0727 12.6973 40.9881 12.7236 40.9013C12.8284 40.5476 12.9464 40.2026 13.0731 39.8641C13.0841 39.8359 13.095 39.8055 13.1059 39.7773C13.1081 39.7708 13.1103 39.7643 13.1125 39.7578C13.1278 39.7165 13.1452 39.6731 13.1605 39.6319C13.1671 39.6102 13.1758 39.5907 13.1846 39.569C13.2042 39.5191 13.2239 39.4692 13.2436 39.4192C13.2632 39.3672 13.2873 39.3173 13.3091 39.2652C13.3222 39.237 13.3331 39.2066 13.3463 39.1784C13.3921 39.0655 13.4402 38.9549 13.4905 38.842C13.497 38.8225 13.5058 38.803 13.5167 38.7834C13.5254 38.7639 13.5342 38.7444 13.5451 38.7249C13.5647 38.6771 13.5866 38.6272 13.6106 38.5795C13.6325 38.5317 13.6543 38.4862 13.674 38.4384C13.7002 38.3842 13.7264 38.3321 13.7526 38.28C13.7789 38.2279 13.8051 38.1737 13.8313 38.1216C13.8488 38.0891 13.8641 38.0565 13.8794 38.0261C13.9733 37.8352 14.0738 37.6464 14.1787 37.4598C14.2311 37.3621 14.2858 37.2645 14.3426 37.169C14.3644 37.1256 14.3885 37.0844 14.4147 37.0432C14.4737 36.9412 14.5327 36.8413 14.5938 36.7437C14.6179 36.7003 14.6441 36.6591 14.6703 36.6178C14.7315 36.518 14.7927 36.4204 14.8582 36.3206C15.0658 35.9929 15.2843 35.6739 15.5115 35.3614C15.529 35.3376 15.5464 35.3115 15.5639 35.2877C15.6033 35.2334 15.6448 35.1792 15.6863 35.1249C15.8086 34.9578 15.9354 34.7929 16.0643 34.6302C16.108 34.5738 16.1517 34.5152 16.1975 34.4587C16.2369 34.411 16.2784 34.3611 16.3177 34.3112C16.3658 34.2504 16.416 34.1918 16.4663 34.1311C16.5122 34.0747 16.5602 34.0182 16.6083 33.9618C16.6127 33.9553 16.6149 33.951 16.6192 33.9466C16.6607 33.8989 16.7001 33.8512 16.7394 33.8034C16.7503 33.7926 16.7591 33.7817 16.7678 33.7709C16.8071 33.7253 16.8465 33.6797 16.888 33.6342C16.9929 33.5126 17.0977 33.3933 17.2048 33.274C17.2965 33.1741 17.3883 33.0743 17.4801 32.9745C17.6046 32.84 17.7292 32.7076 17.8581 32.5752C17.9018 32.5253 17.9477 32.4776 17.9935 32.4298C18.0066 32.419 18.0176 32.4081 18.0285 32.3951C18.0656 32.3582 18.1028 32.3192 18.1399 32.2823C18.673 31.7376 19.228 31.2082 19.7983 30.6895L19.8004 30.6874C19.8004 30.6874 19.8004 30.6874 19.8004 30.6852C25.1906 25.7768 31.9725 21.7472 35.4443 14.9227C35.4618 14.8902 35.4771 14.8555 35.4946 14.8229C35.5492 14.7209 35.5994 14.6168 35.6475 14.5126C35.6606 14.4887 35.6715 14.467 35.6825 14.4432C35.7371 14.3282 35.7917 14.211 35.8441 14.0938C35.8507 14.083 35.8572 14.0699 35.8616 14.0591C35.9009 13.9701 35.9403 13.8811 35.9774 13.7922V13.79C36.0277 13.6728 36.0779 13.5578 36.126 13.4406C36.1697 13.3343 36.2134 13.228 36.2549 13.1195C36.2615 13.1065 36.2658 13.0935 36.2724 13.0783C36.3073 12.9893 36.3423 12.8982 36.3751 12.807C36.3904 12.768 36.4035 12.7311 36.4166 12.6942C36.4494 12.6139 36.4778 12.5314 36.504 12.4512C36.5062 12.4468 36.5084 12.4425 36.5084 12.436C36.5586 12.2993 36.6045 12.1604 36.6482 12.0215C36.7137 11.8262 36.7749 11.6287 36.8339 11.4291C36.8623 11.3358 36.8907 11.2403 36.9169 11.1448C37.4566 9.20708 37.9788 6.24294 37.4653 2.26976C37.3845 1.6318 37.6073 1.03072 38.0203 0.611925C38.0574 0.572866 38.0946 0.535977 38.1361 0.501258C38.2148 0.431819 38.3021 0.366721 38.3917 0.310302C38.4835 0.253884 38.5796 0.203975 38.6801 0.162746C38.7806 0.119347 38.8855 0.0867978 38.9948 0.0629284C39.0494 0.0477388 39.104 0.039059 39.1608 0.0303792C39.2526 0.0173596 39.3443 0.0108497 39.4383 0.0108497C39.6022 0.00867979 39.766 0.00867978 39.9277 0.00650984H39.9299C39.9867 0.00650984 40.0457 0.00650984 40.1025 0.00433989C40.1986 0.00433989 40.2926 0.00433989 40.3865 0.00216995H40.5351C40.6203 0.00216995 40.7034 0 40.7886 0C40.7995 0 40.8104 0.00216995 40.8191 0.00216995C40.8301 0.00216995 40.841 0.00216995 40.8519 0.00433989C40.8585 0.00433989 40.8628 0.00433989 40.8694 0.00650984C41.1753 0.0238694 41.4593 0.112837 41.7128 0.253884C42.2415 0.551166 42.6239 1.08063 42.7135 1.71643V1.73379C43.5372 7.61868 45.7264 11.6396 47.0876 13.7509C50.5135 19.0717 55.3312 22.37 57.0071 23.5092C58.6916 24.6549 59.9982 25.3363 63.3738 27.6625C66.625 29.8997 68.2527 31.0194 69.3408 32.0176C70.2541 32.8573 71.0975 33.8794 71.8316 35.0381C72.1768 35.5828 72.498 36.1556 72.7907 36.7524C72.8257 36.8175 72.8563 36.8891 72.8913 36.9564C72.8913 36.9585 72.8934 36.9585 72.8934 36.9607C72.9284 37.0366 72.9634 37.1104 72.9983 37.1842C73.0355 37.2623 73.0704 37.3404 73.1032 37.4186C73.1731 37.5726 73.2408 37.731 73.3042 37.8894C73.3479 37.9936 73.3916 38.0999 73.4309 38.2062C73.4593 38.2735 73.4855 38.3408 73.5096 38.4081C73.5358 38.4753 73.562 38.5426 73.5861 38.612C73.6035 38.6554 73.6188 38.6988 73.6341 38.7444V38.7466C73.6407 38.7617 73.645 38.7748 73.6494 38.79C73.6734 38.8572 73.6975 38.9267 73.7215 38.9961C73.7368 39.0373 73.7499 39.0807 73.763 39.1241C73.8002 39.2305 73.8329 39.3368 73.8679 39.4431C73.916 39.5885 73.9597 39.7339 74.0012 39.8814C74.034 39.9899 74.0645 40.0963 74.0929 40.2048C74.0973 40.2156 74.0995 40.2286 74.1039 40.2395C74.1148 40.2764 74.1235 40.3154 74.1323 40.3523C74.165 40.4738 74.1956 40.5954 74.224 40.719C74.2459 40.8058 74.2656 40.8926 74.2852 40.9794C74.3202 41.127 74.3529 41.2745 74.3814 41.4243C74.4141 41.5827 74.4447 41.7411 74.4731 41.8995C74.4753 41.9082 74.4753 41.9169 74.4775 41.9255C74.5015 42.0579 74.5234 42.1903 74.5409 42.3226C74.554 42.3964 74.5649 42.4702 74.5736 42.5461C74.5955 42.6807 74.613 42.8152 74.6282 42.9519C74.6282 42.9519 74.6282 42.9541 74.6282 42.9563C74.6392 43.0496 74.6501 43.1407 74.661 43.234C74.6698 43.3143 74.6763 43.3968 74.6851 43.477V43.5009C74.7003 43.6745 74.7135 43.8481 74.7244 44.0217C74.7331 44.1801 74.7419 44.3385 74.7462 44.4969C74.7572 44.7617 74.7593 45.0307 74.755 45.2976C74.7572 45.302 74.7572 45.3085 74.755 45.3128V45.4148C74.755 45.4777 74.7506 45.5407 74.7484 45.6079C74.7506 45.6144 74.7506 45.6209 74.7484 45.6296V45.66C74.7419 45.8336 74.7353 46.0094 74.7222 46.1851C74.7156 46.2763 74.7091 46.3674 74.7025 46.4585C74.7025 46.4629 74.7003 46.4694 74.7003 46.4737C74.6938 46.5562 74.6872 46.6387 74.6785 46.7211C74.6719 46.8079 74.6632 46.8925 74.6545 46.9793C74.6414 47.0922 74.6282 47.205 74.613 47.3157C74.5955 47.4611 74.5736 47.6043 74.5518 47.7497C74.5321 47.8647 74.5124 47.9732 74.4928 48.086C74.4622 48.2531 74.4294 48.418 74.3945 48.5808C74.3639 48.724 74.3311 48.8672 74.2961 49.0082C74.2852 49.0603 74.2721 49.1124 74.2568 49.1645C74.235 49.2556 74.2109 49.3446 74.1869 49.4335V49.4357C74.1257 49.6527 74.0624 49.8675 73.9946 50.078C73.94 50.2494 73.881 50.4187 73.8198 50.5858C73.7936 50.6617 73.7652 50.7333 73.7368 50.8071C73.7215 50.8484 73.7062 50.8874 73.6909 50.9265C73.6538 51.0241 73.6145 51.1218 73.5729 51.2172C73.479 51.4451 73.3807 51.6686 73.2736 51.8878C73.1338 52.1807 72.9852 52.465 72.8301 52.7427C72.7907 52.8143 72.7492 52.8881 72.7055 52.9619C72.5766 53.1832 72.4433 53.4002 72.3057 53.6107C72.2664 53.6715 72.227 53.73 72.1877 53.7886C72.1309 53.8754 72.0741 53.9601 72.0151 54.0425C71.9212 54.1749 71.8272 54.3051 71.7311 54.4353C71.2744 55.0515 70.7785 55.6244 70.2585 56.1626C70.1798 56.2428 70.099 56.3231 70.0181 56.4034C69.9154 56.5054 69.8127 56.6052 69.7079 56.705C69.603 56.8049 69.4981 56.9025 69.3932 56.998C69.2905 57.0913 69.1879 57.1824 69.0852 57.2714C68.9541 57.3886 68.823 57.4992 68.6897 57.6099C68.6023 57.6837 68.5127 57.7553 68.4231 57.8269C67.8747 58.2696 67.3154 58.6797 66.7517 59.0573C66.649 59.1267 66.5441 59.1961 66.4414 59.2634C66.2645 59.3784 66.0897 59.4891 65.9127 59.5997C65.751 59.7017 65.5871 59.7994 65.4255 59.8949C64.1844 60.6348 62.9696 61.2359 61.8903 61.7328C61.7942 61.7784 61.698 61.8218 61.6019 61.8652C61.4752 61.9216 61.3528 61.978 61.2305 62.0323C60.9857 62.1408 60.7476 62.2449 60.5226 62.3447C60.3521 62.4163 60.1904 62.4879 60.0331 62.5552C59.8715 62.6246 59.7098 62.6941 59.5503 62.7592C59.2313 62.8916 58.9145 63.0152 58.5998 63.1324C57.8111 63.4232 57.0355 63.6706 56.262 63.8789C55.9517 63.9635 55.6437 64.0395 55.3356 64.1111C55.1805 64.148 55.0254 64.1827 54.8702 64.2152C54.56 64.2825 54.2497 64.3432 53.9351 64.3997C52.528 64.6535 51.0838 64.8141 49.5303 64.927C49.3818 64.9378 49.2332 64.9487 49.0824 64.9573C48.4816 64.9964 47.8654 65.0311 47.2253 65.0615C46.9063 65.0767 46.5829 65.0919 46.253 65.1049C46.0935 65.1114 45.9362 65.1179 45.7745 65.1244H45.7374C45.5145 65.1331 45.2873 65.1418 45.0579 65.1505C45.0207 65.1526 44.9836 65.1548 44.9464 65.1548C44.7454 65.1613 44.54 65.17 44.3325 65.1765C44.2669 65.1808 44.2014 65.183 44.1358 65.1852C44.0441 65.1874 43.9523 65.1917 43.8583 65.1939C43.4563 65.2091 43.0609 65.2221 42.6741 65.2373C42.484 65.2438 42.2961 65.2503 42.1082 65.2568C41.136 65.2893 40.2161 65.3176 39.34 65.3371C39.2548 65.3393 39.1696 65.3414 39.0865 65.3436C39.0363 65.3458 38.9882 65.3458 38.938 65.3479C38.8549 65.3501 38.7719 65.3501 38.6911 65.3523C38.6583 65.3523 38.6233 65.3544 38.5884 65.3544C38.3961 65.3566 38.2082 65.3588 38.0203 65.3609H37.9198C37.7865 65.3609 37.6511 65.3631 37.52 65.3631C37.4107 65.3653 37.3015 65.3653 37.1922 65.3653H37.0939C36.9235 65.3653 36.7574 65.3653 36.5914 65.3631H36.528C36.2615 65.361 35.9971 65.3566 35.7393 65.3501C35.6759 65.3479 35.6125 65.3479 35.5514 65.3458C35.3809 65.3414 35.2127 65.3349 35.0445 65.3284C34.8762 65.3219 34.7102 65.3154 34.5463 65.3067C34.3671 65.298 34.188 65.2872 34.011 65.2763C33.6155 65.2525 33.2288 65.2199 32.8486 65.183C32.6651 65.1657 32.4816 65.1461 32.3002 65.1223C32.0686 65.0962 31.8392 65.0658 31.6098 65.0333C31.3673 64.9986 31.1269 64.9595 30.8866 64.9204C30.8844 64.9183 30.8822 64.9183 30.8801 64.9183C30.7599 64.8966 30.6397 64.8749 30.5195 64.851C29.7439 64.7056 28.9814 64.519 28.221 64.289C28.0987 64.2521 27.9763 64.2131 27.854 64.174C27.7972 64.1566 27.7404 64.1371 27.6836 64.1176C27.6224 64.098 27.5612 64.0785 27.5 64.0568C27.3252 63.9961 27.1483 63.9353 26.9735 63.8702C26.6195 63.74 26.2656 63.5968 25.9072 63.4449C25.6691 63.3429 25.4287 63.2366 25.1862 63.1237C23.8032 62.4836 19.7305 60.4439 16.4641 56.8699C16.1386 56.5119 15.8196 56.1387 15.5115 55.7503C15.3585 55.5571 15.2078 55.3575 15.0592 55.1557C14.9849 55.0559 14.9128 54.9539 14.8407 54.8497C14.6266 54.5416 14.4169 54.2248 14.218 53.8971C14.1525 53.7886 14.0869 53.678 14.0236 53.5673C13.8313 53.2353 13.65 52.8946 13.4795 52.5452C12.9093 51.3778 12.4679 50.1127 12.2079 48.7457C12.1205 48.29 11.9829 47.448 11.961 46.298C11.961 46.2025 11.9588 46.1027 11.9588 46.0029C11.9588 45.7902 11.9632 45.5689 11.972 45.3389ZM62.3011 45.0155C62.3054 44.983 62.3098 44.9526 62.3142 44.9201C62.312 44.9418 62.3076 44.9635 62.3032 44.9852C62.3032 44.9938 62.3032 45.0047 62.3011 45.0155ZM60.7891 42.9714C60.7869 43.0365 60.7826 43.0995 60.7782 43.1646C60.7847 43.0843 60.7891 43.0062 60.7935 42.9259C60.7935 42.9411 60.7913 42.9563 60.7891 42.9714ZM57.0333 51.9312C57.0005 51.9811 56.9655 52.031 56.9284 52.0809C56.9634 52.0331 56.9983 51.9854 57.0311 51.9377C57.0333 51.9355 57.0333 51.9333 57.0333 51.9312ZM60.87 49.7265H60.8721C60.8765 49.7178 60.8809 49.7091 60.8852 49.6983C60.8918 49.6831 60.8984 49.6679 60.9049 49.6527H60.9027C60.8918 49.6766 60.8809 49.7026 60.87 49.7265ZM56.8541 52.1872C56.8279 52.2241 56.8017 52.261 56.7755 52.2957H56.7776C56.8017 52.261 56.8279 52.2241 56.8541 52.1872ZM42.4797 6.57928C42.484 6.60532 42.4884 6.63136 42.495 6.65523C42.5037 6.69645 42.5124 6.73768 42.5234 6.77891C42.5081 6.71381 42.4928 6.64655 42.4797 6.57928ZM44.4155 12.6768H44.4133C44.4373 12.7332 44.4636 12.7897 44.4876 12.8461C44.5116 12.9025 44.5357 12.9567 44.5619 13.011C44.6121 13.1217 44.6624 13.2302 44.7126 13.3365C44.6121 13.1238 44.5138 12.9025 44.4155 12.6768ZM46.9522 63.7964C47.0068 63.7704 47.0636 63.7422 47.1204 63.7118C47.2078 63.6706 47.2952 63.625 47.3848 63.5794C47.3957 63.5729 47.4066 63.5686 47.4175 63.5621C47.4066 63.5686 47.3957 63.5729 47.3848 63.5773C47.2952 63.6228 47.2056 63.6684 47.1204 63.7118C47.1007 63.7226 47.0811 63.7313 47.0614 63.74C46.9565 63.7921 46.8538 63.842 46.7555 63.8897C46.6222 63.8094 46.4868 63.727 46.3513 63.6424C46.4868 63.7248 46.6222 63.8094 46.7555 63.8919C46.8211 63.8615 46.8866 63.829 46.9522 63.7964Z" fill="url(#paint0_linear_2761_6750)"/>
<path d="M61.9602 39.35C61.8553 39.0223 61.733 38.6881 61.5953 38.3496C61.733 38.6903 61.8531 39.0223 61.9602 39.35Z" fill="#B52E47"/>
<path d="M61.0229 37.0911C60.9159 36.8763 60.8045 36.6571 60.6843 36.4336C60.8045 36.6549 60.9159 36.8763 61.0229 37.0911Z" fill="#B52E47"/>
<path d="M60.4897 45.0156C60.4766 45.0699 60.4635 45.1241 60.4504 45.1784C60.4635 45.1328 60.4745 45.0829 60.4854 45.0373L60.4897 45.0156Z" fill="#B52E47"/>
<path d="M60.4395 35.9831C60.1445 35.4515 59.8146 34.896 59.4541 34.3145C59.8146 34.8938 60.1423 35.4493 60.4395 35.9831Z" fill="#B52E47"/>
<path d="M59.4541 34.3107C59.299 34.0611 59.1373 33.8051 58.9712 33.5469C59.1373 33.8073 59.2968 34.0611 59.4541 34.3107Z" fill="#B52E47"/>
<path d="M57.324 55.3672C57.2388 55.4735 57.1514 55.5798 57.0662 55.6818C57.1208 55.6167 57.1732 55.5516 57.2278 55.4865C57.2606 55.4475 57.2912 55.4062 57.324 55.3672Z" fill="#B52E47"/>
<path d="M46.6572 62.8867C46.4934 63.0061 46.3339 63.1211 46.1787 63.2317C46.3339 63.1232 46.4912 63.0061 46.6572 62.8867Z" fill="#B52E47"/>
<path d="M44.7126 13.3373C44.5138 12.9099 44.315 12.4563 44.1184 11.9746C44.3128 12.4563 44.5116 12.9099 44.7126 13.3373Z" fill="#B52E47"/>
<path d="M43.8276 11.2348C43.0651 9.20156 42.3878 6.73433 42.0054 3.7832C42.3878 6.73433 43.0651 9.20156 43.8276 11.2348Z" fill="#B52E47"/>
<path d="M42.0056 3.78161C41.9707 3.50386 41.9357 3.22393 41.9051 2.9375C41.9379 3.22393 41.9707 3.50386 42.0056 3.78161Z" fill="#B52E47"/>
<path d="M40.5481 1.35405C40.5481 1.35622 40.5481 1.35622 40.5481 1.35405C40.5547 1.73162 40.57 2.10051 40.5918 2.46072C40.5918 2.46289 40.594 2.46506 40.5918 2.46506C40.7579 5.54638 41.2932 8.13947 41.953 10.2769C41.953 10.279 41.953 10.279 41.953 10.2812C42.2152 11.1318 42.4971 11.9108 42.7833 12.6182C42.9297 12.9806 43.0761 13.3213 43.2225 13.6468C43.5131 14.2848 43.7971 14.8555 44.0942 15.3849C42.5342 10.5416 41.4505 5.39666 40.854 0C40.8584 0 40.865 0 40.8693 0.00216995L40.854 0H40.7907C40.7055 0 40.6203 0.00216995 40.5372 0.00216995C40.5307 0.462199 40.535 0.913547 40.5481 1.35405Z" fill="#8E2B64"/>
<path opacity="0.22" d="M13.1999 47.5156C13.6631 47.2162 16.6804 53.8497 24.9262 59.5371C29.0229 62.3624 32.5581 63.6752 32.3876 64.0897C32.2019 64.541 27.6748 63.749 23.6677 61.4272C15.7147 56.8204 12.6777 47.8542 13.1999 47.5156Z" fill="white"/>
<path opacity="0.22" d="M30.7424 61.7387C30.832 61.6129 28.6646 60.2089 25.5839 57.4509C20.9432 53.2977 18.6687 50.0514 18.507 50.1794C18.3431 50.3075 20.4297 53.9161 24.0938 57.2491C27.299 60.1634 30.6354 61.8885 30.7424 61.7387Z" fill="white"/>
<path opacity="0.22" d="M37.5047 13.8962C37.8631 14.0416 37.3278 16.4914 36.4757 18.5681C34.5835 23.1749 30.9391 26.3777 30.5371 26.0783C30.3798 25.9611 31.3543 24.2013 33.3119 20.6881C35.8814 16.0683 37.1726 13.7617 37.5047 13.8962Z" fill="white"/>
<path opacity="0.22" d="M38.1535 15.4068C38.4222 15.4459 38.6145 17.3967 38.0661 19.3257C37.1222 22.6458 34.3103 24.7767 34.0568 24.5792C33.8624 24.4295 35.252 22.9821 36.6044 19.7055C37.6794 17.1059 37.8979 15.3699 38.1535 15.4068Z" fill="white"/>
<path opacity="0.22" d="M33.6286 18.6626C33.7509 18.7299 33.303 20.1469 32.2346 21.336C31.3541 22.3168 30.2748 22.894 30.1895 22.7942C30.1131 22.7052 30.8625 22.0977 32.0576 20.6546C33.1676 19.318 33.539 18.6127 33.6286 18.6626Z" fill="white"/>
<path d="M61.9602 39.35C61.8553 39.0223 61.733 38.6881 61.5953 38.3496C61.733 38.6903 61.8531 39.0223 61.9602 39.35Z" fill="#B52E47"/>
<path d="M61.0229 37.0911C60.9159 36.8763 60.8045 36.6571 60.6843 36.4336C60.8045 36.6549 60.9159 36.8763 61.0229 37.0911Z" fill="#B52E47"/>
<g opacity="0.2">
<path d="M11.9588 46.0028C11.9588 46.1026 11.961 46.2024 11.961 46.2979C11.9829 47.4479 12.1205 48.2899 12.2079 48.7456C12.4679 50.1126 12.9093 51.3777 13.4795 52.5452C13.6478 52.8945 13.8313 53.2352 14.0236 53.5672C14.0869 53.6779 14.1525 53.7885 14.218 53.897C14.4169 54.2247 14.6244 54.5415 14.8407 54.8496C14.9128 54.9538 14.9849 55.0558 15.0592 55.1556C15.2056 55.3574 15.3564 55.557 15.5115 55.7502C15.8174 56.1386 16.1364 56.5118 16.4641 56.8699C19.7305 60.4438 23.8032 62.4835 25.1862 63.1236C25.4287 63.2365 25.6691 63.3428 25.9072 63.4448C26.2656 63.5967 26.6195 63.7399 26.9735 63.8701C27.1483 63.9352 27.3252 63.996 27.5 64.0567C27.5612 64.0784 27.6224 64.0979 27.6836 64.1175C27.7404 64.137 27.7972 64.1565 27.854 64.1739C27.9763 64.213 28.0987 64.252 28.221 64.2889C28.9814 64.5189 29.7439 64.7055 30.5195 64.8509C30.6397 64.8748 30.7599 64.8965 30.8801 64.9182C30.8822 64.9182 30.8844 64.9182 30.8866 64.9204C31.1269 64.9594 31.3673 64.9985 31.6098 65.0332C31.8392 65.0657 32.0686 65.0961 32.3002 65.1222C32.4816 65.146 32.6651 65.1656 32.8486 65.1829C33.2288 65.2198 33.6155 65.2524 34.011 65.2762C34.188 65.2871 34.3671 65.2979 34.5463 65.3066C34.7102 65.3153 34.8762 65.3218 35.0445 65.3283C35.2127 65.3348 35.3809 65.3413 35.5514 65.3457C35.6125 65.3478 35.6759 65.3478 35.7393 65.35C35.807 65.3522 35.8769 65.3522 35.9446 65.3543C36.1085 65.3587 36.268 65.363 36.4341 65.363H36.5914C36.7574 65.3652 36.9257 65.3652 37.0939 65.3652H37.1922C37.3015 65.3652 37.4107 65.3652 37.52 65.363C37.603 65.3652 37.686 65.363 37.769 65.363C37.8193 65.363 37.8695 65.363 37.9198 65.3609H38.0203C38.2082 65.3587 38.3961 65.3565 38.5884 65.3543C38.6233 65.3543 38.6583 65.3522 38.6911 65.3522C38.7719 65.35 38.8549 65.35 38.938 65.3478C39.0232 65.3457 39.1062 65.3435 39.1914 65.3435C39.2744 65.3413 39.3596 65.3392 39.4449 65.337C39.7835 65.3305 40.1265 65.3196 40.4783 65.3109C41.3566 65.2849 42.2765 65.2524 43.2509 65.2176C43.4454 65.209 43.642 65.2024 43.8409 65.1959C43.9392 65.1916 44.0375 65.1894 44.1358 65.1851C44.2014 65.1829 44.2669 65.1807 44.3325 65.1764C44.54 65.1699 44.7454 65.1612 44.9464 65.1547C44.9836 65.1547 45.0207 65.1525 45.0579 65.1504C45.2873 65.1417 45.5145 65.133 45.7374 65.1243H45.7745C45.9362 65.1178 46.0935 65.1113 46.253 65.1048C46.5829 65.0918 46.9063 65.0766 47.2253 65.0614C47.3848 65.0549 47.5443 65.0462 47.7016 65.0397C47.8589 65.031 48.014 65.0223 48.1691 65.0137C48.3243 65.005 48.4772 64.9963 48.6302 64.9876C48.7809 64.9768 48.9339 64.9681 49.0824 64.9572C49.2332 64.9486 49.3818 64.9377 49.5303 64.9269C51.0838 64.814 52.528 64.6535 53.9351 64.3996C54.2497 64.3431 54.56 64.2824 54.8702 64.2151C55.0254 64.1826 55.1805 64.1479 55.3356 64.111C55.6459 64.0394 55.9539 63.9612 56.262 63.8788C57.0355 63.6705 57.8111 63.4231 58.5998 63.1323C58.9145 63.0151 59.2313 62.8915 59.5503 62.7591C59.7098 62.694 59.8715 62.6246 60.0331 62.5551C60.1904 62.4878 60.3521 62.4162 60.5226 62.3446C60.7476 62.2448 60.9857 62.1407 61.2305 62.0322C61.3528 61.9779 61.4752 61.9215 61.6019 61.8651C61.698 61.8217 61.7942 61.7783 61.8903 61.7327C62.9696 61.2358 64.1844 60.6347 65.4255 59.8948C65.5871 59.7993 65.751 59.7016 65.9127 59.5996C66.0897 59.489 66.2645 59.3783 66.4414 59.2633C66.5441 59.196 66.649 59.1266 66.7517 59.0572C67.3154 58.6796 67.8747 58.2695 68.4231 57.8268C68.5127 57.7552 68.6023 57.6836 68.6897 57.6098C68.823 57.4991 68.9541 57.3885 69.0852 57.2713C69.1879 57.1823 69.2905 57.0912 69.3932 56.9979C69.4981 56.9024 69.603 56.8048 69.7079 56.7049C69.8127 56.6051 69.9154 56.5053 70.0181 56.4033C70.099 56.323 70.1798 56.2427 70.2585 56.1625C70.7785 55.6243 71.2744 55.0514 71.7311 54.4352C71.8272 54.305 71.9212 54.1748 72.0151 54.0424C72.0741 53.96 72.1309 53.8753 72.1877 53.7885C72.227 53.7299 72.2664 53.6714 72.3057 53.6106C72.4433 53.4001 72.5766 53.1831 72.7055 52.9618C72.7492 52.888 72.7907 52.8142 72.8301 52.7426C72.9852 52.4649 73.1338 52.1806 73.2736 51.8877C73.3785 51.6685 73.479 51.445 73.5729 51.2171C73.6145 51.1217 73.6538 51.024 73.6909 50.9264C73.7062 50.8873 73.7215 50.8483 73.7368 50.807C73.7652 50.7332 73.7936 50.6616 73.8198 50.5857C73.881 50.4186 73.94 50.2493 73.9946 50.0779C74.0624 49.8674 74.1257 49.6526 74.1869 49.4356V49.4334C74.2109 49.3445 74.235 49.2555 74.2568 49.1644C74.2721 49.1123 74.2852 49.0602 74.2961 49.0081C74.3311 48.8671 74.3639 48.7239 74.3945 48.5807C74.4294 48.4179 74.4622 48.253 74.4928 48.0859C74.5081 48.0013 74.5212 47.9188 74.5343 47.8342C74.543 47.7908 74.5496 47.7452 74.5561 47.7018C74.5758 47.5716 74.5955 47.4458 74.613 47.3156C74.6282 47.2049 74.6414 47.0921 74.6545 46.9792C74.6632 46.8924 74.6719 46.8078 74.6785 46.721C74.6872 46.6386 74.6938 46.5561 74.7003 46.4736C74.7003 46.4693 74.7025 46.4628 74.7025 46.4585C74.7091 46.3673 74.7156 46.2762 74.7222 46.185C74.7353 46.0093 74.7419 45.8335 74.7484 45.6599V45.6295C74.7506 45.6209 74.7506 45.6143 74.7484 45.6078C74.7506 45.5406 74.755 45.4776 74.755 45.4147V45.3127C74.7572 45.3084 74.7572 45.3019 74.755 45.2975C74.7593 45.0306 74.7572 44.7616 74.7462 44.4968C74.7419 44.3384 74.7331 44.18 74.7244 44.0216C74.7135 43.848 74.7003 43.6744 74.6851 43.5008V43.4769C74.6763 43.3967 74.6698 43.3142 74.661 43.2339C74.6501 43.1406 74.6392 43.0495 74.6282 42.9562C74.6282 42.954 74.6282 42.9518 74.6282 42.9518C74.613 42.8151 74.5955 42.6806 74.5736 42.546C74.5649 42.4701 74.554 42.3963 74.5409 42.3225C74.5234 42.1902 74.5015 42.0578 74.4775 41.9254C74.4753 41.9168 74.4753 41.9081 74.4731 41.8994C74.4447 41.741 74.4141 41.5826 74.3814 41.4242C74.3529 41.2745 74.3202 41.1269 74.2852 40.9793C74.2656 40.8925 74.2459 40.8057 74.224 40.7189C74.1956 40.5953 74.165 40.4737 74.1323 40.3522C74.0908 40.1938 74.0471 40.0376 74.0012 39.8813C73.9597 39.7338 73.916 39.5884 73.8679 39.443C73.8329 39.3367 73.8002 39.2304 73.763 39.124C73.7499 39.0806 73.7368 39.0372 73.7215 38.996C73.6975 38.9266 73.6734 38.8571 73.6494 38.7899C73.645 38.7747 73.6407 38.7617 73.6341 38.7465V38.7443C73.6188 38.6987 73.6035 38.6553 73.5861 38.6119C73.562 38.5425 73.5358 38.4752 73.5096 38.408C73.4855 38.3407 73.4593 38.2734 73.4309 38.2061C73.3916 38.0998 73.3479 37.9935 73.3042 37.8893C73.2408 37.7309 73.1731 37.5725 73.1032 37.4185C73.0355 37.2644 72.9655 37.1125 72.8934 36.9606C72.8934 36.9584 72.8913 36.9584 72.8913 36.9563C72.8869 38.2213 72.7951 39.7381 72.5242 41.4068C72.522 41.4155 72.522 41.4242 72.5198 41.4329C72.4936 41.5891 72.4674 41.7475 72.439 41.9081C71.9561 44.5402 71.0144 47.5196 69.2425 50.4967C63.1204 60.7801 51.7087 63.2842 46.7555 63.8918C45.5254 64.0437 44.6952 64.0762 44.4395 64.0849C43.5678 63.946 42.554 63.7551 41.4353 63.486H41.4331C41.4309 63.4839 41.4309 63.4838 41.4287 63.4838H41.4266C41.2605 63.4448 41.0923 63.4014 40.9197 63.358V63.3558C40.6509 63.2886 40.3756 63.2126 40.0938 63.1345H40.0916C40.0894 63.1345 40.0894 63.1345 40.0872 63.1345C39.6175 63.0021 39.1324 62.8546 38.6343 62.6918C36.4778 61.9888 34.0897 60.9928 31.6295 59.5606C27.6726 57.2539 20.9519 53.3415 18.4305 46.0787C18.4283 46.07 18.424 46.0635 18.4218 46.0548C18.3956 45.9832 18.3715 45.9073 18.3475 45.8335C18.164 45.2802 18.0045 44.7073 17.8734 44.1149C16.6804 38.7291 18.2317 33.8923 19.7983 30.6895C19.228 31.2081 18.673 31.7375 18.1399 32.2822C18.0438 32.3777 17.9498 32.4753 17.8581 32.5751C17.7292 32.7075 17.6046 32.8399 17.4801 32.9744C17.3883 33.0742 17.2965 33.174 17.2048 33.2739C17.0977 33.3932 16.9929 33.5126 16.888 33.6341C16.7984 33.7382 16.7088 33.8402 16.6192 33.9465C16.6149 33.9509 16.6127 33.9552 16.6083 33.9617C16.5602 34.0182 16.5122 34.0746 16.4663 34.131C16.416 34.1917 16.3658 34.2503 16.3177 34.3111C16.2325 34.4174 16.1473 34.5237 16.0643 34.6301C15.9354 34.7928 15.8086 34.9577 15.6863 35.1248C15.6273 35.2029 15.5705 35.2811 15.5115 35.3614C15.2843 35.6738 15.0658 35.9928 14.8582 36.3205C14.7927 36.4203 14.7315 36.5179 14.6703 36.6177C14.6441 36.659 14.6179 36.7002 14.5938 36.7436C14.5327 36.8413 14.4737 36.9411 14.4147 37.0431C14.3885 37.0843 14.3644 37.1255 14.3426 37.1689C14.2858 37.2644 14.2311 37.362 14.1787 37.4597C14.0738 37.6463 13.9733 37.8351 13.8794 38.026C13.8641 38.0564 13.8488 38.089 13.8313 38.1215C13.8051 38.1736 13.7789 38.2278 13.7526 38.2799C13.7264 38.332 13.7002 38.3841 13.674 38.4383C13.6543 38.4861 13.6325 38.5316 13.6106 38.5794C13.5779 38.6466 13.5451 38.7139 13.5167 38.7834C13.5058 38.8029 13.497 38.8224 13.4905 38.8419C13.4402 38.9548 13.3921 39.0654 13.3463 39.1783C13.3331 39.2065 13.3222 39.2369 13.3091 39.2651C13.2873 39.3172 13.2632 39.3671 13.2436 39.4191C13.2239 39.4691 13.2042 39.519 13.1846 39.5689C13.1758 39.5906 13.1671 39.6101 13.1605 39.6318C13.1452 39.673 13.1278 39.7143 13.1125 39.7533C13.0994 39.7902 13.0863 39.8271 13.0731 39.864C12.9464 40.2025 12.8284 40.5475 12.7236 40.9012C12.6973 40.988 12.6711 41.0726 12.6471 41.1594C12.6121 41.2788 12.5815 41.3981 12.551 41.5197C12.5313 41.5869 12.5138 41.6542 12.4985 41.7236L12.4592 41.8799C12.4548 41.9016 12.4483 41.9211 12.4439 41.9428C12.4264 42.0079 12.4111 42.073 12.398 42.1381C12.3958 42.1511 12.3915 42.1641 12.3893 42.1771C12.3827 42.2054 12.3762 42.2314 12.3718 42.2596C12.3543 42.329 12.339 42.4007 12.3259 42.4701V42.4723C12.3106 42.5504 12.2953 42.6307 12.28 42.7088C12.2582 42.8173 12.2385 42.9258 12.2188 43.0343C12.1708 43.3142 12.1315 43.5876 12.0965 43.8502C12.0462 44.2473 12.0135 44.6248 11.9894 44.9851C11.9829 45.1044 11.9785 45.2238 11.972 45.3388C11.9632 45.5688 11.9588 45.7901 11.9588 46.0028Z" fill="#8C1B33"/>
<path d="M40.8542 0.00390625C41.4507 5.40056 42.5344 10.5455 44.0944 15.3888C44.0944 15.391 44.0944 15.391 44.0966 15.3932C46.0259 18.8629 48.3659 20.6943 54.4618 29.5759C60.3107 38.0973 60.8242 40.2694 60.8111 42.3265C60.7849 46.9659 58.0821 50.5788 55.1828 54.4587C51.9098 58.8377 48.3703 61.6977 45.9472 63.3945C46.216 63.5595 46.4869 63.7244 46.7556 63.8915C48.6499 62.9779 51.4488 61.3874 54.2149 58.7183C55.9584 57.0344 62.8496 50.3879 62.4629 42.0293C62.2771 38.004 59.4455 34.0222 53.7888 26.0541C48.7242 18.9237 47.3565 18.4767 45.3071 14.5447C43.7339 11.5328 41.9729 6.9 41.7129 0.25562C41.4594 0.114574 41.1754 0.0256057 40.8695 0.00824614C40.8652 0.00390625 40.8586 0.00390625 40.8542 0.00390625Z" fill="#8C1B33"/>
<path d="M37.3954 53.1667C38.7281 57.3721 39.9801 60.8548 40.9218 63.3568C40.9414 63.411 40.9611 63.4653 40.9808 63.5195C41.1293 63.5087 41.2801 63.4978 41.4309 63.4848C41.5707 63.4761 41.7105 63.4653 41.8525 63.4544C41.5925 62.2783 41.2102 60.5315 40.7754 58.4137C38.7107 48.3863 37.4718 42.3734 37.2293 36.7446C36.8819 28.8243 38.7849 28.2145 39.6371 18.2219C40.2663 10.8398 39.79 4.56861 39.1651 0.03125C38.715 0.0941784 38.3196 0.306833 38.0246 0.610626C38.9947 5.70349 38.7871 9.77648 38.337 12.7385C37.935 15.3771 37.3888 16.8375 36.611 19.6953C36.3313 20.713 36.0254 21.9086 35.6868 23.3972C35.5557 23.9744 35.418 24.595 35.2782 25.2656C34.1464 30.6275 33.5805 33.3095 33.5434 35.9547C33.4735 40.7047 34.78 44.9231 37.3954 53.1667Z" fill="#8C1B33"/>
<path d="M42.0012 40.7466C41.5358 31.6024 41.6909 30.2376 41.3479 22.046C41.1294 16.8208 40.7295 9.29106 39.9299 0.00585938C39.9867 0.00585938 40.0457 0.00585938 40.1025 0.00585938C42.4556 11.5218 43.5502 21.4948 44.0637 29.3349C45.1146 45.3252 44.0178 56.2812 43.7556 58.7441C43.5459 60.7275 43.3318 62.3723 43.1766 63.5028C43.0565 63.5137 42.9363 63.5245 42.8161 63.5354C42.7965 61.7755 42.7549 59.126 42.6632 55.9015C42.4775 49.2376 42.2087 44.8239 42.0012 40.7466Z" fill="#8C1B33"/>
<path d="M27.7142 28.0365C30.1395 23.727 31.5946 23.4123 33.5217 19.8298C34.4131 18.1719 35.0271 16.5141 35.4466 14.9213C35.9994 13.832 36.4691 12.6733 36.8362 11.4277C36.869 12.3521 36.8318 13.3525 36.6832 14.4092C36.0649 18.8273 33.963 21.0753 31.6711 25.4586C29.4316 29.7421 27.4826 33.4722 27.3253 37.9163C27.1134 43.8815 30.2181 48.6597 35.0402 56.0787C37.0219 59.1275 38.8791 61.5101 40.2009 63.1072C39.8623 63.1853 39.5258 63.2634 39.1871 63.3415C37.9789 61.9159 36.29 59.9152 34.2755 57.5109C29.7549 52.1142 29.0842 51.2289 28.3413 50.094C26.0865 46.6481 24.509 44.2352 24.0829 40.8479C23.4275 35.6552 25.8789 31.3001 27.7142 28.0365Z" fill="#8C1B33"/>
<path d="M40.3886 0.00238677C40.4367 0.455906 40.4913 0.907254 40.5481 1.35426C40.5481 1.35643 40.5481 1.35643 40.5481 1.35643C41.0397 5.25366 41.7869 9.01417 42.7833 12.6206C43.7337 16.0622 44.9135 19.3626 46.3184 22.5112C46.9236 23.8631 47.4961 25.0305 48.0489 26.1589C49.6679 29.4572 50.946 32.0612 51.5272 36.4011C52.2963 42.1601 51.5097 48.1839 49.185 54.301C47.9833 57.4626 46.373 60.4723 44.3957 63.2476L44.7715 63.5124C46.7729 60.7066 48.4028 57.66 49.6176 54.4637C49.9672 53.5415 50.898 51.0894 51.5534 47.7933C52.3313 43.8722 52.4776 40.0184 51.9839 36.3403C51.3939 31.9288 50.1005 29.2945 48.464 25.9593C47.9112 24.8331 47.3388 23.67 46.7401 22.3246C45.7416 20.0917 44.8589 17.7786 44.092 15.3916C44.0898 15.3895 44.0898 15.3895 44.0898 15.3873C42.5298 10.544 41.4461 5.39904 40.8496 0.00238677C40.8496 0.000216821 40.8496 0.000216821 40.8496 -0.00195312H40.7863C40.7011 -0.00195312 40.6158 0.000216821 40.5328 0.000216821H40.3886V0.00238677Z" fill="#8C1B33"/>
<path d="M60.4897 45.0156C60.4766 45.0699 60.4635 45.1241 60.4504 45.1784C60.4635 45.1328 60.4745 45.0829 60.4854 45.0373L60.4897 45.0156Z" fill="#8C1B33"/>
</g>
<path d="M60.4395 35.9831C60.1445 35.4515 59.8146 34.896 59.4541 34.3145C59.8146 34.8938 60.1423 35.4493 60.4395 35.9831Z" fill="#B52E47"/>
<path d="M59.4541 34.3107C59.299 34.0611 59.1373 33.8051 58.9712 33.5469C59.1373 33.8073 59.2968 34.0611 59.4541 34.3107Z" fill="#B52E47"/>
<path d="M57.324 55.3672C57.2388 55.4735 57.1514 55.5798 57.0662 55.6818C57.1208 55.6167 57.1732 55.5516 57.2278 55.4865C57.2606 55.4475 57.2912 55.4062 57.324 55.3672Z" fill="#B52E47"/>
<path d="M46.6572 62.8867C46.4934 63.0061 46.3339 63.1211 46.1787 63.2317C46.3339 63.1232 46.4912 63.0061 46.6572 62.8867Z" fill="#B52E47"/>
<path d="M44.7126 13.3373C44.5138 12.9099 44.315 12.4563 44.1184 11.9746C44.3128 12.4563 44.5116 12.9099 44.7126 13.3373Z" fill="#B52E47"/>
<path d="M43.8276 11.2348C43.0651 9.20156 42.3878 6.73433 42.0054 3.7832C42.3878 6.73433 43.0651 9.20156 43.8276 11.2348Z" fill="#B52E47"/>
<path d="M42.0056 3.78161C41.9707 3.50386 41.9357 3.22393 41.9051 2.9375C41.9379 3.22393 41.9707 3.50386 42.0056 3.78161Z" fill="#B52E47"/>
<path opacity="0.7" d="M54.1623 23.6465L57.2802 29.0171C58.0034 31.2738 58.412 31.6449 59.5525 33.7259C61.6653 37.5841 64.7875 45.3373 60.1752 51.5455C60.1752 51.5455 53.7363 60.7786 45.4839 63.3912C45.4839 63.3912 53.7559 61.2538 60.0266 57.4391C65.6025 54.0474 70.0596 48.5727 65.8384 39.7996C61.6172 31.0265 54.1623 23.6465 54.1623 23.6465Z" fill="url(#paint1_linear_2761_6750)"/>
<path opacity="0.5" d="M25.7564 29.9277C23.4644 34.1352 22.3261 41.27 25.3216 46.3693C26.1781 47.8275 26.8292 49.7479 28.3149 51.5034C36.3313 60.9796 36.3313 60.9796 36.3313 60.9796C36.3313 60.9796 23.6065 55.0383 20.5236 49.0253C17.858 43.8283 18.0503 37.2534 23.3377 28.7884C24.9087 26.2756 27.5131 24.5722 30.4561 24.123L25.7564 29.9277Z" fill="url(#paint2_linear_2761_6750)"/>
<path opacity="0.7" d="M42.9429 16.002C42.9429 16.002 49.0081 30.7619 50.7058 36.1629C54.3152 47.6463 44.398 63.2482 44.398 63.2482C44.398 63.2482 46.3098 43.9248 45.6456 40.4833C44.9814 37.0418 42.9429 16.002 42.9429 16.002Z" fill="url(#paint3_linear_2761_6750)"/>
<path opacity="0.7" d="M52.1718 31.1113C52.1718 31.1113 68.3881 46.7523 46.1764 61.4103C46.1764 61.4103 56.4957 47.846 52.1718 31.1113Z" fill="url(#paint4_linear_2761_6750)"/>
<path opacity="0.7" d="M33.8973 30.6875C33.8973 30.6875 22.3239 41.9474 40.5591 62.3926C40.5613 62.3926 27.1176 40.9752 33.8973 30.6875Z" fill="url(#paint5_linear_2761_6750)"/>
<path d="M49.148 34.8784C47.519 34.8784 46.1984 33.5668 46.1984 31.949C46.1984 30.3311 47.519 29.0195 49.148 29.0195C50.7771 29.0195 52.0977 30.3311 52.0977 31.949C52.0977 33.5668 50.7771 34.8784 49.148 34.8784Z" fill="#110B09"/>
<path d="M48.2347 31.4465C47.8184 31.4465 47.4809 31.1113 47.4809 30.6979C47.4809 30.2844 47.8184 29.9492 48.2347 29.9492C48.651 29.9492 48.9885 30.2844 48.9885 30.6979C48.9885 31.1113 48.651 31.4465 48.2347 31.4465Z" fill="white"/>
<path d="M35.4793 34.8784C33.8503 34.8784 32.5297 33.5668 32.5297 31.949C32.5297 30.3311 33.8503 29.0195 35.4793 29.0195C37.1084 29.0195 38.429 30.3311 38.429 31.949C38.429 33.5668 37.1084 34.8784 35.4793 34.8784Z" fill="#110B09"/>
<path d="M34.4633 31.4465C34.0469 31.4465 33.7095 31.1113 33.7095 30.6979C33.7095 30.2844 34.0469 29.9492 34.4633 29.9492C34.8796 29.9492 35.217 30.2844 35.217 30.6979C35.217 31.1113 34.8796 31.4465 34.4633 31.4465Z" fill="white"/>
<path d="M37.5985 38.0264V38.0373C37.6095 38.4995 37.6357 38.9335 37.6728 39.3371C37.7843 40.5479 38.0049 41.507 38.313 42.2665C39.1476 44.3193 40.6268 44.8878 42.3136 44.8878C43.9675 44.8878 45.4249 44.3366 46.266 42.375C46.5981 41.6003 46.8363 40.6043 46.9543 39.3349C46.9914 38.9313 47.0176 38.4973 47.0286 38.0351V38.0243C47.0286 37.6857 46.7511 37.4102 46.4102 37.4102H38.2125C37.876 37.4123 37.5985 37.6901 37.5985 38.0264Z" fill="white"/>
<path opacity="0.5" d="M38.3153 42.2679C39.1499 44.3207 40.6291 44.8892 42.3158 44.8892C43.9698 44.8892 45.4271 44.338 46.2683 42.3764C45.3747 41.6343 43.8955 41.1504 42.2241 41.1504C40.6335 41.1504 39.2198 41.5865 38.3153 42.2679Z" fill="#EF8D7F"/>
<path d="M11.9588 46.0037C11.9588 46.1035 11.961 46.2034 11.961 46.2988C11.9829 47.4489 12.1205 48.2909 12.2079 48.7465C12.4701 50.1136 12.9136 51.3787 13.4861 52.5461C13.6543 52.8955 13.8379 53.2362 14.0323 53.5682C14.0957 53.6788 14.1612 53.7895 14.2268 53.898C14.4256 54.2257 14.6353 54.5425 14.8517 54.8506C14.9238 54.9548 14.9959 55.0567 15.0701 55.1566C15.2187 55.3584 15.3695 55.558 15.5246 55.7511C15.8327 56.1396 16.1517 56.5128 16.4816 56.8708C19.7611 60.4447 23.8491 62.4845 25.2365 63.1246C25.4812 63.2374 25.7215 63.3438 25.9618 63.4458C26.3202 63.5977 26.6763 63.7409 27.0303 63.8711C27.2072 63.9362 27.3842 63.9969 27.559 64.0577C27.6202 64.0794 27.6835 64.0989 27.7447 64.1184C27.8015 64.138 27.8583 64.1575 27.9151 64.1749C28.0375 64.2139 28.1599 64.253 28.2844 64.2899C29.0469 64.5199 29.8116 64.7065 30.5916 64.8519C30.7118 64.8757 30.832 64.8975 30.9522 64.9192C30.9543 64.9192 30.9565 64.9191 30.9587 64.9213C31.2012 64.9604 31.4416 64.9994 31.6863 65.0342C31.9157 65.0667 32.1451 65.0971 32.3789 65.1231C32.5602 65.147 32.7438 65.1665 32.9295 65.1839C33.3097 65.2208 33.6986 65.2533 34.0962 65.2772C34.2732 65.288 34.4524 65.2989 34.6337 65.3076C34.7976 65.3162 34.9636 65.3228 35.134 65.3293C35.3329 65.3379 35.5339 65.3445 35.7393 65.351C35.9971 65.3575 36.2615 65.3618 36.528 65.364H36.5914C36.7574 65.3662 36.9235 65.3662 37.0939 65.3662H37.1922C37.3823 65.3662 37.5746 65.3662 37.769 65.364H37.8674C37.9176 65.364 37.97 65.364 38.0203 65.3618C38.2082 65.3596 38.3961 65.3575 38.5884 65.3553H38.6911C38.7741 65.3531 38.8549 65.351 38.938 65.3488C39.0232 65.3466 39.1062 65.3445 39.1914 65.3445C39.2744 65.3423 39.3596 65.3401 39.4449 65.338C39.7835 65.3314 40.1265 65.3206 40.4783 65.3119C41.007 65.2967 41.5489 65.2772 42.1082 65.2577C42.2961 65.2512 42.484 65.2446 42.6741 65.2381C42.8642 65.2316 43.0565 65.2251 43.2509 65.2186C43.4454 65.2099 43.642 65.2034 43.8409 65.1969C43.9392 65.1926 44.0375 65.1904 44.1358 65.1861C44.2014 65.1839 44.2669 65.1817 44.3325 65.1774C44.54 65.1709 44.7454 65.1644 44.9464 65.1557C44.9836 65.1557 45.0207 65.1535 45.0579 65.1513C45.2873 65.1427 45.5145 65.1361 45.7374 65.1253H45.7745C45.9362 65.1188 46.0935 65.1123 46.253 65.1058C46.749 65.0862 47.2318 65.0645 47.7016 65.0407C47.8589 65.032 48.014 65.0233 48.1691 65.0146C48.3243 65.0059 48.4772 64.9973 48.6302 64.9886C48.7809 64.9777 48.9339 64.9691 49.0824 64.9582C49.2332 64.9495 49.3818 64.9387 49.5303 64.9278C51.0838 64.815 52.528 64.6544 53.9351 64.4005C54.2497 64.3441 54.56 64.2834 54.8702 64.2161C55.0254 64.1835 55.1805 64.1488 55.3356 64.1119C55.6437 64.0403 55.9517 63.9644 56.262 63.8797C57.0355 63.6714 57.8111 63.4241 58.5998 63.1333C58.9145 63.0161 59.2313 62.8924 59.5503 62.7601C59.7098 62.695 59.8715 62.6255 60.0331 62.5561C60.1904 62.4888 60.3521 62.4172 60.5226 62.3456C60.7476 62.2458 60.9857 62.1416 61.2305 62.0331C61.3528 61.9789 61.4752 61.9225 61.6019 61.866C61.698 61.8226 61.7942 61.7792 61.8903 61.7337C62.9696 61.2367 64.1844 60.6357 65.4255 59.8957C65.5871 59.8002 65.751 59.7026 65.9127 59.6006C66.0897 59.4899 66.2645 59.3793 66.4414 59.2643C66.5441 59.197 66.649 59.1276 66.7517 59.0581C67.3154 58.6806 67.8747 58.2704 68.4231 57.8278C68.5127 57.7562 68.6023 57.6845 68.6897 57.6108C68.823 57.5001 68.9541 57.3894 69.0852 57.2723C69.1879 57.1833 69.2905 57.0922 69.3932 56.9988C69.4981 56.9034 69.603 56.8057 69.7079 56.7059C69.8127 56.6061 69.9154 56.5063 70.0181 56.4043C70.099 56.324 70.1798 56.2437 70.2585 56.1634C70.7785 55.6253 71.2744 55.0524 71.7311 54.4361C71.8272 54.3059 71.9212 54.1757 72.0151 54.0434C72.0741 53.9609 72.1309 53.8763 72.1877 53.7895C72.227 53.7309 72.2664 53.6723 72.3057 53.6116C72.4433 53.4011 72.5766 53.1841 72.7055 52.9627C72.7492 52.889 72.7907 52.8152 72.8301 52.7436C72.9852 52.4658 73.1338 52.1816 73.2736 51.8886C73.3807 51.6695 73.479 51.446 73.5729 51.2181C73.6145 51.1226 73.6538 51.025 73.6909 50.9273C73.7062 50.8883 73.7215 50.8492 73.7368 50.808C73.7652 50.7342 73.7936 50.6626 73.8198 50.5867C73.881 50.4196 73.94 50.2503 73.9946 50.0789C74.0624 49.8684 74.1257 49.6536 74.1869 49.4366V49.4344C74.2109 49.3454 74.235 49.2565 74.2568 49.1653C74.2721 49.1133 74.2852 49.0612 74.2961 49.0091C74.3311 48.8681 74.3639 48.7248 74.3945 48.5816C74.4294 48.4189 74.4622 48.254 74.4928 48.0869C74.5124 47.974 74.5321 47.8655 74.5518 47.7505C74.5736 47.6052 74.5955 47.4619 74.613 47.3165C74.6282 47.2059 74.6414 47.093 74.6545 46.9802C74.6632 46.8934 74.6719 46.8088 74.6785 46.722C74.6872 46.6395 74.6938 46.5571 74.7003 46.4746C74.7003 46.4703 74.7025 46.4638 74.7025 46.4594C74.7091 46.3683 74.7156 46.2771 74.7222 46.186C74.7353 46.0102 74.7419 45.8345 74.7484 45.6609V45.6305C74.7506 45.6218 74.7506 45.6153 74.7484 45.6088C74.7506 45.5415 74.755 45.4786 74.755 45.4157V45.3137C74.7572 45.3093 74.7572 45.3028 74.755 45.2985C74.7593 45.0316 74.7572 44.7625 74.7462 44.4978C74.7419 44.3394 74.7331 44.181 74.7244 44.0226C74.7135 43.849 74.7003 43.6754 74.6851 43.5018V43.4779C74.6763 43.3976 74.6698 43.3152 74.661 43.2349C74.6501 43.1416 74.6392 43.0504 74.6282 42.9571C74.6282 42.955 74.6282 42.9528 74.6282 42.9528C74.613 42.8161 74.5955 42.6815 74.5736 42.547C74.5649 42.4711 74.554 42.3973 74.5409 42.3235C74.5234 42.1911 74.5015 42.0588 74.4775 41.9264C74.4753 41.9177 74.4753 41.909 74.4731 41.9004C74.4447 41.742 74.4141 41.5835 74.3814 41.4251C74.3529 41.2754 74.3202 41.1279 74.2852 40.9803C74.2656 40.8935 74.2459 40.8067 74.224 40.7199C74.1956 40.5962 74.165 40.4747 74.1323 40.3532C74.1235 40.3163 74.1148 40.2772 74.1039 40.2404C74.0995 40.2295 74.0973 40.2165 74.0929 40.2056C74.0645 40.0971 74.034 39.9908 74.0012 39.8823C73.9597 39.7348 73.916 39.5894 73.8679 39.444C73.8329 39.3377 73.8002 39.2313 73.763 39.125C73.5358 39.9062 73.1971 40.67 72.7558 41.4078C72.7514 41.4165 72.7449 41.4251 72.7405 41.4338C72.6444 41.5944 72.5439 41.7528 72.439 41.909C71.3443 43.5517 69.7384 45.0707 67.7218 46.4182C67.7109 46.4247 67.6999 46.4334 67.689 46.4399C67.6278 46.4811 67.5667 46.5202 67.5055 46.5592C65.7991 47.6724 63.8108 48.6641 61.5932 49.506C61.5669 49.5147 61.5429 49.5256 61.5167 49.5342C61.4642 49.5538 61.4118 49.5733 61.3594 49.5928C61.2632 49.6297 61.1671 49.6644 61.0731 49.6991C61.071 49.6991 61.071 49.7013 61.0688 49.7013C61.0447 49.71 61.0207 49.7187 60.9967 49.7274H60.9945C60.9442 49.7447 60.8962 49.7621 60.8459 49.7794C59.9545 50.0984 59.0303 50.3935 58.0755 50.6626C58.0449 50.6713 58.0121 50.68 57.9815 50.6886C57.9422 50.6995 57.9007 50.7103 57.8592 50.7212C57.3676 50.8579 56.8694 50.9881 56.3603 51.1074C56.3276 51.1161 56.2948 51.1226 56.262 51.1313C56.2292 51.14 56.1986 51.1465 56.1659 51.153C54.5512 51.5371 52.8623 51.8496 51.1122 52.0839C51.0707 52.0883 51.0335 52.0948 50.9942 52.0991C50.9811 52.1013 50.9658 52.1034 50.9527 52.1056C50.8282 52.123 50.7036 52.1382 50.5769 52.1534C50.5398 52.1577 50.4982 52.1642 50.4589 52.1685C50.4458 52.1707 50.4349 52.1707 50.4218 52.1729C50.306 52.1859 50.188 52.2011 50.0678 52.2141C50.0285 52.2185 49.9892 52.2228 49.9476 52.2271C49.9367 52.2293 49.928 52.2293 49.9171 52.2315C49.8384 52.2402 49.7576 52.2467 49.6789 52.2553C49.6396 52.2597 49.6003 52.264 49.5609 52.2684C49.55 52.2705 49.5391 52.2705 49.5282 52.2727C48.1954 52.4138 46.8342 52.5092 45.4446 52.557C45.4031 52.5591 45.3572 52.5591 45.3157 52.5613H45.3091C44.9967 52.5722 44.682 52.5808 44.3696 52.5852C44.3303 52.5852 44.2866 52.5873 44.2451 52.5873H44.2276C43.9326 52.5917 43.6333 52.5939 43.3362 52.5939C43.1155 52.5939 42.8926 52.5917 42.6763 52.5895C42.637 52.5895 42.5977 52.5873 42.5583 52.5873H42.5277C41.562 52.5743 40.6072 52.5396 39.6655 52.481C39.6284 52.4789 39.5934 52.4789 39.5585 52.4745C39.541 52.4745 39.5213 52.4745 39.5038 52.4723C38.7282 52.4224 37.9591 52.3595 37.2075 52.2792C37.1726 52.277 37.1398 52.2727 37.107 52.2684C37.083 52.2684 37.0589 52.264 37.0349 52.2619C36.4952 52.2033 35.9621 52.1382 35.4356 52.0666C35.405 52.0622 35.3722 52.0579 35.3416 52.0535C35.3088 52.0492 35.2783 52.0449 35.2455 52.0405C34.5419 51.9429 33.8515 51.8322 33.1698 51.7063C33.1392 51.702 33.1108 51.6977 33.0802 51.6912C33.0409 51.6846 32.9994 51.676 32.9601 51.6695C32.7044 51.6239 32.451 51.5762 32.1975 51.5262C32.1691 51.5197 32.1386 51.5154 32.1101 51.5089C32.0643 51.5002 32.0206 51.4894 31.9747 51.4807C30.8953 51.2593 29.8444 51.0076 28.8306 50.7234C28.8022 50.7169 28.7738 50.7103 28.7476 50.7017C28.6886 50.6865 28.6296 50.6691 28.5706 50.6539C28.2101 50.5541 27.8583 50.45 27.5109 50.3415C27.4869 50.3349 27.4607 50.3263 27.4367 50.3198C27.3711 50.3002 27.3077 50.2785 27.2422 50.259C24.3625 49.3476 21.7931 48.1997 19.6431 46.863C19.63 46.8543 19.6191 46.8478 19.606 46.8392C19.5142 46.7827 19.4203 46.7242 19.3285 46.6656C19.027 46.4746 18.7364 46.2793 18.4545 46.0797C18.4436 46.071 18.4327 46.0645 18.4218 46.0558C18.3191 45.9842 18.2164 45.9083 18.1159 45.8345C15.6819 44.0443 13.9449 41.985 13.1168 39.7586C13.1168 39.7565 13.1168 39.7565 13.1168 39.7543C13.1037 39.7912 13.0906 39.8281 13.0775 39.865C12.9508 40.2035 12.8328 40.5485 12.7257 40.9022C12.6995 40.989 12.6733 41.0736 12.6493 41.1604C12.6143 41.2798 12.5837 41.3991 12.5531 41.5206C12.5335 41.5879 12.516 41.6552 12.5007 41.7246L12.4614 41.8808C12.457 41.9025 12.4504 41.9221 12.4461 41.9438C12.4286 42.0089 12.4133 42.074 12.4002 42.1391C12.398 42.1521 12.3936 42.1651 12.3915 42.1781C12.3849 42.2063 12.3783 42.2324 12.374 42.2606C12.3565 42.33 12.3412 42.4016 12.3281 42.4711V42.4732C12.3128 42.5513 12.2975 42.6316 12.2822 42.7098C12.2604 42.8182 12.2385 42.9267 12.2188 43.0352C12.1708 43.3152 12.1293 43.5864 12.0965 43.8511C12.0462 44.2482 12.0135 44.6258 11.9894 44.986C11.9829 45.1054 11.9785 45.2247 11.972 45.3397C11.9632 45.5697 11.9588 45.7911 11.9588 46.0037Z" fill="url(#paint6_radial_2761_6750)"/>
<path d="M4.32697 40.3332C7.68953 34.0686 6.53153 44.1198 11.9457 44.8554C13.178 45.0225 14.2049 44.8554 15.4678 44.7165C17.6133 44.4821 19.5579 45.4651 19.5404 48.1689C19.5164 51.9012 17.9433 52.3807 14.0847 52.7453C12.8022 52.8668 11.1963 52.8017 9.69308 52.3395C4.42748 50.7251 1.7772 45.0832 4.32697 40.3332Z" fill="#720D27"/>
<path d="M9.76314 52.3836C11.1964 50.0726 11.5766 47.5403 11.9633 44.8712C13.2786 44.9428 14.1919 44.8322 15.4679 44.7106C17.6331 44.5045 19.5471 45.4593 19.5449 48.1695C19.5427 51.9105 17.9084 52.3814 14.1023 52.746C12.8351 52.8675 11.0675 52.7894 9.76314 52.3836Z" fill="url(#paint7_radial_2761_6750)"/>
<path d="M71.9824 57.3846C77.5102 57.0917 80.9404 51.9163 79.7715 46.2875C79.7628 46.2484 79.7562 46.2115 79.7453 46.1725C79.3935 44.6123 78.454 43.2279 77.5495 42.2991C74.7637 39.4326 72.8432 38.5994 70.1361 41.1925C68.1741 43.0695 69.4544 45.2502 70.8047 46.4459C71.576 47.1273 72.5832 48.3685 72.8935 48.8806C72.9044 48.8979 72.9131 48.9131 72.9219 48.9283C74.1301 51.0397 64.6957 57.7687 71.9824 57.3846Z" fill="#720D27"/>
<path d="M70.8048 46.4459C71.576 47.1273 72.5833 48.3685 72.8935 48.8806C72.935 48.9326 72.9766 48.9869 73.0181 49.0411C74.9757 46.9797 76.8984 45.9902 79.7454 46.1725C79.3936 44.6123 78.4541 43.2279 77.5495 42.2991C74.7638 39.4326 72.8433 38.5994 70.1362 41.1925C68.1741 43.0695 69.4545 45.2502 70.8048 46.4459Z" fill="url(#paint8_radial_2761_6750)"/>
<path d="M40.9832 57.9874C40.9832 58.0113 40.9832 58.033 40.9832 58.0568C40.9832 58.0612 40.9832 58.0655 40.9832 58.072C40.9832 58.0916 40.9854 58.1133 40.9854 58.1328C40.9854 58.1371 40.9854 58.1415 40.9854 58.1458C40.9876 58.1957 40.992 58.2435 40.9963 58.2934C40.9985 58.3194 41.0029 58.3433 41.0051 58.3693C41.0073 58.3888 41.0094 58.4084 41.0138 58.4279C41.016 58.4409 41.0182 58.4561 41.0204 58.4691C41.0225 58.4887 41.0269 58.506 41.0291 58.5234C41.0335 58.5451 41.0378 58.569 41.0422 58.5907C41.0466 58.6145 41.051 58.6362 41.0575 58.6601C41.0575 58.6623 41.0575 58.6644 41.0575 58.6644C41.0619 58.6883 41.0684 58.71 41.075 58.7339C41.0815 58.7556 41.0859 58.7773 41.0925 58.799C41.0925 58.8011 41.0946 58.8033 41.0946 58.8055C41.1012 58.8294 41.1078 58.8511 41.1165 58.8749C41.1231 58.8945 41.1296 58.914 41.1362 58.9313C41.1383 58.9378 41.1405 58.9444 41.1427 58.9509C41.1493 58.9704 41.158 58.9921 41.1646 59.0116C41.1711 59.029 41.1777 59.0463 41.1842 59.0615C41.1864 59.0702 41.1908 59.0767 41.193 59.0854C41.1995 59.1028 41.2061 59.118 41.2126 59.1353C41.2148 59.1397 41.2148 59.1418 41.217 59.1462C41.2257 59.1679 41.2345 59.1874 41.2432 59.2069C41.2432 59.2091 41.2454 59.2113 41.2454 59.2134C41.2541 59.2308 41.2607 59.2481 41.2694 59.2655C41.2738 59.2742 41.276 59.2829 41.2804 59.2894C41.2869 59.3046 41.2957 59.3198 41.3044 59.3349C41.3131 59.3545 41.3241 59.3718 41.3328 59.3914C41.3415 59.4087 41.3525 59.4261 41.3612 59.4434C41.3634 59.4478 41.3678 59.4543 41.3699 59.4586C41.3787 59.4738 41.3874 59.4912 41.3984 59.5064C41.4158 59.5346 41.4311 59.5606 41.4486 59.5888C41.4617 59.6105 41.477 59.6322 41.4923 59.6539C41.5098 59.68 41.5273 59.7038 41.5447 59.7277C41.5579 59.7451 41.571 59.7624 41.5841 59.7798C41.5863 59.782 41.5884 59.7863 41.5906 59.7885C41.6037 59.8058 41.6168 59.8232 41.6321 59.8405C41.6343 59.8427 41.6365 59.8449 41.6387 59.8492C41.6518 59.8644 41.6649 59.8818 41.678 59.897C41.6824 59.9013 41.6868 59.9078 41.6911 59.9122C41.7042 59.9273 41.7195 59.9447 41.7326 59.9599C41.7348 59.9621 41.7348 59.9642 41.737 59.9642C41.7523 59.9816 41.7698 60.0011 41.7873 60.0185C41.7873 60.0207 41.7894 60.0207 41.7894 60.0207C41.8047 60.0358 41.8179 60.051 41.8331 60.0662C41.8375 60.0727 41.8441 60.0771 41.8484 60.0814C41.8572 60.0901 41.8659 60.1009 41.8768 60.1096C41.8878 60.1205 41.8987 60.1313 41.9096 60.14C41.9249 60.1552 41.9402 60.1682 41.9577 60.1834C41.9752 60.1986 41.9926 60.2159 42.0123 60.2311C42.0145 60.2333 42.0145 60.2333 42.0167 60.2355L42.0298 60.2463L42.032 60.2485C42.0495 60.2637 42.0691 60.2789 42.0866 60.2941C42.0953 60.3006 42.1041 60.3093 42.115 60.3158C42.1237 60.3223 42.1325 60.331 42.1412 60.3375C42.1521 60.3461 42.1631 60.3548 42.174 60.3613C42.1915 60.3744 42.2089 60.3874 42.2286 60.4004C42.2308 60.4026 42.233 60.4026 42.2352 60.4047C42.2526 60.4177 42.2723 60.4308 42.292 60.4438C42.2963 60.446 42.2985 60.4503 42.3029 60.4525C42.3204 60.4655 42.34 60.4763 42.3575 60.4872C42.3663 60.4937 42.3772 60.5002 42.3859 60.5045C42.4187 60.5241 42.4515 60.5436 42.4842 60.5631C42.4952 60.5696 42.5061 60.5762 42.517 60.5827C42.5258 60.587 42.5323 60.5913 42.5411 60.5957C42.552 60.6022 42.5629 60.6065 42.5738 60.613C42.576 60.6152 42.5804 60.6152 42.5826 60.6174C42.611 60.6326 42.6416 60.6478 42.6721 60.663L42.6853 60.6695C42.7071 60.6803 42.7311 60.6912 42.753 60.702C42.7727 60.7107 42.7923 60.7194 42.8098 60.7281C42.8185 60.7324 42.8251 60.7346 42.8338 60.7389C42.8513 60.7454 42.8688 60.7541 42.8863 60.7606C42.9081 60.7693 42.9278 60.7758 42.9496 60.7845C42.9518 60.7845 42.954 60.7866 42.9562 60.7866C42.978 60.7953 43.0021 60.8018 43.0239 60.8105C43.037 60.8148 43.0523 60.8192 43.0676 60.8235C43.1004 60.8344 43.1332 60.8431 43.1681 60.8539C43.1922 60.8604 43.214 60.8669 43.238 60.8734C43.2621 60.8799 43.2839 60.8843 43.308 60.8908C43.3101 60.8908 43.3123 60.8908 43.3145 60.893C43.3364 60.8973 43.356 60.9016 43.3779 60.906C43.3822 60.906 43.3866 60.9082 43.391 60.9082C43.4085 60.9125 43.4259 60.9147 43.4456 60.919C43.4543 60.9212 43.4609 60.9212 43.4696 60.9234C43.4718 60.9234 43.4718 60.9234 43.474 60.9234C43.4915 60.9255 43.5111 60.9299 43.5308 60.932C43.5308 60.932 43.5308 60.932 43.533 60.932C43.5548 60.9364 43.5789 60.9385 43.6007 60.9407C43.6073 60.9407 43.6138 60.9429 43.6204 60.9429C43.6401 60.945 43.6619 60.9472 43.6816 60.9494C43.6838 60.9494 43.6838 60.9494 43.6859 60.9494C43.71 60.9516 43.734 60.9537 43.758 60.9559C43.7843 60.9581 43.8083 60.9602 43.8345 60.9602C43.8564 60.9624 43.8804 60.9624 43.9022 60.9624C43.9066 60.9624 43.911 60.9624 43.9154 60.9624C43.9394 60.9624 43.9656 60.9624 43.9896 60.9624C44.0224 60.9624 44.0574 60.9624 44.0901 60.9602C44.1054 60.9602 44.1207 60.9602 44.136 60.9581C44.1426 60.9581 44.1491 60.9581 44.1557 60.9581C44.1775 60.9581 44.1972 60.9559 44.2191 60.9537C44.2212 60.9537 44.2256 60.9537 44.2278 60.9537C44.2453 60.9516 44.2628 60.9516 44.278 60.9494C44.289 60.9494 44.2999 60.9472 44.3108 60.9472C44.3217 60.9472 44.3327 60.945 44.3414 60.9429C44.3567 60.9407 44.3698 60.9407 44.3829 60.9385C44.4266 60.932 44.4703 60.9255 44.5118 60.919C44.9313 60.8452 45.3071 60.6065 45.53 60.2463C45.5322 60.2442 45.5344 60.2398 45.5365 60.2376C45.6392 60.0706 45.6939 59.8774 45.696 59.68V59.6778C45.696 59.6583 45.696 59.6409 45.696 59.6214C45.696 59.6127 45.696 59.604 45.6939 59.5953C45.6873 59.4934 45.6676 59.3935 45.6327 59.3002C45.589 59.1852 45.5344 59.0746 45.4688 58.9704C45.3443 58.7729 45.1651 58.6167 44.9532 58.5169C44.8833 58.4843 44.809 58.4561 44.7347 58.4323C44.5774 58.3823 44.4135 58.352 44.2409 58.3455C44.2147 58.3433 44.1885 58.3433 44.1622 58.3433C43.6816 58.3433 43.2424 58.5234 42.9103 58.8185C42.9081 58.8185 42.9059 58.8185 42.9037 58.8185C42.3444 58.276 41.9992 57.5187 41.9992 56.6811C41.9992 56.2818 42.0779 55.9021 42.2199 55.5527C41.7021 55.926 41.3088 56.4619 41.1121 57.0825C41.1056 57.1021 41.099 57.1216 41.0946 57.1411C41.0925 57.1498 41.0881 57.1607 41.0859 57.1715C41.0815 57.1867 41.0772 57.2041 41.0728 57.2193C41.0706 57.2236 41.0706 57.2258 41.0706 57.2301C41.0641 57.2518 41.0597 57.2757 41.0531 57.2974C41.0466 57.3212 41.0422 57.3451 41.0378 57.3712C41.0335 57.3907 41.0291 57.4102 41.0269 57.4297C41.0247 57.4406 41.0225 57.4514 41.0204 57.4623C41.016 57.4905 41.0116 57.5187 41.0073 57.5469C41.0051 57.5599 41.0029 57.5708 41.0029 57.5838C41.0007 57.5925 41.0007 57.6012 41.0007 57.6098C40.9985 57.6229 40.9985 57.6337 40.9963 57.6467C40.9941 57.6576 40.9941 57.6706 40.992 57.6815C40.9898 57.701 40.9876 57.7227 40.9876 57.7444C40.9854 57.7682 40.9832 57.7921 40.9832 57.816C40.9832 57.8203 40.9832 57.8247 40.9832 57.829C40.981 57.8485 40.981 57.8681 40.981 57.8876C40.981 57.8919 40.981 57.8963 40.981 57.9028C40.9832 57.9397 40.9832 57.9635 40.9832 57.9874Z" fill="url(#paint9_linear_2761_6750)"/>
<path d="M42.4645 55.4121C42.5409 55.4468 42.6174 55.488 42.6873 55.5314C42.7398 55.564 42.79 55.5987 42.8381 55.6377C42.9146 55.6963 42.9845 55.7614 43.05 55.8309C43.3406 56.139 43.5285 56.5426 43.5569 56.9918C43.5613 57.0547 43.5744 57.1177 43.5962 57.1784C43.5984 57.1849 43.6006 57.1893 43.6028 57.1958C43.7099 57.467 43.8803 57.7079 44.0966 57.901C44.3369 58.1158 44.6362 58.2699 44.9662 58.3393C45.0055 58.348 45.0689 58.3545 45.1104 58.3545C45.1912 58.3545 45.2699 58.3632 45.3463 58.3784C45.6632 58.4457 45.9319 58.6453 46.0892 58.9187C46.1832 59.0814 46.2378 59.2724 46.2378 59.4742C46.2378 59.6261 46.2072 59.7715 46.1526 59.9039C46.3558 59.5024 46.4694 59.0489 46.4694 58.5693C46.4694 57.3043 45.6784 56.2236 44.562 55.7853C45.106 55.9068 45.5932 56.1737 45.9821 56.5426C46.2487 56.7965 46.4453 57.1155 46.5568 57.4648C46.6464 57.7469 46.6944 58.0486 46.6944 58.3589C46.6944 59.0098 46.4847 59.6131 46.1285 60.1035C46.3579 59.8778 46.548 59.6131 46.6944 59.3223C46.7862 59.14 46.8583 58.9491 46.9129 58.7494C46.9763 58.5064 47.0112 58.2525 47.0112 57.99C47.0112 57.8142 46.9959 57.6428 46.9653 57.4757C46.9348 57.2978 46.8867 57.1242 46.8255 56.9571C46.43 55.8873 45.4359 55.1061 44.2452 55.0106C44.1643 55.0041 44.0813 55.002 43.9983 55.002C43.8737 55.002 43.7492 55.0085 43.6268 55.0237C43.2051 55.0714 42.8119 55.2081 42.4645 55.4121Z" fill="#8DB53F"/>
<path d="M6.31982 42.5515C6.54705 42.4798 6.67159 42.2412 6.60167 42.0155L0.842285 23.8227C0.770184 23.597 0.529844 23.4733 0.302615 23.5427C0.075386 23.6143 -0.0491552 23.853 0.0207615 24.0787L5.78015 42.2715C5.85225 42.4972 6.09259 42.6231 6.31982 42.5515Z" fill="#110B09"/>
<path d="M4.66409 40.3447C4.34882 40.113 4.2614 39.6995 4.46882 39.4211C4.67625 39.1426 5.09997 39.1047 5.41524 39.3364C5.73051 39.5681 5.81793 39.9816 5.61051 40.26C5.40308 40.5384 4.97935 40.5763 4.66409 40.3447Z" fill="#720D27"/>
<path d="M45.2152 12.7299C45.2152 12.7299 44.7432 9.94156 48.392 8.45731C52.0408 6.97307 52.0867 6.73438 52.0867 6.73438C52.0867 6.73438 49.7051 12.7668 45.2152 12.7299Z" fill="#687F21"/>
<path d="M44.5946 11.5042C44.5946 11.5042 46.2399 9.19536 49.8799 10.697C53.5199 12.1986 53.7231 12.0619 53.7231 12.0619C53.7231 12.0619 47.7562 14.6723 44.5946 11.5042Z" fill="#7FA02D"/>
<path d="M37.5288 10.4743C39.8383 11.1948 42.3138 11.2251 44.6407 10.5633C45.3311 10.368 46.0565 10.7347 46.3231 11.3966C46.3274 11.4052 46.3296 11.4139 46.334 11.4226C46.6464 12.2016 46.2051 13.0696 45.3923 13.2974C42.5497 14.0981 39.5324 14.0613 36.7117 13.1889C35.9055 12.9394 35.4838 12.0606 35.8181 11.2902C35.8224 11.2816 35.8246 11.2729 35.829 11.2642C36.1108 10.611 36.845 10.2617 37.5288 10.4743Z" fill="#8DB53F"/>
<path fill-rule="evenodd" clip-rule="evenodd" d="M46.7818 52.4954L53.8434 56.3492C54.0619 56.4533 54.3153 56.3014 54.3197 56.0606L54.4268 51.5059C51.6935 51.9789 49.2486 52.3196 46.7818 52.4954Z" fill="#D3D3D3"/>
<path fill-rule="evenodd" clip-rule="evenodd" d="M41.1731 52.5527L34.1465 56.502C33.928 56.6061 33.6745 56.4542 33.6702 56.2134L33.5391 51.752C36.2746 52.2293 38.7063 52.3769 41.1731 52.5527Z" fill="#D3D3D3"/>
</g>
<defs>
<linearGradient id="paint0_linear_2761_6750" x1="43.3588" y1="65.3647" x2="43.3588" y2="-0.000580515" gradientUnits="userSpaceOnUse">
<stop stop-color="#B7304A"/>
<stop offset="0.0426" stop-color="#BE3552"/>
<stop offset="0.1888" stop-color="#D04569"/>
<stop offset="0.3275" stop-color="#DB4E76"/>
<stop offset="0.4498" stop-color="#DF517B"/>
<stop offset="0.5481" stop-color="#DF5480"/>
<stop offset="0.6605" stop-color="#DE5D8E"/>
<stop offset="0.7407" stop-color="#DD669C"/>
<stop offset="0.7534" stop-color="#DA6195"/>
<stop offset="0.8228" stop-color="#CA4B73"/>
<stop offset="0.8889" stop-color="#BE3B5B"/>
<stop offset="0.9497" stop-color="#B7314C"/>
<stop offset="1" stop-color="#B52E47"/>
</linearGradient>
<linearGradient id="paint1_linear_2761_6750" x1="56.4969" y1="23.6474" x2="56.4969" y2="63.3918" gradientUnits="userSpaceOnUse">
<stop stop-color="#F5A1B8" stop-opacity="0"/>
<stop offset="0.0681" stop-color="#F5A1B8" stop-opacity="0.0687"/>
<stop offset="0.9901" stop-color="#F5A1B8"/>
</linearGradient>
<linearGradient id="paint2_linear_2761_6750" x1="27.5866" y1="24.1221" x2="27.5866" y2="60.9783" gradientUnits="userSpaceOnUse">
<stop stop-color="#F5A1B8" stop-opacity="0"/>
<stop offset="0.0681" stop-color="#F5A1B8" stop-opacity="0.0687"/>
<stop offset="0.9901" stop-color="#F5A1B8"/>
</linearGradient>
<linearGradient id="paint3_linear_2761_6750" x1="42.9364" y1="15.9948" x2="49.3744" y2="62.5511" gradientUnits="userSpaceOnUse">
<stop stop-color="#F5A1B8" stop-opacity="0"/>
<stop offset="0.0681" stop-color="#F5A1B8" stop-opacity="0.0687"/>
<stop offset="0.9901" stop-color="#F5A1B8"/>
</linearGradient>
<linearGradient id="paint4_linear_2761_6750" x1="48.9448" y1="31.5872" x2="53.2019" y2="60.3702" gradientUnits="userSpaceOnUse">
<stop stop-color="#F5A1B8" stop-opacity="0"/>
<stop offset="0.0681" stop-color="#F5A1B8" stop-opacity="0.0687"/>
<stop offset="0.9901" stop-color="#F5A1B8"/>
</linearGradient>
<linearGradient id="paint5_linear_2761_6750" x1="38.3688" y1="31.412" x2="33.9224" y2="61.4745" gradientUnits="userSpaceOnUse">
<stop stop-color="#F5A1B8" stop-opacity="0"/>
<stop offset="0.0681" stop-color="#F5A1B8" stop-opacity="0.0687"/>
<stop offset="0.9901" stop-color="#F5A1B8"/>
</linearGradient>
<radialGradient id="paint6_radial_2761_6750" cx="0" cy="0" r="1" gradientUnits="userSpaceOnUse" gradientTransform="translate(43.3588 52.245) rotate(180) scale(24.0877 23.9229)">
<stop stop-color="white"/>
<stop offset="0.6941" stop-color="#E4E4E4"/>
<stop offset="1" stop-color="#D6D6D6"/>
</radialGradient>
<radialGradient id="paint7_radial_2761_6750" cx="0" cy="0" r="1" gradientUnits="userSpaceOnUse" gradientTransform="translate(14.567 49.1987) rotate(124.316) scale(4.96548 4.97801)">
<stop stop-color="white"/>
<stop offset="0.6941" stop-color="#E4E4E4"/>
<stop offset="1" stop-color="#D6D6D6"/>
</radialGradient>
<radialGradient id="paint8_radial_2761_6750" cx="0" cy="0" r="1" gradientUnits="userSpaceOnUse" gradientTransform="translate(74.4382 44.3374) rotate(180) scale(5.02996 4.99554)">
<stop stop-color="white"/>
<stop offset="0.6941" stop-color="#E4E4E4"/>
<stop offset="1" stop-color="#D6D6D6"/>
</radialGradient>
<linearGradient id="paint9_linear_2761_6750" x1="45.5423" y1="58.0435" x2="41.0154" y2="58.4923" gradientUnits="userSpaceOnUse">
<stop stop-color="#4FAAA2"/>
<stop offset="1" stop-color="#92C1AD"/>
</linearGradient>
<clipPath id="clip0_2761_6750">
<rect width="80" height="73.3333" fill="white"/>
</clipPath>
</defs>
</svg>
