<svg width="58" height="58" viewBox="0 0 58 58" fill="none" xmlns="http://www.w3.org/2000/svg">
<path d="M29 57.5C44.7401 57.5 57.5 44.7401 57.5 29C57.5 13.2599 44.7401 0.5 29 0.5C13.2599 0.5 0.5 13.2599 0.5 29C0.5 44.7401 13.2599 57.5 29 57.5Z" fill="#D7232E"/>
<path d="M32.6919 28.8509C31.9819 28.1509 31.3579 27.5318 30.7379 26.9118C28.1886 24.3645 25.6392 21.8172 23.0899 19.2699C22.9117 19.1174 22.7681 18.9288 22.6684 18.7165C22.5688 18.5043 22.5154 18.2733 22.5119 18.0389C22.5035 17.7478 22.5823 17.4609 22.7382 17.215C22.8942 16.9691 23.1201 16.7754 23.3869 16.6589C23.6471 16.5282 23.9402 16.4774 24.2292 16.513C24.5182 16.5486 24.7902 16.6689 25.0109 16.8589C25.1123 16.9432 25.2082 17.0341 25.2979 17.1309L35.7209 27.5479C35.9151 27.6928 36.073 27.8809 36.1822 28.0972C36.2913 28.3136 36.3488 28.5523 36.3501 28.7946C36.3513 29.0369 36.2963 29.2763 36.1894 29.4937C36.0825 29.7112 35.9266 29.9009 35.7339 30.0479C32.2432 33.5425 28.7529 37.0355 25.2629 40.5269C25.1102 40.7054 24.9211 40.8491 24.7082 40.9485C24.4954 41.0478 24.2638 41.1004 24.0289 41.1029C23.7375 41.1092 23.4508 41.0281 23.2059 40.87C22.961 40.7119 22.7691 40.484 22.6549 40.2159C22.5252 39.9558 22.4749 39.6632 22.5105 39.3747C22.5461 39.0862 22.6659 38.8146 22.8549 38.5939C22.9556 38.4747 23.0634 38.3618 23.1779 38.2559C26.2279 35.2072 29.2789 32.1585 32.3309 29.1098C32.444 29.0142 32.564 28.9269 32.6899 28.8489L32.6919 28.8509Z" fill="white" stroke="white" stroke-width="3"/>
</svg>
