<svg width="58" height="58" viewBox="0 0 58 58" fill="none" xmlns="http://www.w3.org/2000/svg">
<path d="M29 57.5C44.7401 57.5 57.5 44.7401 57.5 29C57.5 13.2599 44.7401 0.5 29 0.5C13.2599 0.5 0.5 13.2599 0.5 29C0.5 44.7401 13.2599 57.5 29 57.5Z" fill="#D7232E"/>
<path d="M25.308 28.8509C26.018 28.1509 26.642 27.5318 27.262 26.9118C29.8113 24.3645 32.3607 21.8172 34.91 19.2699C35.0881 19.1174 35.2318 18.9288 35.3314 18.7165C35.4311 18.5043 35.4845 18.2733 35.488 18.0389C35.4964 17.7478 35.4175 17.4609 35.2616 17.215C35.1057 16.9691 34.8798 16.7754 34.613 16.6589C34.3528 16.5282 34.0597 16.4774 33.7707 16.513C33.4817 16.5486 33.2097 16.6689 32.989 16.8589C32.887 16.9419 32.7905 17.0314 32.7 17.1269L22.279 27.5479C22.0848 27.6928 21.9269 27.8809 21.8177 28.0972C21.7085 28.3136 21.6511 28.5523 21.6498 28.7946C21.6485 29.0369 21.7035 29.2763 21.8105 29.4937C21.9174 29.7112 22.0733 29.9009 22.266 30.0479C25.7553 33.5425 29.2457 37.0355 32.737 40.5269C32.8901 40.7049 33.0795 40.8482 33.2925 40.947C33.5055 41.0459 33.7372 41.098 33.972 41.0999C34.2629 41.1062 34.5491 41.0255 34.7937 40.8679C35.0384 40.7104 35.2304 40.4833 35.345 40.2159C35.4747 39.9558 35.5249 39.6632 35.4894 39.3747C35.4538 39.0862 35.334 38.8146 35.145 38.5939C35.0443 38.4747 34.9364 38.3618 34.822 38.2559C31.7707 35.2072 28.7197 32.1585 25.669 29.1098C25.5559 29.0142 25.4359 28.9269 25.31 28.8489L25.308 28.8509Z" fill="white" stroke="white" stroke-width="3"/>
</svg>
