<svg width="58" height="58" viewBox="0 0 58 58" fill="none" xmlns="http://www.w3.org/2000/svg">
<path d="M29 57.5C44.7401 57.5 57.5 44.7401 57.5 29C57.5 13.2599 44.7401 0.5 29 0.5C13.2599 0.5 0.5 13.2599 0.5 29C0.5 44.7401 13.2599 57.5 29 57.5Z" fill="#7EB93E"/>
<path d="M25.3075 28.8509C26.0175 28.1509 26.6415 27.5318 27.2615 26.9118C29.8108 24.3645 32.3602 21.8172 34.9095 19.2699C35.0876 19.1174 35.2313 18.9288 35.331 18.7165C35.4306 18.5043 35.484 18.2733 35.4875 18.0389C35.4959 17.7478 35.4171 17.4609 35.2611 17.215C35.1052 16.9691 34.8793 16.7754 34.6125 16.6589C34.3523 16.5282 34.0592 16.4774 33.7702 16.513C33.4812 16.5486 33.2092 16.6689 32.9885 16.8589C32.8865 16.9419 32.79 17.0314 32.6995 17.1269L22.2785 27.5479C22.0843 27.6928 21.9264 27.8809 21.8172 28.0972C21.7081 28.3136 21.6506 28.5523 21.6493 28.7946C21.6481 29.0369 21.703 29.2763 21.81 29.4937C21.9169 29.7112 22.0728 29.9009 22.2655 30.0479C25.7548 33.5425 29.2452 37.0355 32.7365 40.5269C32.8896 40.7049 33.079 40.8482 33.292 40.947C33.505 41.0459 33.7367 41.098 33.9715 41.0999C34.2624 41.1062 34.5486 41.0255 34.7933 40.8679C35.0379 40.7104 35.2299 40.4833 35.3445 40.2159C35.4742 39.9558 35.5245 39.6632 35.4889 39.3747C35.4533 39.0862 35.3335 38.8146 35.1445 38.5939C35.0438 38.4747 34.936 38.3618 34.8215 38.2559C31.7702 35.2072 28.7192 32.1585 25.6685 29.1098C25.5554 29.0142 25.4354 28.9269 25.3095 28.8489L25.3075 28.8509Z" fill="white" stroke="white" stroke-width="3"/>
</svg>
