<svg width="57" height="57" viewBox="0 0 57 57" fill="none" xmlns="http://www.w3.org/2000/svg">
<path d="M28.5 57C44.2401 57 57 44.2401 57 28.5C57 12.7599 44.2401 0 28.5 0C12.7599 0 0 12.7599 0 28.5C0 44.2401 12.7599 57 28.5 57Z" fill="#7EB93E"/>
<path d="M32.1914 28.3509C31.4814 27.6509 30.8574 27.0318 30.2374 26.4118C27.6881 23.8645 25.1387 21.3172 22.5894 18.7699C22.4113 18.6174 22.2676 18.4288 22.1679 18.2165C22.0683 18.0043 22.0149 17.7733 22.0114 17.5389C22.003 17.2478 22.0818 16.9609 22.2378 16.715C22.3937 16.4691 22.6196 16.2754 22.8864 16.1589C23.1466 16.0282 23.4397 15.9774 23.7287 16.013C24.0177 16.0486 24.2897 16.1689 24.5104 16.3589C24.6118 16.4432 24.7077 16.5341 24.7974 16.6309L35.2204 27.0479C35.4146 27.1928 35.5725 27.3809 35.6817 27.5972C35.7908 27.8136 35.8483 28.0523 35.8496 28.2946C35.8508 28.5369 35.7959 28.7763 35.6889 28.9937C35.582 29.2112 35.4261 29.4009 35.2334 29.5479C31.7427 33.0425 28.2524 36.5355 24.7624 40.0269C24.6097 40.2054 24.4206 40.3491 24.2078 40.4485C23.9949 40.5478 23.7633 40.6004 23.5284 40.6029C23.237 40.6092 22.9503 40.5281 22.7054 40.37C22.4605 40.2119 22.2686 39.984 22.1544 39.7159C22.0247 39.4558 21.9744 39.1632 22.01 38.8747C22.0456 38.5862 22.1654 38.3146 22.3544 38.0939C22.4551 37.9747 22.5629 37.8618 22.6774 37.7559C25.7274 34.7072 28.7784 31.6585 31.8304 28.6098C31.9435 28.5142 32.0635 28.4269 32.1894 28.3489L32.1914 28.3509Z" fill="white" stroke="white" stroke-width="3"/>
</svg>
