<svg width="25" height="25" viewBox="0 0 25 25" fill="none" xmlns="http://www.w3.org/2000/svg">
<g id="ri:whatsapp-fill">
<path id="Vector" d="M12.502 2.65039C18.025 2.65039 22.502 7.12739 22.502 12.6504C22.502 18.1734 18.025 22.6504 12.502 22.6504C10.7347 22.6532 8.99862 22.1856 7.47197 21.2954L2.50597 22.6504L3.85797 17.6824C2.96706 16.1553 2.49901 14.4184 2.50197 12.6504C2.50197 7.12739 6.97897 2.65039 12.502 2.65039ZM9.09397 7.95039L8.89397 7.95839C8.76449 7.96628 8.63795 8.00029 8.52197 8.05839C8.41349 8.11982 8.31446 8.19662 8.22797 8.28639C8.10797 8.39939 8.03997 8.49739 7.96697 8.59239C7.59709 9.07329 7.39794 9.6637 7.40097 10.2704C7.40297 10.7604 7.53097 11.2374 7.73097 11.6834C8.13997 12.5854 8.81297 13.5404 9.70097 14.4254C9.91497 14.6384 10.125 14.8524 10.351 15.0514C11.4544 16.0229 12.7692 16.7234 14.191 17.0974L14.759 17.1844C14.944 17.1944 15.129 17.1804 15.315 17.1714C15.6062 17.1564 15.8906 17.0775 16.148 16.9404C16.2789 16.8729 16.4067 16.7995 16.531 16.7204C16.531 16.7204 16.574 16.6924 16.656 16.6304C16.791 16.5304 16.874 16.4594 16.986 16.3424C17.069 16.2564 17.141 16.1554 17.196 16.0404C17.274 15.8774 17.352 15.5664 17.384 15.3074C17.408 15.1094 17.401 15.0014 17.398 14.9344C17.394 14.8274 17.305 14.7164 17.208 14.6694L16.626 14.4084C16.626 14.4084 15.756 14.0294 15.224 13.7874C15.1683 13.7631 15.1086 13.7492 15.048 13.7464C14.9795 13.7394 14.9104 13.7471 14.8452 13.769C14.78 13.7909 14.7203 13.8265 14.67 13.8734C14.665 13.8714 14.598 13.9284 13.875 14.8044C13.8335 14.8602 13.7763 14.9023 13.7108 14.9254C13.6452 14.9486 13.5743 14.9517 13.507 14.9344C13.4418 14.9169 13.378 14.8949 13.316 14.8684C13.192 14.8164 13.149 14.7964 13.064 14.7604C12.49 14.5099 11.9587 14.1715 11.489 13.7574C11.363 13.6474 11.246 13.5274 11.126 13.4114C10.7326 13.0346 10.3897 12.6084 10.106 12.1434L10.047 12.0484C10.0046 11.9846 9.97033 11.9157 9.94497 11.8434C9.90697 11.6964 10.006 11.5784 10.006 11.5784C10.006 11.5784 10.249 11.3124 10.362 11.1684C10.472 11.0284 10.565 10.8924 10.625 10.7954C10.743 10.6054 10.78 10.4104 10.718 10.2594C10.438 9.57539 10.148 8.89439 9.84997 8.21839C9.79097 8.08439 9.61597 7.98839 9.45697 7.96939C9.40297 7.96339 9.34897 7.95739 9.29497 7.95339C9.16067 7.94672 9.0261 7.94805 8.89197 7.95739L9.09297 7.94939L9.09397 7.95039Z" fill="white"/>
</g>
</svg>
